<?xml version="1.0" encoding="UTF-8"?>
<!-- Generator: visioncortex VTracer 0.6.12 -->
<svg version="1.1" xmlns="http://www.w3.org/2000/svg" width="256" height="256" viewBox="0 0 256 256" fill="none">
<path d="M0 0 C0.563 -0.004 0.563 -0.004 3.412 -0.025 C7.13 -0.049 10.848 -0.058 14.565 -0.065 C17.156 -0.074 19.747 -0.083 22.337 -0.092 C27.768 -0.109 33.198 -0.116 38.628 -0.119 C44.885 -0.123 51.141 -0.153 57.397 -0.195 C63.437 -0.234 69.477 -0.245 75.517 -0.246 C78.076 -0.25 80.636 -0.262 83.195 -0.283 C86.783 -0.31 90.369 -0.305 93.957 -0.293 C95.006 -0.308 96.054 -0.323 97.135 -0.338 C105.67 -0.254 112.027 2.241 118.612 7.681 C123.783 14.069 125.914 20.545 128.05 28.369 C128.657 30.523 129.266 32.677 129.878 34.83 C130.185 35.914 130.493 36.997 130.81 38.114 C132.212 42.938 133.75 47.715 135.3 52.494 C137.926 60.625 140.357 68.794 142.67 77.019 C144.303 82.823 146.03 88.582 147.878 94.322 C150.548 103.594 151.049 112.191 151.038 121.779 C151.042 123.272 151.046 124.764 151.051 126.257 C151.058 129.371 151.058 132.485 151.053 135.599 C151.047 139.572 151.064 143.544 151.087 147.517 C151.102 150.595 151.103 153.672 151.1 156.749 C151.1 158.214 151.106 159.678 151.116 161.142 C151.162 168.732 151.113 175.357 147.737 182.306 C147.077 182.306 146.417 182.306 145.737 182.306 C145.737 182.966 145.737 183.626 145.737 184.306 C145.077 184.306 144.417 184.306 143.737 184.306 C143.737 184.966 143.737 185.626 143.737 186.306 C139.14 188.99 135.423 189.739 130.191 189.687 C129.452 189.692 128.713 189.697 127.951 189.702 C125.485 189.713 123.019 189.704 120.552 189.695 C118.779 189.699 117.006 189.704 115.234 189.711 C110.426 189.724 105.618 189.719 100.81 189.709 C95.775 189.702 90.74 189.709 85.706 189.714 C77.25 189.719 68.794 189.712 60.338 189.698 C50.567 189.681 40.797 189.686 31.027 189.703 C22.634 189.717 14.24 189.719 5.847 189.711 C0.836 189.706 -4.175 189.705 -9.186 189.715 C-13.898 189.724 -18.61 189.718 -23.322 189.701 C-25.049 189.697 -26.777 189.698 -28.504 189.704 C-30.866 189.713 -33.228 189.702 -35.59 189.687 C-36.27 189.694 -36.949 189.701 -37.65 189.708 C-42.575 189.647 -45.917 188.43 -50.263 186.306 C-50.263 185.646 -50.263 184.986 -50.263 184.306 C-50.923 184.306 -51.583 184.306 -52.263 184.306 C-52.263 183.646 -52.263 182.986 -52.263 182.306 C-52.923 182.306 -53.583 182.306 -54.263 182.306 C-57.867 174.794 -57.736 167.559 -57.731 159.353 C-57.739 157.888 -57.746 156.423 -57.755 154.958 C-57.768 151.888 -57.77 148.818 -57.764 145.749 C-57.759 142.642 -57.773 139.535 -57.805 136.428 C-57.982 119.086 -57.779 102.95 -52.263 86.306 C-51.667 84.237 -51.076 82.167 -50.489 80.095 C-49.961 78.372 -49.427 76.651 -48.888 74.931 C-48.597 73.988 -48.306 73.044 -48.006 72.072 C-45.616 64.354 -43.152 56.659 -40.684 48.966 C-39.062 43.892 -37.516 38.81 -36.075 33.681 C-29.357 9.811 -29.357 9.811 -19.677 3.568 C-13.12 0.141 -7.249 0.005 0 0 Z M-16.2 18.056 C-23.492 27.302 -22.473 40.733 -23.052 51.994 C-23.119 53.292 -23.187 54.589 -23.256 55.926 C-23.398 58.659 -23.537 61.392 -23.675 64.126 C-23.851 67.606 -24.036 71.085 -24.223 74.564 C-24.402 77.916 -24.57 81.267 -24.739 84.619 C-24.807 85.857 -24.875 87.094 -24.944 88.37 C-25.756 105.086 -25.756 105.086 -22.263 112.306 C-21.603 112.306 -20.943 112.306 -20.263 112.306 C-20.263 112.966 -20.263 113.626 -20.263 114.306 C-19.603 114.306 -18.943 114.306 -18.263 114.306 C-18.263 114.966 -18.263 115.626 -18.263 116.306 C-12.069 119.589 -6.754 119.734 0.177 119.695 C1.31 119.7 2.442 119.705 3.609 119.711 C7.341 119.724 11.072 119.715 14.804 119.705 C17.403 119.707 20.001 119.71 22.6 119.714 C28.041 119.718 33.482 119.712 38.924 119.698 C45.204 119.681 51.485 119.686 57.766 119.703 C63.822 119.718 69.879 119.717 75.935 119.708 C78.507 119.706 81.078 119.708 83.649 119.715 C87.242 119.723 90.834 119.711 94.427 119.695 C95.488 119.701 96.55 119.707 97.644 119.713 C103.188 119.665 107.032 119.334 111.737 116.306 C111.737 115.646 111.737 114.986 111.737 114.306 C112.397 114.306 113.057 114.306 113.737 114.306 C113.737 113.646 113.737 112.986 113.737 112.306 C114.397 112.306 115.057 112.306 115.737 112.306 C117.193 107.725 117.986 103.945 117.913 99.095 C117.895 97.786 117.876 96.477 117.857 95.128 C117.819 93.521 117.779 91.913 117.737 90.306 C117.726 89.82 117.726 89.82 117.668 87.357 C117.499 80.366 117.285 73.378 117.048 66.39 C116.966 63.914 116.889 61.438 116.818 58.962 C116.714 55.334 116.593 51.707 116.468 48.08 C116.44 46.991 116.411 45.902 116.382 44.78 C116.021 35.235 115.382 23.71 108.737 16.306 C102.078 11.064 96.163 11.155 88.041 11.145 C87.07 11.14 86.098 11.135 85.097 11.13 C81.889 11.116 78.68 11.109 75.472 11.103 C73.236 11.098 71 11.092 68.764 11.086 C64.077 11.075 59.39 11.07 54.703 11.066 C48.71 11.061 42.717 11.037 36.724 11.008 C32.105 10.99 27.486 10.984 22.867 10.983 C20.658 10.98 18.449 10.972 16.241 10.959 C13.144 10.942 10.048 10.943 6.951 10.95 C6.047 10.941 5.143 10.932 4.211 10.922 C-3.257 10.971 -11.207 11.952 -16.2 18.056 Z M124.737 62.306 C125.737 65.306 125.737 65.306 125.737 65.306 Z M125.737 65.306 C123.831 93.65 122.44 117.565 135.737 143.306 C136.783 145.624 137.765 147.957 138.737 150.306 C139.067 150.306 139.397 150.306 139.737 150.306 C139.762 145.487 139.78 140.667 139.792 135.847 C139.797 134.211 139.804 132.575 139.813 130.939 C139.926 109.148 139.926 109.148 137.05 100.556 C135.111 94.548 133.336 88.506 131.612 82.431 C131.359 81.54 131.105 80.648 130.844 79.729 C130.362 78.034 129.881 76.339 129.4 74.643 C128.517 71.53 127.628 68.418 126.737 65.306 C126.407 65.306 126.077 65.306 125.737 65.306 Z M-33.263 66.306 C-33.409 66.806 -33.409 66.806 -34.149 69.332 C-35.24 73.056 -36.332 76.78 -37.425 80.503 C-37.897 82.111 -38.368 83.719 -38.839 85.327 C-39.518 87.646 -40.199 89.965 -40.88 92.283 C-41.088 92.996 -41.297 93.708 -41.511 94.443 C-42.395 97.446 -43.303 100.42 -44.349 103.37 C-46.275 109.561 -46.403 115.669 -46.36 122.084 C-46.359 122.895 -46.358 123.706 -46.356 124.542 C-46.351 127.11 -46.338 129.677 -46.325 132.244 C-46.32 133.995 -46.316 135.745 -46.312 137.496 C-46.301 141.766 -46.283 146.036 -46.263 150.306 C-44.385 147.489 -43.358 145.133 -42.204 141.974 C-41.818 140.928 -41.432 139.882 -41.034 138.804 C-40.835 138.258 -40.835 138.258 -39.825 135.494 C-39.038 133.34 -38.248 131.188 -37.454 129.037 C-37.105 128.082 -36.757 127.127 -36.398 126.143 C-35.263 123.306 -35.263 123.306 -33.644 120.682 C-31.592 115.666 -31.893 110.93 -31.97 105.564 C-31.974 104.441 -31.978 103.317 -31.983 102.16 C-31.999 98.583 -32.037 95.008 -32.075 91.431 C-32.09 89.002 -32.104 86.572 -32.116 84.142 C-32.149 78.197 -32.199 72.252 -32.263 66.306 C-32.593 66.306 -32.923 66.306 -33.263 66.306 Z M-25.263 123.306 C-27.694 127.889 -29.436 132.471 -31.075 137.369 C-32.917 142.753 -34.917 147.92 -37.388 153.056 C-40.31 159.194 -43.086 165.578 -44.263 172.306 C-43.603 173.296 -42.943 174.286 -42.263 175.306 C-41.603 175.306 -40.943 175.306 -40.263 175.306 C-40.263 175.966 -40.263 176.626 -40.263 177.306 C-36.654 178.431 -33.279 178.435 -29.513 178.44 C-28.836 178.442 -28.158 178.445 -27.46 178.447 C-25.19 178.453 -22.92 178.452 -20.65 178.452 C-19.022 178.455 -17.394 178.458 -15.766 178.462 C-11.344 178.471 -6.923 178.473 -2.502 178.474 C1.189 178.475 4.879 178.478 8.57 178.482 C17.276 178.49 25.981 178.492 34.687 178.492 C43.67 178.491 52.653 178.502 61.636 178.517 C69.347 178.531 77.059 178.536 84.77 178.535 C89.376 178.535 93.982 178.538 98.588 178.548 C102.92 178.558 107.251 178.558 111.582 178.551 C113.172 178.55 114.761 178.552 116.351 178.558 C118.521 178.566 120.691 178.561 122.861 178.554 C123.468 178.554 123.468 178.554 126.541 178.555 C130.961 178.211 133.728 177.438 136.702 174.103 C138.179 170.113 137.042 168.383 135.3 164.556 C134.716 163.223 134.135 161.889 133.558 160.552 C133.254 159.859 132.95 159.165 132.637 158.45 C131.147 154.899 129.919 151.262 128.675 147.619 C125.805 139.333 122.744 131.12 118.737 123.306 C118.062 123.511 117.386 123.716 116.69 123.927 C116.244 124.062 116.244 124.062 113.987 124.744 C113.546 124.877 113.546 124.877 111.315 125.552 C107.395 126.699 104.032 127.432 99.926 127.447 C99.444 127.45 99.444 127.45 97 127.464 C95.947 127.465 94.894 127.466 93.809 127.468 C93.252 127.47 93.252 127.47 90.433 127.483 C86.741 127.497 83.05 127.504 79.358 127.51 C76.79 127.515 74.221 127.521 71.652 127.527 C66.95 127.536 62.248 127.542 57.546 127.545 C50.649 127.55 43.751 127.567 36.854 127.596 C30.862 127.621 24.87 127.628 18.878 127.63 C16.339 127.633 13.8 127.641 11.261 127.654 C7.697 127.671 4.134 127.669 0.571 127.663 C0.052 127.667 0.052 127.667 -2.577 127.691 C-10.66 127.645 -17.637 125.848 -25.263 123.306 Z " fill="#2D241C" transform="translate(81.2626953125,32.693603515625)"/>
<path d="M0 0 C2.051 0.033 4.102 0.065 6.152 0.098 C7.797 3.713 8.408 6.548 8.418 10.512 C8.421 11.52 8.423 12.528 8.426 13.566 C8.418 14.608 8.41 15.65 8.402 16.723 C8.41 17.772 8.418 18.821 8.426 19.902 C8.423 20.908 8.421 21.913 8.418 22.949 C8.416 23.865 8.413 24.781 8.411 25.725 C8.152 28.098 8.152 28.098 6.152 31.098 C3.41 31.569 0.957 31.276 -1.848 31.098 C-3.705 29.241 -2.978 26.173 -2.98 23.691 C-2.982 22.391 -2.983 21.09 -2.984 19.75 C-2.982 19.069 -2.98 18.388 -2.978 17.687 C-2.973 15.606 -2.978 13.526 -2.984 11.445 C-2.983 10.145 -2.982 8.844 -2.98 7.504 C-2.979 6.301 -2.978 5.097 -2.977 3.857 C-2.803 0.148 -2.803 0.148 0 0 Z " fill="#2D241C" transform="translate(125.84765625,57.90234375)"/>
<path d="M0 0 C6.067 -0.662 6.067 -0.662 8.938 1.375 C10 3 10 3 10 5 C10.66 5 11.32 5 12 5 C13.258 6.764 14.434 8.588 15.562 10.438 C18.947 15.947 18.947 15.947 20 17 C20.273 22.736 20.273 22.736 20 25 C18 27 18 27 14.812 27.688 C9.68 26.762 8.359 24.443 5.383 20.359 C4.105 18.179 3.442 16.47 3 14 C2.34 14 1.68 14 1 14 C-1.825 10.306 -2.501 7.609 -2 3 C-1.34 2.01 -0.68 1.02 0 0 Z " fill="#2D241C" transform="translate(92,68)"/>
<path d="M0 0 C6.75 -0.125 6.75 -0.125 9 1 C9.027 2.458 9.046 3.917 9.062 5.375 C9.074 6.187 9.086 6.999 9.098 7.836 C9 10 9 10 8 12 C7.34 12 6.68 12 6 12 C5.732 12.722 5.464 13.444 5.188 14.188 C4.001 16.998 2.725 19.484 1 22 C0.34 22 -0.32 22 -1 22 C-1.124 22.639 -1.248 23.279 -1.375 23.938 C-1.581 24.618 -1.787 25.299 -2 26 C-4.957 27.478 -7.742 27.06 -11 27 C-11 26.34 -11 25.68 -11 25 C-11.66 25 -12.32 25 -13 25 C-13.596 19.283 -12.402 16.3 -9.289 11.504 C-8.864 11.008 -8.438 10.511 -8 10 C-7.34 10 -6.68 10 -6 10 C-5.691 9.216 -5.381 8.433 -5.062 7.625 C-4 5 -4 5 -3 3 C-2.34 3 -1.68 3 -1 3 C-0.67 2.01 -0.34 1.02 0 0 Z " fill="#2D241C" transform="translate(157,68)"/>
<path d="M0 0 C0.748 -0.006 1.497 -0.011 2.268 -0.017 C3.848 -0.027 5.428 -0.033 7.008 -0.037 C9.4 -0.047 11.792 -0.078 14.184 -0.109 C23.36 -0.173 31.261 -0.071 39.172 5.203 C39.172 5.863 39.172 6.523 39.172 7.203 C39.832 7.203 40.492 7.203 41.172 7.203 C41.463 8 41.755 8.796 42.055 9.617 C45.809 19.322 45.809 19.322 49.484 22.203 C51.874 24.22 52.15 25.027 52.551 28.227 C52.547 31.242 52.434 34.2 52.172 37.203 C51.512 37.203 50.852 37.203 50.172 37.203 C49.842 38.193 49.512 39.183 49.172 40.203 C41.744 44.136 32.735 43.363 24.59 43.371 C23.38 43.374 22.171 43.378 20.925 43.381 C18.373 43.386 15.82 43.389 13.267 43.388 C9.383 43.391 5.499 43.409 1.615 43.428 C-0.872 43.431 -3.36 43.433 -5.848 43.434 C-6.999 43.441 -8.15 43.448 -9.337 43.455 C-25.267 43.411 -25.267 43.411 -31.953 39.266 C-34.747 34.702 -34.239 30.42 -33.828 25.203 C-33.168 25.203 -32.508 25.203 -31.828 25.203 C-31.498 24.213 -31.168 23.223 -30.828 22.203 C-30.168 22.203 -29.508 22.203 -28.828 22.203 C-27.293 19.269 -26.098 16.308 -24.953 13.203 C-22.845 7.926 -20.857 5.369 -15.891 2.516 C-10.631 0.261 -5.667 0.034 0 0 Z M-13.828 16.203 C-13.449 18.95 -13.05 20.004 -10.953 21.891 C-5.488 25.266 0.674 24.389 6.886 24.388 C8.967 24.391 11.047 24.409 13.127 24.428 C14.461 24.431 15.795 24.433 17.129 24.434 C18.335 24.438 19.542 24.442 20.784 24.446 C24.228 24.199 26.962 23.439 30.172 22.203 C30.172 21.543 30.172 20.883 30.172 20.203 C30.832 20.203 31.492 20.203 32.172 20.203 C31.688 14.756 31.688 14.756 29.615 12.533 C26.24 10.696 23.086 10.735 19.336 10.734 C18.579 10.727 17.822 10.719 17.042 10.711 C15.443 10.701 13.845 10.698 12.246 10.702 C9.811 10.703 7.38 10.662 4.945 10.617 C3.388 10.612 1.831 10.609 0.273 10.609 C-0.088 10.601 -0.088 10.601 -1.915 10.56 C-7.627 10.637 -9.93 12.353 -13.828 16.203 Z " fill="#2D241C" transform="translate(118.828125,96.796875)"/>
</svg>
