<?xml version="1.0" encoding="UTF-8"?>
<!-- Generator: visioncortex VTracer 0.6.12 -->
<svg version="1.1" xmlns="http://www.w3.org/2000/svg" width="256" height="256" viewBox="0 0 734 970" fill="none">
<path d="M0 0 C5.74 3.265 9.654 7.793 11.762 14.117 C11.864 16.898 11.91 19.654 11.909 22.434 C11.913 23.293 11.916 24.152 11.92 25.036 C11.931 27.924 11.935 30.812 11.939 33.7 C11.945 35.766 11.952 37.832 11.959 39.899 C11.976 45.521 11.987 51.143 11.995 56.765 C12 60.277 12.006 63.789 12.012 67.301 C12.031 78.287 12.046 89.273 12.054 100.26 C12.064 112.944 12.09 125.629 12.13 138.314 C12.161 148.116 12.175 157.918 12.179 167.721 C12.181 173.576 12.19 179.431 12.215 185.287 C12.238 190.797 12.243 196.306 12.232 201.817 C12.232 203.837 12.238 205.857 12.252 207.878 C12.27 210.64 12.263 213.402 12.249 216.165 C12.26 216.961 12.271 217.756 12.283 218.576 C12.212 224.735 10.599 230.041 6.35 234.648 C1.279 239.116 -3.265 240.606 -9.898 240.43 C-15.217 239.719 -19.506 237.239 -23.113 233.305 C-27.098 227.327 -27.533 221.424 -27.499 214.471 C-27.503 213.625 -27.507 212.779 -27.511 211.908 C-27.521 209.088 -27.517 206.268 -27.513 203.448 C-27.517 201.42 -27.522 199.393 -27.528 197.365 C-27.542 191.867 -27.542 186.369 -27.54 180.872 C-27.539 176.279 -27.544 171.687 -27.548 167.094 C-27.56 156.259 -27.56 145.424 -27.554 134.589 C-27.548 123.416 -27.56 112.243 -27.582 101.07 C-27.599 91.472 -27.605 81.874 -27.602 72.275 C-27.6 66.545 -27.603 60.815 -27.617 55.085 C-27.629 49.696 -27.627 44.308 -27.614 38.919 C-27.612 36.944 -27.615 34.969 -27.623 32.993 C-27.633 30.292 -27.625 27.592 -27.613 24.891 C-27.62 24.113 -27.627 23.336 -27.635 22.535 C-27.571 16.071 -25.967 10.934 -22.551 5.367 C-16.397 -0.62 -8.266 -3.26 0 0 Z " fill="#000000" transform="translate(60.23828125,34.8828125)"/>
<path d="M0 0 C5.38 2.85 9.817 7.594 11.965 13.316 C12.159 16.187 12.243 18.96 12.232 21.83 C12.237 22.697 12.241 23.565 12.246 24.459 C12.259 27.371 12.257 30.284 12.255 33.196 C12.261 35.282 12.268 37.369 12.276 39.455 C12.293 45.126 12.298 50.798 12.299 56.469 C12.301 61.203 12.309 65.937 12.316 70.671 C12.332 81.842 12.337 93.012 12.335 104.182 C12.334 115.704 12.355 127.226 12.387 138.748 C12.413 148.64 12.424 158.531 12.423 168.422 C12.422 174.33 12.428 180.238 12.449 186.146 C12.468 191.705 12.468 197.263 12.454 202.821 C12.452 204.859 12.456 206.898 12.469 208.936 C12.484 211.722 12.475 214.508 12.459 217.295 C12.47 218.098 12.48 218.9 12.49 219.728 C12.413 226.074 10.687 231.559 6.148 236.156 C5.572 236.518 4.996 236.881 4.402 237.254 C4.113 237.444 4.113 237.444 2.648 238.406 C-2.05 240.946 -6.844 240.74 -12.035 240.316 C-17.869 238.486 -21.503 234.143 -25.035 229.316 C-26.309 225.494 -26.183 221.9 -26.182 217.916 C-26.186 217.049 -26.19 216.182 -26.193 215.288 C-26.205 212.37 -26.208 209.452 -26.212 206.534 C-26.218 204.447 -26.225 202.359 -26.232 200.271 C-26.249 194.592 -26.26 188.912 -26.268 183.232 C-26.273 179.684 -26.28 176.137 -26.286 172.59 C-26.305 161.494 -26.319 150.398 -26.327 139.302 C-26.337 126.488 -26.364 113.674 -26.404 100.859 C-26.434 90.958 -26.449 81.058 -26.452 71.157 C-26.455 65.242 -26.464 59.327 -26.489 53.412 C-26.512 47.847 -26.516 42.282 -26.506 36.717 C-26.505 34.675 -26.512 32.633 -26.525 30.591 C-26.543 27.802 -26.536 25.014 -26.523 22.224 C-26.534 21.418 -26.545 20.612 -26.556 19.781 C-26.483 13.365 -24.652 9.142 -20.219 4.355 C-19.643 3.889 -19.066 3.422 -18.473 2.941 C-18.183 2.7 -18.183 2.7 -16.719 1.48 C-12.081 -1.726 -5.234 -1.758 0 0 Z " fill="#000000" transform="translate(688.03515625,34.68359375)"/>
<path d="M0 0 C0.33 0 0.66 0 1 0 C1 68.97 1 137.94 1 209 C0.67 209 0.34 209 0 209 C0 140.03 0 71.06 0 0 Z " fill="#000000" transform="translate(660,50)"/>
<path d="M0 0 C0.33 0 0.66 0 1 0 C1 69.3 1 138.6 1 210 C0.67 210 0.34 210 0 210 C0 140.7 0 71.4 0 0 Z " fill="#000000" transform="translate(701,50)"/>
<path d="M0 0 C4.552 2.933 7.679 6.799 9.812 11.812 C10.148 13.891 10.148 13.891 10.188 16.062 C10.216 16.769 10.244 17.475 10.273 18.203 C6.66 38.657 -31.839 66.464 -35.188 69.812 C102.092 69.812 239.373 69.812 380.812 69.812 C370.633 58.501 370.633 58.501 365.188 53.688 C360.955 49.87 357.076 45.992 353.422 41.605 C351.661 39.643 349.771 38.003 347.75 36.312 C341.488 30.987 336.383 24.849 335.438 16.5 C336.035 10.627 338.229 5.945 342.625 1.938 C348.237 -1.804 352.957 -2.468 359.504 -1.867 C365.448 -0.117 369.775 4.492 374.014 8.787 C374.602 9.374 375.19 9.962 375.795 10.567 C377.724 12.497 379.645 14.434 381.566 16.371 C382.913 17.721 384.26 19.071 385.608 20.421 C389.146 23.967 392.679 27.519 396.21 31.073 C399.797 34.681 403.39 38.282 406.982 41.885 C412.787 47.707 418.589 53.533 424.386 59.364 C433.189 68.217 433.189 68.217 436.199 71.094 C436.579 71.46 436.579 71.46 438.5 73.312 C439.267 74.045 440.034 74.777 440.824 75.531 C444.239 79.449 445.114 83.061 445.188 88.188 C445.216 89.082 445.244 89.977 445.273 90.898 C444.163 97.921 439.289 102.771 434.423 107.574 C433.792 108.209 433.161 108.844 432.51 109.498 C430.439 111.578 428.356 113.647 426.273 115.715 C424.826 117.162 423.379 118.609 421.933 120.057 C418.91 123.08 415.882 126.098 412.85 129.112 C408.956 132.983 405.073 136.865 401.194 140.75 C398.213 143.735 395.226 146.715 392.238 149.693 C390.804 151.124 389.371 152.556 387.939 153.989 C385.945 155.983 383.945 157.971 381.943 159.957 C381.646 160.255 381.646 160.255 380.142 161.765 C376.041 165.812 376.041 165.812 373.812 165.812 C373.152 167.132 372.493 168.452 371.812 169.812 C371.152 169.812 370.493 169.812 369.812 169.812 C369.483 170.803 369.152 171.792 368.812 172.812 C362.985 177.215 358.137 178.756 350.812 177.812 C343.964 175.605 339.895 171.68 336.5 165.375 C334.942 159.568 335.599 155.374 338.371 150.054 C341.257 145.565 345.151 141.992 348.953 138.281 C349.835 137.405 350.717 136.528 351.626 135.625 C353.954 133.316 356.289 131.016 358.63 128.721 C361.023 126.368 363.406 124.004 365.789 121.641 C370.453 117.021 375.128 112.412 379.812 107.812 C378.812 106.812 378.812 106.812 376.034 106.688 C374.776 106.689 373.519 106.689 372.224 106.689 C371.524 106.688 370.824 106.687 370.102 106.686 C367.727 106.683 365.351 106.688 362.975 106.692 C361.267 106.692 359.558 106.691 357.85 106.69 C353.132 106.687 348.414 106.691 343.696 106.696 C338.617 106.701 333.537 106.699 328.458 106.699 C319.651 106.698 310.843 106.701 302.036 106.707 C289.301 106.715 276.567 106.717 263.832 106.719 C243.174 106.721 222.516 106.728 201.857 106.737 C181.784 106.746 161.711 106.753 141.637 106.758 C140.401 106.758 139.165 106.758 137.891 106.758 C131.689 106.76 125.487 106.761 119.285 106.762 C67.794 106.773 16.303 106.79 -35.188 106.812 C-34.653 107.34 -34.119 107.868 -33.569 108.411 C-28.529 113.391 -23.496 118.378 -18.472 123.373 C-15.888 125.941 -13.302 128.505 -10.71 131.064 C-8.207 133.534 -5.712 136.012 -3.221 138.494 C-1.809 139.898 -0.39 141.294 1.03 142.69 C1.891 143.551 2.751 144.411 3.638 145.298 C4.018 145.674 4.018 145.674 5.94 147.579 C9.6 151.944 10.219 156.09 10.055 161.609 C9.495 166.697 7.113 169.74 3.438 173.062 C-1.21 176.769 -5.009 178.331 -11.105 178.112 C-19.788 176.864 -25.517 169.993 -31.305 164.051 C-32.252 163.094 -33.199 162.138 -34.148 161.183 C-36.625 158.685 -39.091 156.175 -41.553 153.663 C-45.512 149.629 -49.49 145.613 -53.465 141.595 C-54.85 140.193 -56.23 138.786 -57.61 137.379 C-58.445 136.531 -59.28 135.683 -60.14 134.81 C-60.875 134.06 -61.611 133.311 -62.368 132.538 C-64.188 130.812 -64.188 130.812 -66.188 129.812 C-66.188 129.153 -66.188 128.493 -66.188 127.812 C-66.782 127.557 -67.376 127.302 -67.988 127.039 C-70.416 125.685 -71.637 124.341 -73.375 122.188 C-76 119.071 -78.731 116.354 -81.812 113.688 C-85.368 110.608 -88.255 107.478 -91.188 103.812 C-92.054 103.008 -92.92 102.204 -93.812 101.375 C-97.64 97.245 -99.007 93.437 -99.625 87.875 C-99.249 79.56 -93.717 73.75 -88.099 68.175 C-87.393 67.458 -86.687 66.742 -85.959 66.004 C-83.636 63.653 -81.3 61.318 -78.961 58.984 C-77.331 57.347 -75.702 55.709 -74.073 54.07 C-70.662 50.644 -67.243 47.226 -63.819 43.812 C-59.444 39.449 -55.092 35.064 -50.747 30.672 C-47.389 27.285 -44.018 23.911 -40.642 20.542 C-39.032 18.931 -37.427 17.316 -35.827 15.695 C-33.583 13.426 -31.32 11.178 -29.052 8.933 C-28.403 8.268 -27.753 7.603 -27.083 6.917 C-19.026 -0.961 -10.746 -4.003 0 0 Z " fill="#000000" transform="translate(191.1875,67.1875)"/>
<path d="M0 0 C4.895 0.003 9.79 0 14.685 -0.001 C22.891 -0.003 31.097 -0.001 39.303 0.004 C48.684 0.009 58.065 0.008 67.445 0.002 C75.616 -0.002 83.787 -0.003 91.958 -0 C96.787 0.001 101.616 0.001 106.445 -0.002 C124.932 -0.013 143.406 0.055 161.886 0.592 C162.236 0.602 162.236 0.602 164.006 0.653 C201.495 1.767 240.828 3.15 275.751 18.134 C276.099 18.283 276.099 18.283 277.86 19.037 C318.117 36.541 347.887 67.986 364.439 108.447 C373.526 133.36 376.433 159.8 377.751 186.134 C377.792 186.91 377.832 187.686 377.874 188.486 C379.06 212.07 378.916 235.673 378.919 259.28 C378.919 262.849 378.921 266.418 378.924 269.988 C378.933 282.512 378.937 295.036 378.937 307.56 C378.936 319.118 378.947 330.675 378.962 342.233 C378.976 352.254 378.981 362.274 378.98 372.295 C378.98 378.236 378.983 384.178 378.993 390.119 C379.117 463.386 379.117 463.386 373.751 494.134 C373.588 495.073 373.425 496.012 373.256 496.98 C367.846 526.882 355.689 554.669 334.759 576.951 C332.751 579.134 332.751 579.134 330.619 581.912 C330.002 582.645 329.386 583.379 328.751 584.134 C328.091 584.134 327.431 584.134 326.751 584.134 C326.751 584.794 326.751 585.454 326.751 586.134 C323.761 588.919 320.519 591.392 317.303 593.91 C315.893 595.022 314.507 596.163 313.122 597.306 C278.068 625.268 232.661 631.815 189.201 633.654 C188.708 633.675 188.708 633.675 186.215 633.781 C174.27 634.265 162.321 634.494 150.369 634.689 C149.123 634.71 147.876 634.731 146.593 634.752 C115.036 635.271 83.479 635.287 51.918 635.263 C46.432 635.259 40.946 635.26 35.459 635.265 C4.568 635.288 -26.318 635.267 -57.206 634.681 C-58.28 634.661 -59.355 634.641 -60.462 634.621 C-122.524 633.431 -184.304 627.221 -230.249 581.134 C-233.395 577.574 -236.335 573.885 -239.249 570.134 C-239.818 569.454 -240.388 568.773 -240.975 568.072 C-275.787 525.836 -276.911 469.271 -277.803 417.201 C-277.824 416.023 -277.845 414.844 -277.867 413.63 C-278.348 386.075 -278.407 358.522 -278.378 330.964 C-278.374 327 -278.371 323.037 -278.369 319.073 C-278.244 111.084 -278.244 111.084 -229.249 55.134 C-228.556 54.357 -227.864 53.58 -227.151 52.779 C-192.657 16.291 -142.436 5.174 -94.249 2.134 C-93.509 2.083 -92.769 2.032 -92.006 1.98 C-61.413 -0.115 -30.648 -0.022 0 0 Z M-73.221 41.063 C-74.27 41.104 -75.319 41.146 -76.399 41.189 C-122.699 43.062 -168.609 47.858 -202.249 83.134 C-239.421 123.854 -237.835 180.178 -238.796 232.064 C-238.817 233.19 -238.838 234.315 -238.86 235.475 C-239.347 261.888 -239.402 288.3 -239.379 314.718 C-239.373 321.258 -239.377 327.799 -239.382 334.34 C-239.402 360.822 -239.284 387.296 -238.792 413.775 C-238.771 414.881 -238.751 415.986 -238.73 417.125 C-237.734 470.186 -236.151 519.939 -196.414 559.457 C-190.228 565.4 -183.77 570.047 -176.249 574.134 C-175.932 574.309 -175.932 574.309 -174.327 575.195 C-137.865 595.075 -94.852 595.29 -54.315 595.28 C-51.865 595.283 -49.415 595.286 -46.965 595.29 C-41.044 595.298 -35.123 595.301 -29.201 595.301 C-24.373 595.302 -19.544 595.304 -14.716 595.307 C-0.944 595.316 12.827 595.321 26.598 595.32 C26.968 595.32 26.968 595.32 28.838 595.32 C29.577 595.32 30.317 595.32 31.08 595.32 C43.032 595.319 54.983 595.329 66.935 595.343 C79.287 595.357 91.639 595.364 103.991 595.363 C110.893 595.363 117.795 595.365 124.697 595.376 C253.805 595.57 253.805 595.57 294.751 562.134 C295.453 561.576 296.154 561.018 296.876 560.443 C322.469 539.478 334.071 505.787 337.439 474.009 C337.499 473.448 337.499 473.448 337.801 470.605 C339.652 451.523 339.902 432.354 339.897 413.197 C339.9 411.009 339.903 408.821 339.907 406.633 C339.915 400.76 339.918 394.887 339.919 389.014 C339.919 385.321 339.921 381.627 339.924 377.934 C339.933 364.981 339.937 352.028 339.937 339.075 C339.936 327.114 339.947 315.153 339.962 303.192 C339.976 292.832 339.981 282.473 339.98 272.114 C339.98 265.967 339.983 259.82 339.993 253.674 C340.162 150.025 340.162 150.025 325.751 117.134 C325.334 116.175 324.916 115.216 324.486 114.228 C314.913 93.763 300.39 77.616 281.751 65.134 C280.901 64.55 280.05 63.966 279.173 63.365 C250.402 44.82 213.87 42.659 180.751 41.134 C179.899 41.094 179.046 41.053 178.168 41.012 C155.906 39.987 133.656 39.97 111.375 39.967 C108.202 39.966 105.03 39.964 101.857 39.962 C90.693 39.952 79.528 39.948 68.364 39.949 C58.117 39.95 47.87 39.939 37.623 39.923 C28.7 39.91 19.777 39.905 10.855 39.905 C5.582 39.906 0.309 39.903 -4.964 39.892 C-27.738 39.849 -50.463 40.15 -73.221 41.063 Z " fill="#000000" transform="translate(315.2486717700958,301.865674495697)"/>
<path d="M0 0 C0.33 0 0.66 0 1 0 C1 5.28 1 10.56 1 16 C0.67 16 0.34 16 0 16 C0 10.72 0 5.44 0 0 Z " fill="#000000" transform="translate(78,716)"/>
</svg>
