<?xml version="1.0" encoding="UTF-8"?>
<!-- Generator: visioncortex VTracer 0.6.12 -->
<svg version="1.1" xmlns="http://www.w3.org/2000/svg" width="256" height="256" viewBox="0 0 1157 1157" fill="none">
<path d="M0 0 C1 -0.004 2 -0.009 3.031 -0.013 C6.379 -0.024 9.727 -0.014 13.075 -0.003 C15.501 -0.007 17.927 -0.012 20.353 -0.018 C25.626 -0.028 30.899 -0.028 36.172 -0.02 C44.014 -0.009 51.855 -0.015 59.697 -0.024 C73.702 -0.04 87.708 -0.039 101.713 -0.03 C113.971 -0.022 126.228 -0.02 138.485 -0.024 C139.298 -0.024 140.111 -0.024 140.949 -0.025 C144.25 -0.026 147.55 -0.027 150.851 -0.027 C181.814 -0.037 212.777 -0.028 243.74 -0.012 C271.245 0.002 298.751 0.001 326.257 -0.014 C357.162 -0.03 388.066 -0.036 418.971 -0.027 C422.266 -0.026 425.561 -0.025 428.856 -0.024 C429.667 -0.024 430.479 -0.023 431.315 -0.023 C443.563 -0.02 455.812 -0.024 468.06 -0.031 C481.989 -0.04 495.917 -0.038 509.846 -0.022 C517.64 -0.013 525.434 -0.012 533.228 -0.023 C539.048 -0.031 544.867 -0.023 550.687 -0.009 C553.041 -0.005 555.396 -0.007 557.75 -0.014 C560.95 -0.023 564.149 -0.014 567.349 0 C568.264 -0.007 569.178 -0.014 570.12 -0.021 C579.121 0.057 587.391 1.794 594.016 8.222 C600.981 16.941 603.03 30.064 605.84 40.617 C607.336 46.233 608.862 51.84 610.386 57.448 C610.721 58.682 611.056 59.916 611.401 61.188 C615.84 77.517 620.469 93.792 625.077 110.073 C627.231 117.683 629.381 125.294 631.53 132.905 C631.645 133.312 631.645 133.312 632.228 135.373 C636.066 148.967 639.862 162.572 643.612 176.19 C654.954 217.36 666.596 258.447 678.18 299.55 C682.193 313.789 686.203 328.029 690.202 342.272 C705.531 396.865 721.02 451.413 736.61 505.932 C748.766 548.445 760.862 590.973 772.595 633.606 C774.149 639.252 775.715 644.896 777.288 650.538 C777.669 651.907 778.05 653.276 778.431 654.645 C779.108 657.075 779.786 659.505 780.468 661.934 C780.758 662.979 781.048 664.024 781.347 665.1 C781.594 665.985 781.841 666.869 782.096 667.78 C786.478 685.521 783.806 703.693 774.644 719.417 C767.172 731.022 758.085 739.448 745.8 745.753 C745.49 745.913 745.49 745.913 743.923 746.728 C733.169 751.953 722.309 752.818 710.513 752.758 C708.997 752.761 707.482 752.766 705.967 752.772 C701.815 752.784 697.664 752.778 693.512 752.769 C688.991 752.762 684.469 752.773 679.948 752.782 C672.027 752.794 664.107 752.795 656.186 752.789 C644.408 752.78 632.63 752.788 620.852 752.799 C599.815 752.819 578.778 752.821 557.741 752.816 C539.33 752.812 520.918 752.812 502.506 752.818 C500.037 752.819 497.568 752.819 495.098 752.82 C491.377 752.821 487.656 752.822 483.935 752.824 C449.337 752.834 414.74 752.839 380.142 752.831 C378.838 752.831 377.534 752.831 376.19 752.83 C365.598 752.828 355.006 752.825 344.414 752.823 C303.099 752.812 261.784 752.821 220.468 752.844 C174.051 752.87 127.634 752.883 81.217 752.876 C76.268 752.875 71.319 752.874 66.37 752.874 C65.152 752.874 63.933 752.874 62.678 752.873 C44.28 752.871 25.882 752.879 7.485 752.892 C-13.438 752.907 -34.36 752.908 -55.282 752.89 C-66.99 752.881 -78.698 752.882 -90.406 752.899 C-98.229 752.91 -106.052 752.906 -113.875 752.89 C-118.33 752.881 -122.786 752.879 -127.241 752.894 C-131.302 752.908 -135.362 752.903 -139.422 752.884 C-140.875 752.88 -142.328 752.883 -143.781 752.894 C-164.802 753.036 -182.059 746.016 -197.388 731.628 C-209.166 719.451 -216.146 702.102 -216.575 685.19 C-216.104 674.935 -213.221 665.115 -210.438 655.292 C-210.056 653.928 -209.674 652.565 -209.293 651.202 C-208.271 647.557 -207.244 643.914 -206.215 640.271 C-205.135 636.442 -204.06 632.611 -202.984 628.781 C-200.615 620.347 -198.237 611.916 -195.857 603.485 C-194.946 600.254 -194.035 597.024 -193.125 593.793 C-186.441 570.081 -179.702 546.384 -172.924 522.698 C-166.077 498.767 -159.282 474.821 -152.487 450.874 C-151.479 447.321 -150.47 443.767 -149.462 440.213 C-149.209 439.322 -148.956 438.431 -148.695 437.512 C-145.073 424.748 -141.445 411.985 -137.813 399.223 C-124.192 351.36 -110.671 303.47 -97.268 255.546 C-95.738 250.078 -94.208 244.609 -92.676 239.141 C-83.482 206.316 -74.337 173.478 -65.287 140.612 C-64.964 139.44 -64.642 138.268 -64.309 137.061 C-63.985 135.884 -63.661 134.707 -63.327 133.495 C-60.777 124.236 -58.217 114.98 -55.653 105.725 C-55.459 105.023 -55.264 104.321 -55.064 103.598 C-53.118 96.573 -51.171 89.548 -49.22 82.524 C-48.285 79.161 -47.352 75.799 -46.419 72.436 C-46.238 71.786 -46.058 71.135 -45.872 70.465 C-43.49 61.875 -41.152 53.276 -38.856 44.663 C-38.352 42.781 -37.847 40.9 -37.342 39.019 C-36.446 35.681 -35.566 32.339 -34.697 28.994 C-31.924 18.534 -28.663 9.624 -19.263 3.378 C-12.916 0.467 -6.897 -0.053 0 0 Z M9.737 50.378 C4.011 68.701 4.011 68.701 1.995 76.03 C1.493 77.834 0.992 79.639 0.49 81.443 C0.227 82.392 -0.036 83.341 -0.307 84.319 C-1.815 89.759 -3.334 95.197 -4.852 100.635 C-5.19 101.844 -5.527 103.053 -5.875 104.298 C-11.45 124.228 -17.128 144.128 -22.788 164.033 C-23.711 167.279 -24.634 170.525 -25.556 173.77 C-26.027 175.425 -26.497 177.08 -26.968 178.735 C-30.536 191.284 -34.091 203.837 -37.641 216.391 C-45.554 244.378 -53.517 272.349 -61.511 300.313 C-62.536 303.896 -63.56 307.48 -64.584 311.063 C-83.924 378.724 -103.285 446.378 -123.038 513.92 C-127.486 529.13 -131.909 544.346 -136.325 559.565 C-136.684 560.803 -137.043 562.04 -137.414 563.316 C-141.6 577.742 -145.782 592.169 -149.963 606.597 C-150.651 608.97 -151.338 611.344 -152.026 613.717 C-154.019 620.594 -156.012 627.47 -158.003 634.347 C-158.618 636.472 -159.234 638.597 -159.85 640.722 C-160.626 643.4 -161.401 646.079 -162.175 648.758 C-163.734 654.143 -165.298 659.525 -166.924 664.89 C-167.162 665.68 -167.4 666.47 -167.646 667.283 C-168.237 669.235 -168.836 671.183 -169.437 673.132 C-171.305 680.474 -171.596 687.878 -167.661 694.561 C-163.412 700.08 -158.968 703.473 -152.263 705.378 C-149.223 705.629 -149.223 705.629 -145.931 705.632 C-145.3 705.635 -145.3 705.635 -142.106 705.649 C-140.71 705.645 -139.314 705.642 -137.918 705.638 C-136.425 705.641 -134.933 705.644 -133.44 705.649 C-129.323 705.659 -125.206 705.657 -121.089 705.653 C-116.616 705.651 -112.142 705.66 -107.669 705.668 C-99.824 705.679 -91.978 705.684 -84.133 705.683 C-72.467 705.682 -60.801 705.693 -49.135 705.706 C-25.873 705.73 -2.612 705.739 20.649 705.744 C21.854 705.744 23.059 705.745 24.301 705.745 C25.508 705.745 26.715 705.745 27.96 705.746 C41.33 705.749 54.701 705.755 68.072 705.762 C108.444 705.782 148.816 705.798 189.187 705.801 C190.479 705.801 191.771 705.801 193.102 705.801 C198.336 705.802 203.571 705.802 208.806 705.802 C212.746 705.803 216.686 705.803 220.627 705.803 C221.278 705.803 221.278 705.803 224.572 705.803 C265.49 705.806 306.409 705.828 347.327 705.865 C393.276 705.905 439.225 705.929 485.175 705.929 C490.072 705.929 494.97 705.93 499.867 705.93 C500.47 705.93 500.47 705.93 503.522 705.93 C522.947 705.931 542.373 705.948 561.799 705.972 C581.314 705.994 600.83 705.999 620.346 705.984 C631.946 705.976 643.546 705.982 655.146 706.007 C662.891 706.023 670.636 706.021 678.381 706.003 C682.796 705.994 687.211 705.993 691.626 706.013 C695.644 706.032 699.662 706.027 703.68 706.005 C705.123 706.001 706.566 706.005 708.01 706.018 C716.588 706.094 723.617 705.522 730.737 700.378 C735.906 695.089 738.453 689.737 738.94 682.271 C738.689 677.438 737.51 673.256 736.124 668.639 C735.843 667.676 735.563 666.713 735.273 665.721 C734.332 662.5 733.379 659.282 732.425 656.065 C731.747 653.752 731.07 651.439 730.394 649.126 C729.128 644.792 727.86 640.459 726.588 636.127 C724.099 627.642 721.65 619.147 719.214 610.647 C718.831 609.31 718.448 607.973 718.064 606.636 C717.483 604.609 716.902 602.581 716.321 600.553 C709.748 577.623 703.093 554.719 696.338 531.842 C688.409 504.987 680.589 478.103 672.862 451.19 C672.607 450.299 672.351 449.407 672.087 448.489 C665.374 425.103 658.687 401.709 652.003 378.315 C651.675 377.166 651.347 376.018 651.009 374.834 C647.788 363.563 644.569 352.291 641.353 341.019 C639.864 335.801 638.375 330.583 636.886 325.366 C636.593 324.341 636.301 323.316 635.999 322.26 C631.722 307.281 627.414 292.311 623.089 277.346 C616.238 253.642 609.483 229.912 602.79 206.162 C601.4 201.231 600.008 196.3 598.616 191.369 C598.335 190.373 598.054 189.378 597.765 188.352 C597.198 186.344 596.631 184.336 596.064 182.328 C595.224 179.352 594.384 176.375 593.544 173.398 C588.114 154.158 582.661 134.925 577.201 115.693 C571.021 93.929 564.879 72.153 558.737 50.378 C377.567 50.378 196.397 50.378 9.737 50.378 Z " fill="#000000" transform="translate(294.26251125335693,201.6224765777588)"/>
<path d="M0 0 C3.308 2.655 6.267 5.591 9.242 8.611 C10.105 9.467 10.968 10.322 11.857 11.204 C14.199 13.532 16.529 15.871 18.854 18.215 C21.301 20.679 23.761 23.13 26.219 25.583 C30.342 29.701 34.454 33.829 38.56 37.963 C43.294 42.729 48.044 47.479 52.803 52.221 C57.4 56.802 61.985 61.394 66.566 65.991 C68.507 67.94 70.452 69.884 72.4 71.825 C75.123 74.539 77.83 77.269 80.535 80.001 C80.936 80.399 80.936 80.399 82.965 82.412 C89.036 88.587 93.468 94.748 94.098 103.637 C93.794 110.985 91.283 116.957 86 122 C80.891 125.635 76.322 127.275 70 127 C43.615 121.679 15.473 80.473 6 71 C6 218.84 6 366.68 6 519 C23.16 501.84 40.32 484.68 58 467 C66.411 463.262 71.561 461.475 80.125 464 C85.671 466.33 89.592 471.095 92.176 476.426 C93.059 479.185 93.3 481.42 93.312 484.312 C93.329 485.196 93.346 486.079 93.363 486.988 C92.437 494.671 89.369 499.368 83.971 504.58 C83.366 505.185 82.761 505.789 82.137 506.412 C80.149 508.392 78.143 510.354 76.137 512.316 C74.742 513.7 73.348 515.084 71.955 516.469 C68.294 520.106 64.619 523.727 60.939 527.346 C55.764 532.44 50.609 537.554 45.452 542.666 C42.709 545.385 39.961 548.098 37.208 550.807 C35.944 552.054 34.681 553.302 33.417 554.549 C32.854 555.1 32.291 555.652 31.711 556.22 C28.402 559.493 25.312 562.883 22.325 566.454 C20.344 568.766 18.168 570.865 16 573 C14.881 574.184 13.766 575.37 12.652 576.559 C-3.879 593.968 -3.879 593.968 -16.688 594.625 C-30.118 593.757 -38.489 583.655 -47.464 574.713 C-48.268 573.915 -49.072 573.118 -49.901 572.296 C-52.536 569.681 -55.167 567.061 -57.797 564.441 C-58.7 563.542 -59.604 562.643 -60.534 561.716 C-64.818 557.451 -69.099 553.185 -73.378 548.915 C-78.294 544.008 -83.219 539.109 -88.151 534.218 C-92.443 529.96 -96.724 525.691 -101.001 521.418 C-102.814 519.609 -104.63 517.804 -106.45 516.003 C-108.994 513.484 -111.525 510.952 -114.054 508.416 C-114.803 507.68 -115.552 506.944 -116.324 506.185 C-122.596 499.85 -126.514 493.61 -127.102 484.523 C-126.846 478.18 -124.572 472.445 -120 468 C-113.678 463.643 -108.649 462.454 -101 463 C-75.58 473.168 -59.359 498.641 -40 518 C-40 370.82 -40 223.64 -40 72 C-44.158 75.564 -48.028 78.906 -51.83 82.764 C-52.711 83.655 -53.592 84.546 -54.5 85.464 C-54.959 85.93 -55.418 86.396 -55.891 86.877 C-57.347 88.355 -58.808 89.83 -60.27 91.304 C-64.422 95.489 -68.569 99.678 -72.706 103.877 C-75.249 106.458 -77.8 109.032 -80.355 111.601 C-81.321 112.575 -82.285 113.552 -83.246 114.532 C-84.59 115.903 -85.944 117.264 -87.299 118.624 C-88.064 119.398 -88.829 120.173 -89.617 120.971 C-94.827 125.407 -100.257 127.156 -107 127 C-114.081 125.868 -119.291 122.316 -124 117 C-127.695 110.881 -128.11 104.533 -126.427 97.662 C-123.698 90.026 -119.025 85.353 -113.188 79.875 C-111.429 78.187 -109.672 76.497 -107.918 74.805 C-107.53 74.439 -107.53 74.439 -105.567 72.585 C-103.623 70.628 -101.846 68.678 -100.061 66.585 C-94.389 60.041 -88.203 53.975 -82.105 47.832 C-81.44 47.162 -80.775 46.491 -80.09 45.8 C-76.574 42.258 -73.054 38.719 -69.532 35.182 C-66.634 32.271 -63.743 29.352 -60.859 26.427 C-57.354 22.873 -53.837 19.331 -50.311 15.798 C-48.978 14.458 -47.65 13.115 -46.325 11.766 C-32.363 -2.436 -19.021 -11.661 0 0 Z " fill="#000000" transform="translate(595,285)"/>
</svg>
