<?xml version="1.0" encoding="UTF-8"?>
<!-- Generator: visioncortex VTracer 0.6.12 -->
<svg version="1.1" xmlns="http://www.w3.org/2000/svg" width="256" height="256" viewBox="0 0 803 803" fill="none">
<path d="M0 0 C0.928 0.367 1.855 0.733 2.811 1.111 C5.825 2.306 8.83 3.52 11.836 4.734 C13.936 5.572 16.037 6.407 18.138 7.242 C23.27 9.284 28.396 11.341 33.519 13.403 C37.12 14.85 40.726 16.286 44.332 17.719 C49.589 19.811 54.84 21.915 60.089 24.026 C66.724 26.693 73.366 29.344 80.007 31.995 C84.924 33.958 89.839 35.923 94.752 37.896 C96.659 38.661 98.566 39.426 100.473 40.191 C101.399 40.563 102.325 40.935 103.28 41.318 C108.143 43.267 113.012 45.195 117.897 47.087 C119.841 47.841 121.782 48.602 123.722 49.365 C125.962 50.244 128.208 51.111 130.46 51.961 C138.244 55.044 142.002 58.556 145.465 66.266 C146.246 68.167 147.015 70.074 147.773 71.984 C147.986 72.506 147.986 72.506 149.059 75.148 C150.453 78.589 151.832 82.037 153.211 85.484 C154.187 87.895 155.163 90.305 156.141 92.715 C166.005 117.118 175.223 141.76 184.362 166.442 C186.959 173.455 189.571 180.461 192.234 187.449 C192.477 188.086 192.72 188.723 192.97 189.38 C194.091 192.32 195.216 195.259 196.346 198.195 C199.136 205.492 201.749 212.84 204.313 220.218 C207.954 230.664 211.753 241.051 215.544 251.443 C217.757 257.511 219.966 263.58 222.176 269.648 C222.611 270.844 223.047 272.04 223.495 273.272 C226.034 280.244 228.567 287.218 231.09 294.195 C231.376 294.986 231.662 295.778 231.957 296.593 C233.297 300.303 234.634 304.014 235.965 307.728 C238.136 313.781 240.324 319.823 242.648 325.82 C247.306 337.958 250.786 350.177 253.871 362.785 C254.308 364.552 254.745 366.318 255.182 368.085 C256.311 372.654 257.434 377.226 258.553 381.798 C259.187 384.387 259.822 386.976 260.457 389.565 C263.307 401.18 266.136 412.8 268.961 424.422 C270.7 431.573 272.439 438.724 274.18 445.875 C274.394 446.754 274.608 447.634 274.828 448.54 C277.556 459.746 280.309 470.947 283.099 482.138 C283.609 484.185 284.118 486.233 284.627 488.281 C284.708 488.607 284.708 488.607 285.119 490.261 C285.279 490.903 285.438 491.546 285.603 492.207 C286.809 497.063 288.026 501.916 289.249 506.767 C289.784 508.916 290.318 511.066 290.852 513.215 C290.973 513.69 290.973 513.69 291.587 516.094 C294.32 527.193 294.32 527.193 292.512 532.559 C292.186 533.091 291.859 533.623 291.523 534.172 C291.21 534.712 290.897 535.252 290.574 535.809 C285.959 541.481 280.029 543.253 273.336 545.547 C272.246 545.93 271.156 546.313 270.033 546.707 C267.671 547.537 265.307 548.362 262.942 549.184 C257.162 551.198 251.396 553.252 245.629 555.303 C243.808 555.95 241.986 556.594 240.165 557.239 C223.259 563.219 206.395 569.316 189.547 575.457 C188.974 575.666 188.974 575.666 186.074 576.723 C181.406 578.424 176.738 580.126 172.071 581.83 C159.157 586.545 146.229 591.207 133.236 595.699 C125.42 598.403 117.637 601.189 109.865 604.014 C106.03 605.408 102.193 606.796 98.355 608.184 C97.584 608.463 96.812 608.742 96.016 609.03 C88.487 611.751 80.945 614.436 73.398 617.109 C72.764 617.334 72.13 617.559 71.476 617.79 C68.299 618.915 65.121 620.04 61.944 621.164 C55.823 623.329 49.705 625.5 43.586 627.672 C42.966 627.892 42.346 628.112 41.707 628.339 C37.646 629.78 33.585 631.222 29.523 632.663 C27.919 633.233 26.315 633.802 24.711 634.372 C2.996 642.08 -18.713 649.803 -40.395 657.605 C-52.395 661.922 -64.415 666.181 -76.447 670.408 C-88.023 674.478 -99.555 678.661 -111.063 682.921 C-134.091 691.433 -134.091 691.433 -142.164 687.734 C-148.77 684.158 -154.922 679.808 -161.137 675.602 C-165.319 672.78 -169.561 670.075 -173.852 667.422 C-179.244 664.083 -184.596 660.691 -189.914 657.234 C-203.402 648.472 -216.994 639.872 -230.602 631.297 C-237.403 627.01 -244.174 622.679 -250.91 618.29 C-255.748 615.14 -260.638 612.087 -265.59 609.117 C-271.099 605.027 -272.659 600.516 -274.086 594.109 C-274.28 593.286 -274.474 592.463 -274.675 591.615 C-275.31 588.908 -275.925 586.196 -276.539 583.484 C-276.984 581.565 -277.43 579.645 -277.876 577.725 C-280.863 564.818 -283.711 551.879 -286.472 538.922 C-289.625 524.132 -292.913 509.374 -296.203 494.614 C-300.93 473.408 -305.632 452.196 -310.22 430.959 C-310.61 429.152 -311 427.346 -311.391 425.539 C-311.486 425.095 -311.486 425.095 -311.971 422.85 C-313.264 416.875 -314.578 410.904 -315.903 404.936 C-316.849 400.669 -317.79 396.401 -318.731 392.133 C-319.181 390.099 -319.634 388.066 -320.089 386.033 C-320.717 383.228 -321.336 380.421 -321.953 377.613 C-322.047 377.201 -322.047 377.201 -322.52 375.117 C-324.095 367.874 -324.836 362.052 -320.789 355.484 C-319.163 353.394 -317.534 351.405 -315.789 349.422 C-314.802 348.277 -313.815 347.133 -312.828 345.988 C-312.324 345.408 -311.821 344.828 -311.302 344.231 C-308.901 341.459 -306.532 338.66 -304.164 335.859 C-303.704 335.316 -303.243 334.772 -302.769 334.212 C-299.233 330.028 -295.753 325.801 -292.293 321.555 C-284.481 311.975 -276.629 302.43 -268.619 293.014 C-265.824 289.723 -263.074 286.399 -260.352 283.047 C-256.896 278.8 -253.362 274.631 -249.789 270.484 C-244.689 264.563 -239.709 258.556 -234.789 252.484 C-230.057 246.661 -225.285 240.88 -220.414 235.172 C-216.544 230.635 -212.818 226.009 -209.164 221.297 C-205.287 216.301 -201.238 211.554 -196.957 206.895 C-193.923 203.521 -191.092 199.995 -188.238 196.469 C-185.471 193.097 -182.637 189.788 -179.789 186.484 C-174.689 180.563 -169.708 174.557 -164.789 168.484 C-159.347 161.767 -153.806 155.153 -148.161 148.606 C-145.303 145.282 -142.507 141.925 -139.789 138.484 C-136.079 133.788 -132.192 129.26 -128.283 124.729 C-124.469 120.299 -120.751 115.8 -117.066 111.262 C-114.507 108.14 -111.903 105.06 -109.289 101.984 C-105.916 98.015 -102.577 94.024 -99.289 89.984 C-95.541 85.379 -91.718 80.842 -87.873 76.318 C-84.994 72.925 -82.157 69.502 -79.352 66.047 C-75.395 61.184 -71.325 56.427 -67.233 51.678 C-63.437 47.264 -59.736 42.781 -56.066 38.262 C-53.507 35.14 -50.903 32.06 -48.289 28.984 C-44.879 24.97 -41.498 20.937 -38.164 16.859 C-37.803 16.419 -37.803 16.419 -35.977 14.191 C-34.456 12.31 -32.957 10.41 -31.477 8.496 C-21.909 -3.706 -14.308 -5.851 0 0 Z M-9.789 27.484 C-15.697 33.544 -21.127 40.022 -26.441 46.602 C-29.017 49.765 -31.646 52.878 -34.289 55.984 C-37.662 59.953 -41.001 63.945 -44.289 67.984 C-48.037 72.589 -51.859 77.125 -55.703 81.648 C-58.602 85.065 -61.461 88.509 -64.289 91.984 C-69.836 98.794 -75.528 105.479 -81.221 112.167 C-86.475 118.338 -91.665 124.542 -96.699 130.895 C-99.622 134.516 -102.638 138.056 -105.655 141.6 C-108.552 145.009 -111.407 148.448 -114.227 151.922 C-118.183 156.785 -122.253 161.541 -126.345 166.291 C-130.141 170.705 -133.842 175.188 -137.512 179.707 C-140.071 182.828 -142.675 185.909 -145.289 188.984 C-149.339 193.753 -153.333 198.564 -157.285 203.414 C-166.775 215.051 -176.369 226.593 -186.103 238.027 C-192.334 245.352 -198.483 252.738 -204.584 260.171 C-208.24 264.621 -211.931 269.037 -215.664 273.422 C-219.43 277.846 -223.09 282.341 -226.699 286.895 C-229.622 290.516 -232.638 294.056 -235.655 297.6 C-238.552 301.009 -241.407 304.448 -244.227 307.922 C-248.183 312.785 -252.253 317.541 -256.345 322.291 C-260.138 326.701 -263.838 331.179 -267.5 335.699 C-269.172 337.734 -270.86 339.743 -272.578 341.738 C-277.757 347.756 -282.577 353.73 -286.789 360.484 C-285.699 361.09 -284.608 361.696 -283.484 362.32 C-244.285 384.098 -244.285 384.098 -240.821 386.022 C-238.459 387.334 -236.098 388.646 -233.736 389.958 C-228.849 392.673 -223.963 395.387 -219.078 398.105 C-212.41 401.815 -205.736 405.516 -199.051 409.195 C-198.449 409.527 -197.847 409.858 -197.227 410.2 C-194.105 411.92 -190.981 413.637 -187.856 415.351 C-181.844 418.653 -175.868 421.999 -169.953 425.473 C-168.899 426.087 -167.845 426.702 -166.759 427.335 C-164.779 428.493 -162.808 429.665 -160.845 430.851 C-159.969 431.362 -159.094 431.872 -158.191 432.398 C-157.433 432.852 -156.675 433.305 -155.894 433.772 C-153.789 434.484 -153.789 434.484 -151.69 433.836 C-149.63 432.371 -148.429 431.013 -146.977 428.949 C-146.465 428.231 -145.953 427.513 -145.426 426.773 C-144.886 425.997 -144.346 425.221 -143.789 424.422 C-143.218 423.616 -142.647 422.811 -142.059 421.98 C-140.294 419.487 -138.541 416.986 -136.789 414.484 C-135.769 413.037 -134.748 411.591 -133.727 410.145 C-132.253 408.058 -130.78 405.972 -129.311 403.883 C-125.139 397.957 -120.897 392.083 -116.645 386.215 C-112.989 381.164 -109.376 376.085 -105.789 370.984 C-100.076 362.862 -94.27 354.809 -88.443 346.768 C-85.66 342.926 -82.88 339.08 -80.102 335.234 C-79.558 334.482 -79.014 333.729 -78.453 332.953 C-75.218 328.473 -71.997 323.984 -68.789 319.484 C-65.037 314.221 -61.262 308.974 -57.477 303.734 C-56.929 302.977 -56.382 302.22 -55.819 301.44 C-53.045 297.603 -50.27 293.767 -47.492 289.934 C-42.233 282.669 -37.004 275.388 -31.852 268.047 C-26.958 261.079 -21.934 254.215 -16.868 247.371 C-12.163 241.008 -7.54 234.591 -2.961 228.136 C6.887 214.26 16.817 200.441 26.898 186.734 C30.743 181.508 34.539 176.25 38.302 170.964 C41.749 166.121 45.227 161.301 48.711 156.484 C52.56 151.162 56.399 145.833 60.211 140.484 C65.62 132.896 71.081 125.346 76.542 117.794 C78.176 115.533 79.807 113.269 81.438 111.004 C82.508 109.518 83.578 108.033 84.648 106.547 C85.174 105.817 85.699 105.087 86.241 104.334 C89.152 100.3 92.093 96.29 95.07 92.305 C95.709 91.447 96.348 90.59 97.006 89.707 C98.239 88.056 99.476 86.408 100.719 84.764 C101.277 84.016 101.835 83.267 102.41 82.496 C102.903 81.841 103.397 81.186 103.905 80.51 C105.357 78.258 106.29 75.996 107.211 73.484 C106.52 73.214 105.829 72.944 105.117 72.665 C91.462 67.32 77.821 61.943 64.211 56.484 C53.429 52.16 42.627 47.887 31.809 43.653 C25.471 41.169 19.142 38.663 12.824 36.129 C12.476 35.989 12.476 35.989 10.716 35.283 C7.323 33.922 3.931 32.558 0.541 31.191 C-0.062 30.949 -0.062 30.949 -3.113 29.723 C-4.187 29.29 -5.26 28.857 -6.366 28.411 C-8.789 27.484 -8.789 27.484 -9.789 27.484 Z M125.211 97.484 C123.949 99.022 123.949 99.022 122.523 101.184 C122.259 101.579 122.259 101.579 120.922 103.579 C120.357 104.434 119.793 105.29 119.211 106.172 C114.596 113.051 109.837 119.679 104.727 126.199 C101.288 130.634 98.099 135.244 94.88 139.839 C91.219 145.063 87.514 150.254 83.773 155.422 C83.234 156.168 82.694 156.914 82.137 157.682 C81.043 159.195 79.947 160.706 78.852 162.218 C76.134 165.971 73.423 169.728 70.711 173.484 C69.628 174.984 68.544 176.484 67.461 177.984 C66.925 178.727 66.388 179.469 65.836 180.234 C-30.039 312.984 -30.039 312.984 -31.666 315.237 C-32.743 316.728 -33.82 318.219 -34.896 319.71 C-37.704 323.598 -40.512 327.485 -43.32 331.371 C-43.901 332.175 -44.482 332.979 -45.08 333.807 C-46.183 335.333 -47.286 336.859 -48.389 338.385 C-49.383 339.761 -50.375 341.14 -51.363 342.521 C-52.325 343.846 -53.308 345.156 -54.309 346.452 C-55.543 348.075 -56.676 349.775 -57.789 351.484 C-56.678 354.818 -56.026 355.282 -53.352 357.359 C-31.452 376.086 -24.655 404.231 -20.789 431.484 C-21.754 431.703 -22.72 431.921 -23.715 432.146 C-36.014 434.965 -48.18 438.222 -60.352 441.547 C-62.452 442.118 -64.552 442.69 -66.652 443.261 C-71.989 444.714 -77.325 446.171 -82.661 447.629 C-85.713 448.463 -88.765 449.297 -91.817 450.13 C-96.481 451.403 -101.144 452.679 -105.807 453.957 C-107.532 454.43 -109.257 454.903 -110.982 455.375 C-113.369 456.028 -115.755 456.684 -118.141 457.34 C-118.486 457.434 -118.486 457.434 -120.236 457.913 C-124.132 458.988 -127.96 460.194 -131.789 461.484 C-131.914 471.534 -131.542 481.492 -130.906 491.52 C-130.81 493.085 -130.714 494.65 -130.619 496.215 C-130.36 500.444 -130.096 504.673 -129.83 508.902 C-129.607 512.46 -129.387 516.019 -129.166 519.577 C-128.511 530.154 -127.847 540.73 -127.179 551.307 C-126.846 556.575 -126.515 561.843 -126.184 567.112 C-125.441 578.943 -124.692 590.773 -123.938 602.603 C-123.672 606.773 -123.407 610.942 -123.144 615.112 C-122.833 620.035 -122.518 624.958 -122.2 629.881 C-122.083 631.699 -121.968 633.517 -121.854 635.335 C-121.697 637.822 -121.536 640.308 -121.374 642.794 C-121.352 643.158 -121.352 643.158 -121.239 644.996 C-121.021 648.257 -120.745 651.349 -119.789 654.484 C-113.86 653.292 -108.245 651.741 -102.574 649.648 C-101.814 649.373 -101.054 649.098 -100.27 648.814 C-97.795 647.918 -95.324 647.013 -92.852 646.109 C-90.224 645.155 -87.596 644.204 -84.967 643.252 C-83.183 642.606 -81.398 641.959 -79.613 641.312 C-71.868 638.504 -64.102 635.76 -56.328 633.034 C-45.471 629.226 -34.643 625.351 -23.852 621.359 C-4.522 614.216 14.939 607.44 34.376 600.598 C45.625 596.637 56.856 592.63 68.082 588.605 C72.606 586.984 77.133 585.368 81.66 583.752 C84.014 582.912 86.367 582.071 88.721 581.23 C94.526 579.156 100.332 577.085 106.141 575.02 C117.832 570.859 129.505 566.652 141.148 562.359 C153.844 557.682 166.584 553.132 179.336 548.609 C197.035 542.332 214.714 536.003 232.368 529.601 C236.673 528.04 240.98 526.487 245.289 524.938 C247.326 524.203 249.362 523.469 251.398 522.734 C252.302 522.411 253.206 522.087 254.136 521.754 C260.098 519.598 260.098 519.598 261.211 518.484 C260.816 510.327 258.603 502.555 256.576 494.684 C255.348 489.907 254.144 485.123 252.938 480.34 C252.66 479.242 252.383 478.145 252.098 477.014 C248.025 460.83 244.08 444.614 240.125 428.401 C239.23 424.728 238.333 421.055 237.434 417.383 C236.355 412.969 235.277 408.555 234.201 404.14 C233.802 402.505 233.403 400.869 233.003 399.233 C232.442 396.942 231.884 394.649 231.326 392.357 C231.149 391.632 230.971 390.907 230.788 390.16 C229.84 386.249 228.961 382.333 228.155 378.389 C227.982 377.557 227.809 376.724 227.63 375.866 C227.3 374.262 226.981 372.656 226.674 371.048 C226.225 368.882 226.225 368.882 225.211 365.484 C221.579 364.274 220.146 364.857 216.523 365.922 C216.027 366.066 216.027 366.066 213.512 366.793 C212.752 367.021 211.993 367.249 211.211 367.484 C210.873 365.902 210.541 364.318 210.211 362.734 C210.025 361.853 209.84 360.971 209.648 360.062 C209.211 357.484 209.211 357.484 209.211 353.484 C209.566 353.388 209.566 353.388 211.363 352.898 C212.282 352.638 213.201 352.378 214.148 352.109 C215.065 351.854 215.981 351.599 216.926 351.336 C219.211 350.484 219.211 350.484 220.211 348.484 C219.729 346.561 219.729 346.561 218.863 344.175 C218.54 343.277 218.218 342.378 217.886 341.452 C217.526 340.47 217.165 339.488 216.793 338.477 C216.609 337.966 216.609 337.966 215.676 335.383 C214.466 332.039 213.245 328.699 212.023 325.359 C211.191 323.065 210.358 320.771 209.526 318.476 C204.502 304.645 199.42 290.836 194.181 277.085 C191.649 270.423 189.233 263.733 186.895 257 C183.065 245.981 179.023 235.044 174.961 224.109 C173.452 220.041 171.945 215.971 170.438 211.902 C170.07 210.911 169.702 209.919 169.324 208.898 C166.75 201.952 164.197 194.998 161.657 188.04 C150.581 157.7 138.875 127.602 127.211 97.484 C126.551 97.484 125.891 97.484 125.211 97.484 Z M-67.789 365.484 C-74.172 374.283 -80.537 383.092 -86.789 391.984 C-90.957 397.91 -95.167 403.803 -99.414 409.672 C-99.958 410.423 -100.501 411.175 -101.061 411.949 C-103.113 414.787 -105.165 417.624 -107.221 420.459 C-112.669 427.98 -117.891 435.588 -122.789 443.484 C-110.153 440.632 -97.649 437.365 -85.152 433.958 C-82.058 433.115 -78.963 432.276 -75.867 431.438 C-62.81 427.894 -49.788 424.236 -36.789 420.484 C-37.946 411.545 -40.186 403.751 -43.789 395.484 C-44.011 394.973 -44.011 394.973 -45.133 392.383 C-48.665 384.788 -53.318 378.781 -58.789 372.484 C-59.436 371.596 -60.083 370.708 -60.75 369.793 C-62.971 367.279 -64.617 366.454 -67.789 365.484 Z M-288.789 391.484 C-287.136 401.123 -285.095 410.676 -283.039 420.234 C-282.848 421.125 -282.657 422.016 -282.46 422.934 C-278.251 442.534 -273.9 462.101 -269.533 481.666 C-268.926 484.389 -268.318 487.113 -267.711 489.836 C-267.557 490.524 -267.404 491.213 -267.246 491.922 C-264.729 503.214 -262.243 514.512 -259.77 525.813 C-259.183 528.493 -258.596 531.172 -258.008 533.851 C-257.815 534.73 -257.622 535.608 -257.424 536.513 C-257.037 538.279 -256.649 540.045 -256.262 541.81 C-255.12 547.017 -253.982 552.225 -252.848 557.434 C-252.14 560.68 -251.428 563.925 -250.714 567.169 C-250.382 568.686 -250.051 570.202 -249.723 571.719 C-249.272 573.801 -248.814 575.881 -248.354 577.962 C-248.099 579.131 -247.844 580.3 -247.581 581.504 C-246.267 586.45 -245.004 588.706 -240.598 591.332 C-240.171 591.591 -240.171 591.591 -238.011 592.899 C-237.092 593.443 -236.173 593.986 -235.227 594.547 C-233.3 595.712 -231.374 596.879 -229.449 598.047 C-228.489 598.627 -227.529 599.207 -226.54 599.805 C-222.701 602.149 -218.928 604.586 -215.164 607.047 C-209.237 610.91 -203.277 614.716 -197.289 618.484 C-191.262 622.278 -185.26 626.104 -179.289 629.984 C-173.003 634.068 -166.688 638.104 -160.352 642.109 C-159.528 642.631 -158.704 643.152 -157.855 643.689 C-157.092 644.171 -156.329 644.652 -155.543 645.148 C-154.866 645.576 -154.188 646.003 -153.49 646.444 C-151.789 647.484 -151.789 647.484 -149.789 648.484 C-149.715 640.636 -149.902 632.853 -150.384 625.02 C-150.447 623.941 -150.511 622.862 -150.576 621.751 C-150.786 618.206 -151 614.662 -151.215 611.117 C-151.365 608.599 -151.515 606.081 -151.664 603.562 C-151.979 598.272 -152.296 592.981 -152.615 587.691 C-153.015 581.058 -153.411 574.425 -153.805 567.792 C-155.302 542.621 -156.829 517.452 -158.457 492.289 C-158.488 491.812 -158.488 491.812 -158.643 489.397 C-158.963 484.418 -159.298 479.441 -159.656 474.465 C-159.775 472.698 -159.864 470.929 -159.949 469.16 C-160.325 463.029 -160.325 463.029 -162.554 460.41 C-163.327 460.019 -164.101 459.629 -164.898 459.227 C-165.784 458.755 -166.669 458.282 -167.581 457.796 C-168.557 457.322 -169.533 456.848 -170.539 456.359 C-172.642 455.257 -174.745 454.154 -176.848 453.051 C-177.972 452.477 -179.095 451.904 -180.253 451.313 C-185.812 448.438 -191.266 445.381 -196.732 442.336 C-199.821 440.619 -202.919 438.917 -206.016 437.215 C-213.599 433.042 -221.166 428.839 -228.729 424.629 C-230.865 423.442 -233.002 422.26 -235.141 421.078 C-243.225 416.606 -251.274 412.079 -259.289 407.484 C-266.186 403.532 -273.096 399.606 -280.039 395.734 C-280.808 395.304 -281.577 394.873 -282.369 394.43 C-287.67 391.484 -287.67 391.484 -288.789 391.484 Z " fill="#000000" transform="translate(416.7890625,58.515625)"/>
<path d="M0 0 C1.605 2.723 1.605 2.723 3.188 6.062 C3.717 7.167 4.247 8.272 4.793 9.41 C5.191 10.265 5.59 11.119 6 12 C-10.254 21.806 -26.583 31.468 -43 41 C-57.733 49.559 -72.418 58.187 -87 67 C-80.566 68.503 -74.18 69.588 -67.625 70.438 C-67.192 70.53 -67.192 70.53 -65 71 C-62.866 75.268 -65.235 81.411 -66 86 C-77.706 85.374 -89.225 83.637 -100.812 81.938 C-102.777 81.653 -104.741 81.368 -106.705 81.084 C-111.471 80.394 -116.236 79.698 -121 79 C-118.606 70.598 -115.736 62.387 -112.812 54.159 C-111.999 51.874 -111.191 49.587 -110.383 47.301 C-109.86 45.823 -109.336 44.345 -108.812 42.867 C-108.575 42.196 -108.337 41.525 -108.093 40.834 C-106.446 36.203 -104.736 31.598 -103 27 C-97.947 27.632 -93.704 29.135 -89 31 C-90.515 38.987 -93.168 46.401 -96 54 C-88.601 49.69 -81.205 45.375 -73.811 41.058 C-72.61 40.356 -71.409 39.655 -70.208 38.954 C-56.641 31.034 -43.093 23.087 -29.625 15 C-29.112 14.693 -29.112 14.693 -26.517 13.137 C-22.066 10.464 -17.626 7.777 -13.219 5.031 C-12.515 4.597 -11.812 4.162 -11.087 3.715 C-9.827 2.935 -8.572 2.146 -7.323 1.348 C-3.336 -1.112 -3.336 -1.112 0 0 Z " fill="#000000" transform="translate(522,348)"/>
<path d="M0 0 C3.391 3.391 3.391 3.391 4.188 6.938 C4.346 7.607 4.505 8.276 4.668 8.965 C5 11 5 11 5 15 C-5.893 18.577 -16.807 21.52 -28 24 C-28.512 22.629 -29.009 21.253 -29.5 19.875 C-29.778 19.109 -30.057 18.344 -30.344 17.555 C-31 15 -31 15 -31 9 C-20.77 6.03 -10.54 3.06 0 0 Z " fill="#000000" transform="translate(603,417)"/>
<path d="M0 0 C1.32 4.62 2.64 9.24 4 14 C-2.32 16.493 -8.695 18.413 -15.25 20.188 C-16.23 20.46 -17.209 20.733 -18.219 21.014 C-18.691 21.142 -18.691 21.142 -21.078 21.793 C-21.928 22.025 -22.778 22.258 -23.653 22.497 C-26 23 -26 23 -30 23 C-31.32 18.38 -32.64 13.76 -34 9 C-27.267 6.688 -20.494 4.68 -13.625 2.812 C-13.133 2.676 -13.133 2.676 -10.645 1.986 C-9.702 1.729 -8.76 1.472 -7.789 1.207 C-6.94 0.975 -6.092 0.742 -5.217 0.503 C-3 0 -3 0 0 0 Z " fill="#000000" transform="translate(552,432)"/>
<path d="M0 0 C0.507 1.581 1.005 3.165 1.5 4.75 C1.778 5.632 2.057 6.513 2.344 7.422 C3 10 3 10 3 14 C-0.79 15.132 -4.582 16.254 -8.375 17.375 C-9.436 17.692 -10.497 18.009 -11.59 18.336 C-18.015 20.228 -24.404 21.827 -31 23 C-31.504 21.064 -32.003 19.126 -32.5 17.188 C-32.778 16.109 -33.057 15.03 -33.344 13.918 C-34 11 -34 11 -34 8 C-29.964 6.852 -25.925 5.713 -21.885 4.582 C-20.511 4.196 -19.139 3.808 -17.767 3.418 C-15.791 2.856 -13.812 2.302 -11.832 1.75 C-10.643 1.415 -9.455 1.08 -8.23 0.734 C-5.341 0.077 -2.944 -0.155 0 0 Z " fill="#000000" transform="translate(499,447)"/>
<path d="M0 0 C0.533 1.746 1.051 3.497 1.562 5.25 C1.853 6.225 2.143 7.199 2.441 8.203 C3.006 11.032 2.789 12.307 2 15 C-1.892 16.172 -5.788 17.329 -9.688 18.473 C-11.013 18.864 -12.337 19.258 -13.66 19.657 C-15.566 20.232 -17.476 20.79 -19.387 21.348 C-20.534 21.688 -21.68 22.028 -22.862 22.379 C-26 23 -26 23 -31 22 C-31.495 19.855 -31.495 19.855 -34 9 C-27.509 6.411 -20.952 4.55 -14.188 2.812 C-13.152 2.54 -12.116 2.267 -11.049 1.986 C-3.387 0 -3.387 0 0 0 Z " fill="#000000" transform="translate(446,461)"/>
</svg>
