<?xml version="1.0" encoding="UTF-8"?>
<!-- Generator: visioncortex VTracer 0.6.12 -->
<svg version="1.1" xmlns="http://www.w3.org/2000/svg" width="256" height="256" viewBox="-42 -42 935 878" fill="none">
<path d="M0 0 C6.122 3.455 12.326 6.756 18.527 10.066 C19.735 10.712 20.942 11.357 22.15 12.002 C23.974 12.977 25.798 13.952 27.622 14.926 C50.677 27.245 73.665 39.69 96.601 52.229 C101.516 54.913 106.439 57.578 111.375 60.223 C122.894 66.394 134.343 72.657 145.695 79.133 C152.751 83.14 159.902 86.927 167.11 90.651 C174.702 94.595 182.135 98.797 189.562 103.042 C195.672 106.522 201.841 109.843 208.09 113.066 C231.097 125.028 248.336 139.59 257.027 164.816 C258.762 171.046 259.699 177.44 260.715 183.816 C261.039 185.751 261.365 187.685 261.693 189.618 C262.422 193.945 263.137 198.273 263.844 202.604 C265 209.678 266.192 216.747 267.389 223.815 C272.95 256.682 278.315 289.582 283.604 322.494 C284.021 325.088 284.438 327.682 284.856 330.276 C287.419 346.217 289.966 362.16 292.375 378.125 C292.539 379.195 292.703 380.265 292.872 381.368 C296.371 404.893 292.099 426.186 278.031 445.566 C273.484 451.403 268.602 456.087 262.781 460.637 C260.09 462.767 257.558 464.999 255.027 467.316 C250.803 471.162 246.438 474.784 242 478.379 C238.699 481.085 235.452 483.847 232.215 486.629 C231.628 487.133 231.042 487.637 230.437 488.157 C228.633 489.709 226.83 491.262 225.027 492.816 C217.71 499.124 210.372 505.384 202.871 511.473 C198.936 514.716 195.079 518.048 191.217 521.377 C187.715 524.389 184.179 527.347 180.59 530.254 C174.241 535.411 168.096 540.796 161.928 546.166 C151.84 554.927 141.633 563.552 131.423 572.171 C125.295 577.345 119.178 582.533 113.09 587.754 C112.511 588.251 111.932 588.747 111.335 589.259 C108.36 591.811 105.388 594.367 102.418 596.926 C97.188 601.428 91.951 605.908 86.59 610.254 C80.902 614.874 75.382 619.677 69.855 624.488 C65.665 628.136 61.45 631.754 57.227 635.364 C54.32 637.849 51.419 640.341 48.531 642.848 C45.052 645.864 41.545 648.846 38.027 651.816 C37.46 652.3 36.894 652.784 36.31 653.283 C17.047 669.617 -4.536 677.308 -29.973 675.816 C-57.93 673.129 -81.733 654.981 -104.735 640.248 C-108.597 637.777 -112.472 635.328 -116.348 632.879 C-117.129 632.385 -117.91 631.891 -118.716 631.381 C-124.55 627.698 -130.413 624.064 -136.285 620.441 C-144.483 615.385 -152.618 610.237 -160.735 605.052 C-167.883 600.492 -175.08 596.017 -182.296 591.566 C-187.98 588.057 -193.642 584.516 -199.285 580.941 C-214.926 571.037 -230.64 561.249 -246.39 551.52 C-252.893 547.497 -259.361 543.421 -265.821 539.329 C-271.579 535.685 -277.363 532.085 -283.16 528.504 C-294.792 521.318 -306.389 514.079 -317.973 506.816 C-318.869 506.255 -319.765 505.693 -320.688 505.114 C-325.459 502.122 -330.222 499.118 -334.97 496.092 C-336.24 495.283 -337.511 494.477 -338.784 493.674 C-346.163 489.008 -352.742 483.942 -358.973 477.816 C-359.322 477.474 -359.322 477.474 -361.09 475.738 C-375.629 460.464 -381.678 440.56 -381.357 419.837 C-380.815 405.868 -378.047 392.004 -375.724 378.244 C-375.129 374.697 -374.546 371.149 -373.963 367.601 C-372.151 356.564 -370.298 345.535 -368.429 334.507 C-367.982 331.869 -367.535 329.231 -367.09 326.593 C-360.57 288.043 -353.979 249.489 -346.427 211.126 C-346.131 209.619 -345.835 208.112 -345.542 206.604 C-339.33 174.745 -328.158 151.428 -301.133 132.098 C-297.521 129.49 -293.965 126.813 -290.41 124.129 C-284.671 119.803 -278.876 115.566 -273.035 111.379 C-266.217 106.487 -259.52 101.457 -252.871 96.338 C-248.303 92.824 -243.692 89.387 -239.016 86.02 C-234.96 83.083 -230.937 80.104 -226.91 77.129 C-220.648 72.504 -214.358 67.921 -208.035 63.379 C-201.621 58.769 -195.281 54.07 -188.973 49.316 C-181.937 44.014 -174.847 38.8 -167.691 33.66 C-162.255 29.752 -156.857 25.796 -151.473 21.816 C-143.747 16.109 -135.986 10.453 -128.184 4.852 C-125.526 2.943 -122.886 1.016 -120.262 -0.938 C-79.744 -30.934 -41.655 -23.59 0 0 Z M-103.91 23.316 C-105.575 24.556 -107.241 25.796 -108.906 27.035 C-109.326 27.349 -109.326 27.349 -111.453 28.938 C-115.446 31.915 -119.46 34.865 -123.473 37.816 C-125.052 38.98 -126.632 40.144 -128.211 41.309 C-131.415 43.67 -134.621 46.029 -137.828 48.387 C-145.233 53.833 -152.627 59.291 -159.973 64.816 C-168.123 70.947 -176.333 76.994 -184.549 83.034 C-188.526 85.959 -192.499 88.888 -196.473 91.816 C-198.056 92.983 -199.639 94.15 -201.223 95.316 C-202.006 95.894 -202.79 96.471 -203.598 97.066 C-212.306 103.483 -221.014 109.9 -229.723 116.316 C-230.115 116.605 -230.115 116.605 -232.099 118.067 C-233.679 119.231 -235.259 120.396 -236.839 121.56 C-240.847 124.513 -244.856 127.467 -248.863 130.422 C-250.483 131.616 -252.103 132.81 -253.723 134.004 C-254.119 134.296 -254.119 134.296 -256.122 135.773 C-260.35 138.888 -264.582 141.997 -268.822 145.096 C-271.876 147.331 -274.925 149.572 -277.973 151.816 C-278.671 152.33 -279.37 152.844 -280.089 153.373 C-282.262 154.974 -284.431 156.582 -286.598 158.191 C-287.261 158.679 -287.925 159.168 -288.608 159.67 C-293.735 163.493 -298.378 167.403 -301.723 172.941 C-302.13 173.604 -302.537 174.267 -302.957 174.949 C-305.153 178.986 -305.832 183.315 -304.973 187.816 C-302.477 192.31 -300.075 194.804 -295.66 197.379 C-295.112 197.703 -294.563 198.027 -293.998 198.36 C-292 199.531 -289.988 200.675 -287.973 201.816 C-287.142 202.29 -286.311 202.764 -285.456 203.251 C-280.622 206.004 -275.779 208.74 -270.93 211.465 C-254.31 220.805 -237.811 230.358 -221.303 239.893 C-214.78 243.66 -208.255 247.423 -201.73 251.186 C-196.274 254.333 -190.819 257.483 -185.367 260.637 C-175.054 266.6 -164.729 272.536 -154.348 278.379 C-145.62 283.292 -136.957 288.307 -128.315 293.369 C-120.459 297.965 -112.567 302.495 -104.66 307.004 C-88.649 316.137 -88.649 316.137 -81.098 320.504 C-80.361 320.93 -79.625 321.356 -78.866 321.794 C-74.675 324.225 -70.504 326.686 -66.344 329.168 C-32.013 349.642 -32.013 349.642 -16.094 345.906 C-14.696 345.512 -13.302 345.107 -11.91 344.691 C-11.262 344.504 -10.613 344.316 -9.945 344.123 C-0.92 341.215 6.367 334.924 13.715 329.129 C14.497 328.517 15.278 327.904 16.084 327.273 C18.401 325.458 20.715 323.638 23.027 321.816 C24.242 320.862 25.457 319.907 26.672 318.953 C28.351 317.634 30.029 316.315 31.707 314.995 C36.384 311.315 41.079 307.657 45.777 304.004 C46.533 303.416 47.289 302.829 48.068 302.223 C51.926 299.224 55.786 296.228 59.648 293.234 C67.377 287.24 75.068 281.205 82.692 275.078 C88.733 270.231 94.872 265.518 101.027 260.816 C108.205 255.321 115.352 249.79 122.454 244.197 C129.516 238.638 136.616 233.128 143.713 227.615 C146.738 225.264 149.762 222.912 152.786 220.56 C154.282 219.396 155.778 218.233 157.274 217.069 C161.039 214.142 164.802 211.213 168.562 208.281 C175.231 203.085 181.904 197.897 188.626 192.771 C190.741 191.156 192.853 189.537 194.965 187.918 C197.637 185.87 200.325 183.848 203.027 181.84 C210.523 176.212 216.457 171.509 219.027 162.191 C219.027 158.139 218.269 156.178 216.027 152.816 C211.382 148.489 205.719 145.823 200.152 142.879 C192.007 138.523 183.921 134.089 175.902 129.504 C165.641 123.652 155.238 118.089 144.804 112.554 C137.351 108.599 129.936 104.589 122.575 100.465 C113.482 95.376 104.301 90.447 95.133 85.494 C90.054 82.75 84.978 80.003 79.902 77.254 C78.908 76.715 77.913 76.177 76.888 75.622 C69.355 71.541 61.832 67.442 54.314 63.333 C49.591 60.754 44.863 58.185 40.125 55.633 C30.098 50.228 20.114 44.765 10.215 39.129 C2.603 34.797 -5.052 30.584 -12.834 26.567 C-17.105 24.356 -21.312 22.069 -25.48 19.672 C-54.12 3.296 -77.213 3.236 -103.91 23.316 Z M227.965 199.066 C223.152 203.139 218.214 206.996 213.152 210.754 C206.257 215.876 199.478 221.125 192.745 226.458 C189.845 228.752 186.936 231.033 184.027 233.316 C182.859 234.234 181.691 235.152 180.523 236.07 C178.205 237.892 175.884 239.713 173.562 241.531 C167.503 246.281 161.468 251.058 155.465 255.879 C149.874 260.365 144.228 264.768 138.535 269.125 C126.619 278.251 114.819 287.531 103.027 296.816 C93.16 304.587 83.26 312.313 73.342 320.018 C69.569 322.949 65.798 325.883 62.027 328.816 C60.527 329.983 59.027 331.15 57.527 332.316 C56.785 332.894 56.042 333.471 55.277 334.066 C53.027 335.816 50.777 337.566 48.527 339.316 C47.784 339.894 47.041 340.472 46.276 341.068 C44.782 342.23 43.287 343.392 41.793 344.553 C37.951 347.539 34.114 350.53 30.281 353.527 C28.718 354.749 27.154 355.97 25.59 357.191 C25.214 357.486 25.214 357.486 23.312 358.975 C19.208 362.173 15.053 365.229 10.777 368.191 C3.638 373.338 -0.587 379.29 -2.973 387.816 C-3.381 391.207 -3.383 394.558 -3.36 397.97 C-3.366 398.966 -3.371 399.961 -3.377 400.987 C-3.391 404.309 -3.384 407.63 -3.377 410.952 C-3.382 413.339 -3.389 415.726 -3.398 418.113 C-3.414 423.915 -3.416 429.716 -3.41 435.517 C-3.406 440.232 -3.408 444.946 -3.413 449.661 C-3.414 450.333 -3.415 451.005 -3.415 451.697 C-3.417 453.062 -3.418 454.427 -3.42 455.792 C-3.434 468.578 -3.428 481.364 -3.417 494.151 C-3.407 505.848 -3.42 517.545 -3.444 529.242 C-3.468 541.26 -3.478 553.278 -3.471 565.296 C-3.468 572.041 -3.47 578.785 -3.487 585.53 C-3.503 591.867 -3.499 598.204 -3.48 604.542 C-3.476 606.87 -3.479 609.198 -3.49 611.526 C-3.503 614.699 -3.492 617.871 -3.474 621.044 C-3.483 621.969 -3.493 622.895 -3.503 623.848 C-3.455 627.979 -3.285 630.278 -1.176 633.915 C1.027 635.816 1.027 635.816 4.777 636.004 C9.894 634.954 13.145 632.171 17.027 628.816 C18.104 627.899 19.181 626.983 20.258 626.066 C22.686 623.994 25.105 621.912 27.52 619.824 C30.46 617.29 33.447 614.821 36.465 612.379 C41.517 608.277 46.43 604.029 51.337 599.756 C55.92 595.768 60.539 591.826 65.183 587.911 C69.148 584.566 73.092 581.196 77.027 577.816 C85.443 570.594 93.859 563.374 102.465 556.379 C109.092 550.981 115.554 545.396 122.027 539.816 C129.371 533.487 136.733 527.2 144.258 521.086 C149.013 517.189 153.69 513.2 158.375 509.219 C159.998 507.842 161.623 506.467 163.25 505.094 C168.304 500.826 173.347 496.547 178.362 492.232 C183.907 487.461 189.503 482.771 195.184 478.16 C198.504 475.423 201.768 472.625 205.027 469.816 C210.015 465.518 215.066 461.313 220.18 457.164 C224.137 453.902 228.012 450.548 231.893 447.196 C235.334 444.234 238.824 441.364 242.402 438.566 C254.266 429.115 262.948 418.244 264.772 402.786 C265.45 393.62 263.714 384.71 262.297 375.684 C261.981 373.603 261.666 371.522 261.352 369.441 C260.649 364.802 259.937 360.165 259.219 355.529 C258.051 347.986 256.902 340.439 255.755 332.892 C253.137 315.67 250.491 298.452 247.838 281.235 C246.827 274.675 245.82 268.114 244.813 261.554 C243.827 255.128 242.839 248.702 241.85 242.277 C241.265 238.481 240.681 234.686 240.099 230.89 C239.557 227.354 239.012 223.819 238.466 220.285 C238.174 218.391 237.884 216.497 237.595 214.602 C236.567 207.969 235.417 201.384 234.027 194.816 C231.875 194.816 229.445 197.799 227.965 199.066 Z M-319.973 215.816 C-322.949 233.624 -325.922 251.432 -328.894 269.241 C-330.275 277.517 -331.657 285.793 -333.04 294.068 C-336.331 313.763 -339.611 333.46 -342.871 353.16 C-343.595 357.538 -344.321 361.916 -345.049 366.294 C-346.263 373.598 -347.468 380.905 -348.662 388.213 C-349.054 390.601 -349.448 392.99 -349.846 395.377 C-350.387 398.633 -350.918 401.889 -351.446 405.146 C-351.602 406.075 -351.759 407.003 -351.921 407.959 C-354.412 423.597 -352.618 438.27 -343.141 451.344 C-337.74 457.846 -331.391 462.158 -324.215 466.458 C-321.698 467.983 -319.208 469.547 -316.719 471.117 C-305.17 478.4 -293.534 485.531 -281.853 492.597 C-272.306 498.374 -262.846 504.272 -253.431 510.259 C-248.666 513.278 -243.881 516.265 -239.098 519.254 C-238.08 519.89 -237.063 520.525 -236.015 521.18 C-228.655 525.775 -221.28 530.345 -213.9 534.906 C-204.255 540.872 -194.643 546.889 -185.03 552.905 C-181.985 554.809 -178.938 556.71 -175.891 558.609 C-166.161 564.677 -156.45 570.771 -146.785 576.941 C-134.123 585.021 -121.343 592.905 -108.543 600.766 C-106.311 602.137 -104.079 603.508 -101.848 604.879 C-100.742 605.558 -99.637 606.237 -98.499 606.936 C-92.001 610.933 -85.535 614.973 -79.098 619.066 C-72.477 623.269 -65.811 627.389 -59.098 631.441 C-58.259 631.951 -57.42 632.46 -56.555 632.985 C-49.754 637.067 -44.107 640.094 -35.973 638.816 C-33.471 636.94 -32.353 635.577 -30.973 632.816 C-30.868 629.714 -30.825 626.634 -30.825 623.532 C-30.824 623.045 -30.824 623.045 -30.814 620.578 C-30.803 617.291 -30.799 614.004 -30.796 610.717 C-30.789 608.368 -30.783 606.02 -30.776 603.671 C-30.756 596.606 -30.746 589.541 -30.737 582.476 C-30.733 579.148 -30.727 575.82 -30.722 572.492 C-30.705 561.426 -30.691 550.36 -30.683 539.294 C-30.681 536.421 -30.679 533.548 -30.677 530.676 C-30.677 529.962 -30.677 529.248 -30.676 528.512 C-30.668 516.957 -30.642 505.402 -30.61 493.846 C-30.577 481.979 -30.559 470.111 -30.556 458.244 C-30.553 451.582 -30.544 444.921 -30.519 438.26 C-30.496 431.989 -30.492 425.718 -30.502 419.447 C-30.502 417.149 -30.496 414.85 -30.482 412.552 C-30.465 409.406 -30.472 406.262 -30.485 403.117 C-30.474 402.213 -30.463 401.31 -30.452 400.379 C-30.526 392.971 -32.322 386.202 -36.945 380.296 C-42.586 375.606 -48.39 372.156 -54.973 368.941 C-57.03 367.902 -59.086 366.859 -61.141 365.812 C-62.14 365.304 -63.14 364.796 -64.169 364.273 C-67.952 362.307 -71.629 360.194 -75.285 358.004 C-75.944 357.609 -76.604 357.215 -77.283 356.808 C-78.705 355.957 -80.127 355.105 -81.549 354.253 C-86.516 351.309 -91.53 348.445 -96.535 345.566 C-105.029 340.675 -113.51 335.763 -121.973 330.816 C-133.52 324.069 -145.102 317.383 -156.69 310.708 C-163.201 306.956 -169.709 303.199 -176.218 299.444 C-181.659 296.305 -187.1 293.167 -192.543 290.031 C-204.026 283.415 -215.492 276.773 -226.934 270.086 C-234.266 265.804 -241.616 261.554 -248.973 257.316 C-260.32 250.779 -271.637 244.193 -282.943 237.585 C-286.113 235.734 -289.285 233.886 -292.457 232.039 C-293.527 231.416 -294.597 230.793 -295.699 230.151 C-297.726 228.97 -299.754 227.789 -301.782 226.609 C-302.708 226.069 -303.635 225.529 -304.59 224.973 C-305.39 224.507 -306.191 224.041 -307.015 223.561 C-309.737 221.955 -312.448 220.334 -315.158 218.707 C-316.059 218.166 -316.96 217.625 -317.889 217.068 C-318.233 216.861 -318.233 216.861 -319.973 215.816 Z " fill="#000000" transform="translate(414.97265625,55.18359375)"/>
<path d="M0 0 C3.86 -0.141 7.719 -0.238 11.581 -0.296 C12.468 -0.322 13.356 -0.348 14.27 -0.374 C19.632 -0.39 22.645 0.505 26.893 4.079 C32.811 11.97 29.799 25.3 29.124 34.599 C29.042 35.742 28.961 36.884 28.876 38.062 C28.703 40.456 28.527 42.85 28.349 45.244 C28.08 48.899 27.83 52.554 27.579 56.21 C27.408 58.548 27.235 60.886 27.061 63.224 C26.989 64.309 26.917 65.395 26.843 66.513 C26.295 73.533 25.729 79.451 20.331 84.454 C15.832 87.454 12.235 87.736 6.893 87.079 C2.937 85.028 0.168 82.91 -2.107 79.079 C-2.447 75.963 -2.447 75.963 -2.399 72.345 C-2.39 71.049 -2.38 69.754 -2.37 68.419 C-2.345 67.056 -2.32 65.693 -2.294 64.329 C-2.279 62.95 -2.265 61.572 -2.253 60.193 C-2.218 56.821 -2.168 53.45 -2.107 50.079 C-3.024 51.009 -3.942 51.938 -4.888 52.896 C-16.044 64.149 -16.044 64.149 -20.107 67.579 C-23.994 70.863 -27.53 74.465 -31.107 78.079 C-38.388 85.436 -38.388 85.436 -42.044 88.517 C-46.133 91.97 -49.844 95.78 -53.607 99.579 C-57.93 103.945 -62.253 108.185 -66.954 112.146 C-70.785 115.587 -74.349 119.303 -77.97 122.962 C-81.541 126.557 -85.181 129.971 -89.052 133.243 C-91.851 135.744 -94.469 138.41 -97.107 141.079 C-100.31 144.322 -103.498 147.509 -106.982 150.454 C-111.527 154.316 -115.663 158.584 -119.833 162.843 C-122.777 165.831 -125.767 168.69 -128.95 171.423 C-133.749 175.565 -138.162 180.064 -142.607 184.579 C-151.56 193.677 -151.56 193.677 -156.064 197.536 C-161.077 201.84 -165.659 206.563 -170.294 211.267 C-172.035 213.034 -173.778 214.798 -175.524 216.56 C-176.285 217.332 -177.046 218.105 -177.83 218.9 C-180.149 221.12 -182.571 223.112 -185.107 225.079 C-184.265 225.058 -183.423 225.037 -182.555 225.016 C-179.404 224.947 -176.253 224.897 -173.101 224.86 C-171.742 224.84 -170.383 224.812 -169.025 224.778 C-155.011 224.428 -155.011 224.428 -149.107 229.079 C-145.725 232.788 -145.481 236.721 -145.618 241.572 C-146.437 245.779 -148.829 248.433 -152.107 251.079 C-155.545 253.197 -158.491 253.426 -162.492 253.629 C-163.14 253.664 -163.14 253.664 -166.417 253.84 C-167.829 253.906 -169.241 253.972 -170.653 254.036 C-172.108 254.108 -173.563 254.179 -175.018 254.251 C-178.067 254.399 -181.117 254.54 -184.167 254.677 C-188.059 254.852 -191.95 255.051 -195.841 255.256 C-198.846 255.411 -201.853 255.55 -204.859 255.685 C-206.293 255.752 -207.727 255.824 -209.16 255.902 C-223.188 256.651 -223.188 256.651 -230.107 253.079 C-234.06 249.438 -235.397 245.3 -236.107 240.079 C-236.105 235.598 -235.716 231.169 -235.314 226.708 C-235.207 225.431 -235.1 224.154 -234.99 222.839 C-234.764 220.146 -234.528 217.454 -234.286 214.763 C-233.978 211.337 -233.692 207.91 -233.412 204.482 C-233.141 201.181 -232.851 197.882 -232.564 194.583 C-232.463 193.364 -232.363 192.145 -232.26 190.889 C-230.767 174.675 -230.767 174.675 -225.544 169.579 C-220.749 166.629 -216.692 166.194 -211.107 167.079 C-206.289 169.694 -203.821 172.919 -202.107 178.079 C-201.971 180.85 -201.971 180.85 -202.13 183.818 C-202.182 184.884 -202.233 185.951 -202.286 187.05 C-202.351 188.153 -202.415 189.256 -202.482 190.392 C-202.51 190.953 -202.51 190.953 -202.653 193.792 C-202.794 196.555 -202.946 199.317 -203.107 202.079 C-195.315 194.907 -187.62 187.669 -180.169 180.142 C-175.991 175.922 -171.803 171.841 -167.259 168.013 C-163.474 164.612 -159.938 160.951 -156.38 157.315 C-153.415 154.307 -150.403 151.428 -147.2 148.673 C-142.779 144.856 -138.697 140.745 -134.607 136.579 C-129.893 131.78 -125.126 127.164 -120.026 122.777 C-116.909 120.02 -114.014 117.054 -111.107 114.079 C-107.578 110.471 -104.028 106.966 -100.2 103.673 C-95.779 99.856 -91.697 95.745 -87.607 91.579 C-82.873 86.76 -78.086 82.121 -72.964 77.714 C-70.214 75.294 -67.662 72.701 -65.107 70.079 C-61.885 66.813 -58.671 63.611 -55.169 60.642 C-50.833 56.957 -46.897 52.896 -42.899 48.853 C-39.389 45.318 -35.816 41.93 -31.985 38.74 C-29.234 36.308 -26.688 33.69 -24.107 31.079 C-24.954 31.1 -25.801 31.121 -26.673 31.143 C-29.838 31.211 -33.002 31.261 -36.167 31.299 C-37.533 31.319 -38.898 31.346 -40.264 31.381 C-42.234 31.43 -44.206 31.45 -46.177 31.47 C-47.36 31.491 -48.544 31.512 -49.763 31.533 C-54.825 30.846 -58.863 28.005 -62.107 24.079 C-63.756 19.132 -64.323 14.608 -62.001 9.782 C-59.634 6.58 -57.418 4.461 -53.54 3.333 C-43.463 1.95 -33.386 1.401 -23.232 0.954 C-22.328 0.913 -21.425 0.872 -20.495 0.83 C-13.664 0.522 -6.832 0.257 0 0 Z " fill="#000000" transform="translate(787.1065063476563,504.920654296875)"/>
</svg>
