<?xml version="1.0" encoding="UTF-8"?>
<!-- Generator: visioncortex VTracer 0.6.12 -->
<svg version="1.1" xmlns="http://www.w3.org/2000/svg" width="256" height="256" viewBox="0 0 1111 1111" fill="none">
<path d="M0 0 C4.005 0.644 5.659 1.722 8.5 4.562 C9.959 7.48 9.633 10.04 9.64 13.299 C9.643 14 9.646 14.7 9.649 15.422 C9.658 17.781 9.66 20.14 9.661 22.499 C9.666 24.186 9.671 25.873 9.676 27.559 C9.689 32.15 9.696 36.741 9.7 41.332 C9.703 44.199 9.707 47.066 9.712 49.933 C9.725 58.898 9.735 67.864 9.739 76.829 C9.743 87.186 9.761 97.543 9.79 107.9 C9.811 115.9 9.822 123.9 9.823 131.9 C9.824 136.68 9.83 141.461 9.848 146.241 C9.864 150.738 9.866 155.235 9.858 159.733 C9.857 161.383 9.861 163.034 9.871 164.685 C9.884 166.938 9.878 169.191 9.867 171.445 C9.869 172.706 9.87 173.967 9.872 175.267 C9.469 178.833 8.651 180.719 6.5 183.562 C3.342 185.141 -0.107 185.382 -3.5 184.562 C-6.783 181.926 -8.334 180.437 -9.129 176.244 C-9.131 174.972 -9.133 173.7 -9.135 172.389 C-9.143 171.678 -9.151 170.967 -9.159 170.234 C-9.178 167.856 -9.163 165.48 -9.147 163.102 C-9.154 161.395 -9.163 159.688 -9.174 157.981 C-9.196 153.349 -9.187 148.717 -9.172 144.085 C-9.159 139.237 -9.171 134.389 -9.179 129.542 C-9.188 121.401 -9.176 113.26 -9.152 105.119 C-9.125 95.707 -9.133 86.296 -9.161 76.884 C-9.184 68.803 -9.187 60.722 -9.174 52.641 C-9.166 47.815 -9.165 42.989 -9.181 38.162 C-9.196 33.625 -9.186 29.088 -9.157 24.55 C-9.15 22.885 -9.152 21.22 -9.163 19.555 C-9.177 17.281 -9.16 15.009 -9.135 12.736 C-9.133 11.464 -9.131 10.192 -9.129 8.881 C-8.105 3.479 -5.387 0.866 0 0 Z " fill="#000000" transform="translate(279.5,221.4375)"/>
<path d="M0 0 C3.368 2.597 4.828 4.095 5.629 8.319 C5.63 8.955 5.63 8.955 5.635 12.173 C5.643 12.885 5.651 13.596 5.659 14.329 C5.678 16.707 5.663 19.083 5.647 21.461 C5.654 23.168 5.663 24.875 5.674 26.582 C5.696 31.214 5.687 35.846 5.672 40.478 C5.659 45.326 5.671 50.173 5.679 55.021 C5.688 63.162 5.676 71.303 5.652 79.443 C5.625 88.855 5.633 98.267 5.661 107.679 C5.684 115.76 5.687 123.84 5.674 131.921 C5.666 136.748 5.665 141.574 5.681 146.4 C5.696 150.938 5.686 155.475 5.657 160.012 C5.65 161.677 5.652 163.343 5.663 165.008 C5.677 167.282 5.66 169.553 5.635 171.827 C5.633 173.099 5.631 174.371 5.629 175.681 C4.834 179.873 3.275 181.357 0 184 C-3.026 184.907 -4.75 184.464 -8 184 C-10.431 182.13 -11.641 180.719 -13 178 C-13.103 175.756 -13.14 173.509 -13.147 171.263 C-13.151 170.563 -13.155 169.862 -13.158 169.14 C-13.169 166.781 -13.173 164.422 -13.177 162.063 C-13.183 160.376 -13.19 158.69 -13.197 157.003 C-13.214 152.412 -13.225 147.821 -13.233 143.23 C-13.238 140.363 -13.244 137.496 -13.251 134.63 C-13.27 125.664 -13.284 116.699 -13.292 107.734 C-13.302 97.377 -13.328 87.02 -13.369 76.663 C-13.399 68.663 -13.414 60.663 -13.417 52.663 C-13.419 47.882 -13.428 43.102 -13.453 38.321 C-13.477 33.824 -13.481 29.327 -13.471 24.83 C-13.47 23.179 -13.477 21.528 -13.49 19.878 C-13.508 17.624 -13.501 15.371 -13.488 13.118 C-13.489 12.487 -13.489 12.487 -13.495 9.296 C-12.911 5.409 -11.737 3.767 -9 1 C-5.861 -0.569 -3.461 -0.352 0 0 Z " fill="#000000" transform="translate(829,222)"/>
<path d="M0 0 C3.3 1.74 5.466 4.14 7.438 7.312 C8.41 11.959 8.389 15.854 5.789 19.871 C3.952 22.026 2.014 24.01 0 26 C-0.963 26.963 -1.925 27.927 -2.887 28.891 C-4.447 30.451 -6.01 32.01 -7.58 33.562 C-11.019 36.972 -14.288 40.471 -17.402 44.184 C-19.491 46.558 -21.764 48.764 -24 51 C107.67 51 239.34 51 375 51 C365.76 41.76 356.52 32.52 347 23 C344.877 18.753 344.296 15.627 345 11 C346.898 6.976 348.46 5.333 352.25 3 C356.869 1.768 359.673 2.067 364 4 C367.64 6.525 370.28 9.278 373.139 12.634 C377.125 17.214 381.383 21.475 385.707 25.734 C387.361 27.376 389.016 29.018 390.67 30.66 C393.253 33.219 395.838 35.775 398.426 38.33 C400.94 40.814 403.449 43.305 405.957 45.797 C406.346 46.179 406.346 46.179 408.312 48.111 C409.03 48.825 409.748 49.54 410.488 50.276 C411.119 50.901 411.751 51.525 412.402 52.168 C415.357 55.556 416.305 58.413 416.375 62.875 C416.403 63.697 416.432 64.52 416.461 65.367 C415.265 72.201 409.154 77.098 404.418 81.742 C403.686 82.469 402.953 83.197 402.199 83.946 C399.866 86.26 397.527 88.568 395.188 90.875 C392.859 93.176 390.532 95.478 388.209 97.783 C386.767 99.213 385.322 100.64 383.874 102.064 C379.936 105.964 376.204 109.964 372.623 114.196 C368.437 118.849 364.256 123.072 357.812 123.438 C353.029 123.407 350.729 121.809 347.312 118.605 C344.442 115.094 344.633 111.331 345 107 C347.7 102.341 351.005 98.737 354.824 95.016 C355.371 94.474 355.918 93.932 356.481 93.374 C358.212 91.661 359.949 89.955 361.688 88.25 C363.436 86.53 365.182 84.808 366.926 83.083 C368.007 82.014 369.091 80.948 370.178 79.884 C373.888 76.223 373.888 76.223 375 74 C309.33 74.165 309.33 74.165 -23 75 C-13.76 84.24 -4.52 93.48 5 103 C7.562 109.406 7.562 109.406 7 114 C4.715 118.316 2.544 121.098 -2 123 C-7.173 123.554 -9.768 122.897 -14 120 C-15.758 118.421 -17.469 116.787 -19.142 115.117 C-19.628 114.634 -20.115 114.151 -20.617 113.653 C-22.213 112.065 -23.802 110.47 -25.391 108.875 C-26.502 107.765 -27.613 106.656 -28.725 105.546 C-31.048 103.226 -33.368 100.902 -35.685 98.576 C-38.656 95.593 -41.636 92.62 -44.619 89.649 C-46.913 87.362 -49.203 85.07 -51.491 82.777 C-52.588 81.678 -53.687 80.581 -54.787 79.485 C-56.322 77.956 -57.85 76.42 -59.376 74.883 C-60.247 74.01 -61.118 73.138 -62.015 72.239 C-65.054 68.811 -65.163 65.794 -65.426 61.328 C-64.158 54.398 -59.076 49.71 -54.188 45.062 C-50.64 41.647 -47.162 38.248 -43.973 34.492 C-38.711 28.388 -32.942 22.756 -27.247 17.061 C-25.236 15.048 -23.233 13.027 -21.23 11.006 C-19.951 9.723 -18.671 8.442 -17.391 7.16 C-16.794 6.556 -16.197 5.952 -15.582 5.33 C-10.821 0.595 -6.766 -1.138 0 0 Z " fill="#000000" transform="translate(379,244)"/>
<path d="M0 0 C1.994 -0.005 3.988 -0.011 5.983 -0.019 C11.435 -0.036 16.888 -0.027 22.34 -0.015 C28.231 -0.006 34.122 -0.02 40.013 -0.031 C51.543 -0.049 63.072 -0.045 74.602 -0.033 C83.974 -0.024 93.347 -0.023 102.719 -0.027 C103.386 -0.028 104.052 -0.028 104.739 -0.028 C107.447 -0.029 110.154 -0.031 112.861 -0.032 C138.236 -0.044 163.611 -0.033 188.986 -0.012 C211.511 0.007 234.036 0.006 256.561 -0.014 C281.891 -0.035 307.221 -0.043 332.55 -0.031 C335.252 -0.03 337.954 -0.029 340.657 -0.027 C340.989 -0.027 340.989 -0.027 342.673 -0.026 C352.702 -0.022 362.731 -0.027 372.761 -0.037 C384.169 -0.048 395.577 -0.045 406.986 -0.024 C412.804 -0.014 418.622 -0.009 424.441 -0.023 C429.771 -0.035 435.102 -0.028 440.432 -0.007 C442.356 -0.002 444.28 -0.005 446.204 -0.014 C461.999 -0.088 474.939 1.446 487.188 12.508 C498.105 23.766 503.163 38.982 508.938 53.258 C509.657 55.025 510.376 56.792 511.097 58.558 C512.166 61.182 513.235 63.805 514.303 66.43 C516.836 72.657 519.402 78.87 522 85.07 C526.803 96.557 531.559 108.063 536.313 119.57 C536.724 120.567 537.136 121.564 537.56 122.591 C543.493 136.957 549.403 151.333 555.294 165.717 C559.96 177.107 564.66 188.482 569.384 199.848 C576.02 215.816 582.596 231.808 589.125 247.82 C589.545 248.85 589.964 249.879 590.397 250.94 C592.505 256.111 594.613 261.283 596.721 266.456 C600.6 275.975 604.485 285.493 608.375 295.008 C608.744 295.909 609.112 296.811 609.492 297.74 C614.894 310.949 620.34 324.14 625.813 337.32 C636.582 363.262 636.582 363.262 641.892 376.159 C642.576 377.818 643.26 379.475 643.946 381.133 C658.259 415.73 658.259 415.73 654.336 429.496 C651.488 435.88 646.904 441.348 640.47 444.295 C633.426 446.962 626.698 446.927 619.237 446.888 C617.824 446.892 616.411 446.896 614.998 446.902 C611.116 446.915 607.235 446.909 603.353 446.9 C599.13 446.893 594.906 446.903 590.683 446.912 C583.282 446.924 575.88 446.926 568.479 446.919 C557.472 446.91 546.466 446.918 535.46 446.93 C515.803 446.949 496.147 446.952 476.491 446.946 C459.289 446.942 442.088 446.943 424.886 446.948 C422.58 446.949 420.274 446.95 417.968 446.951 C414.493 446.952 411.018 446.953 407.543 446.954 C375.23 446.965 342.918 446.969 310.606 446.962 C309.388 446.961 308.169 446.961 306.914 446.961 C297.02 446.958 287.125 446.956 277.231 446.953 C238.628 446.943 200.026 446.951 161.423 446.974 C118.066 447.001 74.709 447.013 31.352 447.006 C26.731 447.006 22.11 447.005 17.489 447.004 C16.92 447.004 16.92 447.004 14.041 447.004 C-3.151 447.001 -20.343 447.009 -37.534 447.023 C-57.08 447.037 -76.625 447.038 -96.17 447.02 C-107.113 447.011 -118.056 447.012 -128.998 447.03 C-136.304 447.04 -143.609 447.036 -150.914 447.02 C-155.079 447.012 -159.244 447.009 -163.409 447.025 C-167.198 447.038 -170.988 447.034 -174.777 447.014 C-176.781 447.009 -178.784 447.023 -180.788 447.038 C-191.075 446.954 -198.55 444.606 -206.082 437.465 C-211.802 430.996 -212.555 424.102 -212.232 415.638 C-211.287 403.587 -204.849 391.404 -200.201 380.374 C-198.304 375.871 -196.425 371.361 -194.543 366.852 C-194.152 365.916 -193.761 364.981 -193.358 364.017 C-189.162 353.974 -185.048 343.898 -180.937 333.82 C-174.326 317.624 -167.668 301.448 -160.982 285.282 C-155.201 271.303 -149.446 257.314 -143.713 243.316 C-138.51 230.615 -133.264 217.933 -128 205.258 C-122.549 192.13 -117.134 178.99 -111.785 165.82 C-107.975 156.44 -104.145 147.067 -100.312 137.695 C-99.931 136.763 -99.55 135.83 -99.157 134.87 C-92.412 118.38 -85.628 101.907 -78.806 85.449 C-74.929 76.092 -71.083 66.725 -67.305 57.328 C-66.231 54.67 -65.157 52.013 -64.083 49.355 C-63.415 47.695 -62.75 46.034 -62.09 44.371 C-55.462 27.668 -47.486 10.976 -30.134 3.327 C-20.082 -0.093 -10.517 -0.053 0 0 Z M-28.848 36.684 C-33.428 43.394 -36.194 51.213 -39.25 58.695 C-39.956 60.401 -40.664 62.106 -41.372 63.811 C-46.622 76.482 -51.763 89.198 -56.891 101.919 C-62.039 114.676 -67.32 127.377 -72.625 140.07 C-79.144 155.671 -85.613 171.29 -92 186.945 C-97.727 200.985 -103.493 215.007 -109.312 229.008 C-115.193 243.156 -121.021 257.324 -126.812 271.508 C-132.629 285.753 -138.476 299.984 -144.375 314.195 C-144.723 315.034 -145.071 315.873 -145.43 316.738 C-148.605 324.388 -151.784 332.036 -154.965 339.684 C-159.929 351.619 -164.881 363.559 -169.812 375.508 C-170.172 376.378 -170.531 377.247 -170.901 378.143 C-173.046 383.34 -175.183 388.541 -177.31 393.745 C-177.971 395.361 -178.634 396.976 -179.3 398.591 C-180.216 400.815 -181.125 403.042 -182.031 405.27 C-182.3 405.918 -182.569 406.566 -182.846 407.234 C-184.352 410.966 -185.509 414.48 -185.812 418.508 C-183.181 421.139 -182.038 420.758 -178.366 420.759 C-177.783 420.761 -177.783 420.761 -174.831 420.774 C-174.184 420.771 -174.184 420.771 -170.906 420.76 C-169.521 420.762 -168.137 420.765 -166.752 420.768 C-162.916 420.776 -159.08 420.772 -155.245 420.765 C-151.083 420.76 -146.922 420.766 -142.76 420.771 C-135.457 420.779 -128.153 420.778 -120.849 420.773 C-109.989 420.766 -99.129 420.77 -88.268 420.776 C-68.876 420.786 -49.484 420.785 -30.091 420.78 C-13.121 420.774 3.849 420.773 20.819 420.776 C21.943 420.776 23.067 420.776 24.225 420.776 C28.787 420.777 33.348 420.777 37.91 420.778 C80.739 420.784 123.568 420.779 166.396 420.768 C204.481 420.758 242.565 420.759 280.65 420.769 C323.398 420.779 366.147 420.784 408.895 420.777 C413.449 420.777 418.002 420.776 422.556 420.776 C423.677 420.775 424.799 420.775 425.954 420.775 C442.917 420.773 459.88 420.775 476.843 420.781 C496.123 420.786 515.403 420.785 534.683 420.774 C545.485 420.768 556.287 420.768 567.089 420.775 C574.292 420.78 581.495 420.777 588.697 420.768 C592.809 420.763 596.922 420.762 601.034 420.769 C604.768 420.775 608.501 420.773 612.235 420.763 C614.225 420.76 616.216 420.767 618.207 420.774 C619.373 420.769 620.54 420.764 621.741 420.759 C622.753 420.758 623.764 420.758 624.806 420.758 C627.188 420.508 627.188 420.508 629.188 418.508 C628.797 412.145 625.961 405.98 623.504 400.184 C623.137 399.301 622.77 398.418 622.392 397.508 C621.185 394.61 619.967 391.715 618.75 388.82 C617.895 386.771 617.04 384.72 616.186 382.67 C614.411 378.407 612.631 374.145 610.85 369.885 C607.102 360.917 603.394 351.932 599.687 342.947 C598.493 340.054 597.299 337.161 596.104 334.268 C586.776 311.684 577.494 289.082 568.274 266.453 C560.124 246.454 551.956 226.466 543.622 206.543 C539.157 195.863 534.756 185.159 530.375 174.445 C524.654 160.457 518.851 146.505 513 132.57 C508.055 120.792 503.131 109.007 498.336 97.167 C497.57 95.275 496.801 93.384 496.032 91.493 C493.376 84.951 490.745 78.4 488.145 71.836 C486.727 68.264 485.296 64.698 483.862 61.133 C483.172 59.406 482.487 57.676 481.808 55.945 C473.987 35.994 473.987 35.994 465.585 30.944 C461.612 29.265 458.21 29.09 453.975 29.128 C453.16 29.123 452.345 29.118 451.506 29.113 C448.769 29.102 446.034 29.111 443.297 29.12 C441.318 29.116 439.339 29.111 437.359 29.104 C431.915 29.089 426.472 29.094 421.028 29.101 C415.159 29.106 409.289 29.093 403.42 29.083 C391.92 29.066 380.42 29.065 368.92 29.07 C359.574 29.074 350.228 29.073 340.883 29.068 C339.54 29.067 338.198 29.066 336.855 29.065 C334.832 29.064 332.809 29.063 330.786 29.062 C311.976 29.051 293.166 29.046 274.357 29.054 C274.002 29.054 274.002 29.054 272.208 29.055 C266.449 29.058 260.689 29.06 254.93 29.063 C232.467 29.073 210.003 29.065 187.54 29.041 C162.304 29.015 137.068 29.002 111.832 29.01 C109.142 29.01 106.451 29.011 103.76 29.012 C103.098 29.012 102.435 29.012 101.753 29.012 C91.75 29.014 81.747 29.006 71.744 28.993 C60.368 28.979 48.993 28.978 37.617 28.995 C31.812 29.004 26.006 29.006 20.201 28.991 C14.887 28.977 9.574 28.982 4.261 29.001 C2.337 29.005 0.414 29.002 -1.509 28.991 C-4.123 28.978 -6.735 28.99 -9.348 29.007 C-10.096 28.998 -10.843 28.988 -11.613 28.978 C-18.534 29.074 -24.258 31.409 -28.848 36.684 Z " fill="#000000" transform="translate(333.8123779296875,442.4920654296875)"/>
</svg>
