<?xml version="1.0" encoding="UTF-8"?>
<!-- Generator: visioncortex VTracer 0.6.12 -->
<svg version="1.1" xmlns="http://www.w3.org/2000/svg" width="256" height="256" viewBox="0 0 1254 1254" fill="none">
<path d="M0 0 C0.502 0.155 0.502 0.155 3.043 0.941 C14.022 4.64 23.721 11.057 33.608 16.976 C38.843 20.1 44.108 23.173 49.371 26.25 C52.422 28.035 55.471 29.824 58.52 31.613 C63.598 34.593 68.679 37.569 73.762 40.543 C97.007 54.148 97.007 54.148 108.167 60.893 C119.662 67.836 131.194 74.719 142.75 81.562 C143.878 82.23 145.005 82.898 146.167 83.586 C151.071 86.49 155.975 89.394 160.88 92.296 C164.9 94.675 168.919 97.055 172.938 99.438 C173.611 99.837 174.284 100.236 174.978 100.647 C184.997 106.59 194.967 112.609 204.911 118.676 C214.317 124.412 223.799 130.01 233.317 135.559 C243.009 141.213 252.624 146.984 262.203 152.827 C270.835 158.091 279.505 163.285 288.219 168.413 C293.955 171.789 299.672 175.193 305.375 178.625 C313.982 183.802 322.613 188.937 331.25 194.062 C331.927 194.464 332.603 194.866 333.301 195.28 C341.008 199.856 348.718 204.426 356.434 208.988 C363.72 213.298 370.995 217.626 378.263 221.965 C379.9 222.94 381.539 223.912 383.178 224.883 C413.43 242.84 437.284 265.077 447.812 299.5 C448.008 300.127 448.203 300.754 448.404 301.4 C452.146 314.545 452.293 328.053 452.259 341.599 C452.262 343.416 452.265 345.233 452.269 347.05 C452.278 351.941 452.275 356.831 452.269 361.722 C452.264 366.869 452.268 372.017 452.271 377.165 C452.275 385.807 452.27 394.45 452.261 403.093 C452.25 413.044 452.253 422.996 452.264 432.947 C452.274 441.532 452.275 450.117 452.27 458.701 C452.266 463.811 452.266 468.92 452.273 474.029 C452.278 478.838 452.274 483.646 452.263 488.455 C452.26 490.205 452.261 491.956 452.265 493.706 C452.343 527.281 444.56 558.35 420.344 582.82 C412.434 590.496 403.52 596.451 394.149 602.185 C389.372 605.111 384.725 608.179 380.125 611.375 C372.203 616.878 364.19 622.235 356.153 627.57 C352.87 629.75 349.591 631.938 346.312 634.125 C345.158 634.895 344.004 635.664 342.85 636.434 C340.445 638.037 338.04 639.64 335.635 641.244 C329.631 645.248 323.625 649.25 317.616 653.248 C295.876 667.71 274.196 682.258 252.566 696.885 C246.606 700.915 240.644 704.941 234.68 708.965 C233.83 709.538 232.98 710.112 232.104 710.702 C231.257 711.274 230.41 711.845 229.538 712.434 C211.62 724.522 193.715 736.63 175.826 748.762 C173.973 750.018 172.119 751.275 170.266 752.531 C157.363 761.277 144.468 770.034 131.609 778.844 C117.545 788.479 103.449 798.069 89.342 807.643 C84.222 811.12 79.11 814.609 74.02 818.129 C47.348 836.541 22.064 847.614 -10 853 C-10.794 853.134 -11.588 853.268 -12.406 853.407 C-68.205 862.276 -122.053 849.374 -167.929 817.512 C-173.665 813.529 -179.446 809.612 -185.23 805.698 C-188.186 803.697 -191.14 801.692 -194.094 799.688 C-194.674 799.294 -195.254 798.9 -195.852 798.494 C-201.738 794.501 -207.619 790.5 -213.5 786.5 C-216.592 784.397 -219.685 782.295 -222.777 780.192 C-224.992 778.685 -227.207 777.179 -229.422 775.671 C-232.968 773.259 -236.515 770.848 -240.062 768.438 C-240.648 768.04 -241.234 767.642 -241.837 767.232 C-250.089 761.627 -258.375 756.078 -266.688 750.562 C-273.361 746.134 -279.982 741.654 -286.5 737 C-293.685 731.875 -300.997 726.965 -308.353 722.089 C-315.108 717.606 -321.84 713.09 -328.555 708.547 C-348.878 694.799 -369.265 681.161 -389.77 667.685 C-401.962 659.671 -414.119 651.606 -426.25 643.5 C-438.138 635.559 -450.045 627.652 -462 619.812 C-462.657 619.382 -463.313 618.951 -463.99 618.507 C-470.538 614.213 -477.095 609.933 -483.672 605.684 C-514.301 585.882 -537.325 564.365 -545.526 527.646 C-547.364 518.059 -547.297 508.591 -547.291 498.871 C-547.297 496.961 -547.303 495.051 -547.311 493.141 C-547.328 487.981 -547.333 482.821 -547.335 477.662 C-547.336 474.428 -547.34 471.194 -547.346 467.96 C-547.364 456.649 -547.372 445.337 -547.371 434.026 C-547.369 423.531 -547.39 413.036 -547.422 402.541 C-547.448 393.492 -547.459 384.443 -547.458 375.393 C-547.457 370.006 -547.463 364.619 -547.484 359.231 C-547.504 354.155 -547.503 349.08 -547.489 344.004 C-547.487 342.158 -547.491 340.312 -547.504 338.466 C-547.719 303.779 -535.586 273.647 -511.312 248.875 C-498.68 236.426 -483.896 227.76 -468.648 218.895 C-463.124 215.678 -457.669 212.362 -452.233 208.998 C-446.821 205.654 -441.378 202.361 -435.938 199.062 C-434.721 198.324 -433.504 197.586 -432.287 196.848 C-429.772 195.322 -427.257 193.796 -424.742 192.27 C-419.982 189.383 -415.224 186.494 -410.466 183.604 C-408.15 182.198 -405.833 180.792 -403.517 179.386 C-398.208 176.164 -392.9 172.94 -387.596 169.71 C-375.559 162.379 -363.502 155.087 -351.353 147.943 C-343.99 143.606 -336.676 139.19 -329.375 134.75 C-328.786 134.392 -328.196 134.033 -327.589 133.664 C-322.237 130.409 -316.887 127.15 -311.538 123.89 C-308.11 121.8 -304.68 119.712 -301.25 117.625 C-300.679 117.278 -300.109 116.931 -299.521 116.573 C-289.379 110.408 -279.179 104.341 -268.965 98.296 C-259.503 92.694 -250.077 87.036 -240.688 81.312 C-229.256 74.345 -217.757 67.498 -206.23 60.688 C-200.911 57.543 -195.607 54.374 -190.312 51.188 C-180.128 45.059 -169.904 38.997 -159.679 32.936 C-153.149 29.064 -146.625 25.182 -140.117 21.273 C-139.804 21.085 -139.804 21.085 -138.22 20.134 C-135.569 18.543 -132.918 16.951 -130.268 15.359 C-115.102 6.289 -100.17 -0.632 -83 -5 C-81.768 -5.322 -80.535 -5.645 -79.266 -5.977 C-53.125 -11.685 -25.04 -8.699 0 0 Z M-113 43 C-113.962 43.582 -114.924 44.163 -115.916 44.762 C-120.482 47.524 -125.045 50.291 -129.6 53.071 C-138.756 58.657 -147.959 64.16 -157.188 69.625 C-159.884 71.222 -162.581 72.82 -165.277 74.418 C-165.605 74.612 -165.605 74.612 -167.26 75.593 C-176.61 81.136 -185.923 86.739 -195.238 92.34 C-197.825 93.895 -200.414 95.446 -203.004 96.996 C-213.08 103.027 -223.124 109.108 -233.157 115.209 C-243.047 121.222 -252.965 127.188 -262.895 133.135 C-272.483 138.877 -282.043 144.666 -291.588 150.481 C-301.162 156.31 -310.79 162.043 -320.438 167.75 C-330.161 173.502 -339.835 179.317 -349.419 185.299 C-356.967 190.003 -364.591 194.576 -372.224 199.14 C-380.065 203.832 -387.881 208.563 -395.688 213.312 C-404.811 218.863 -413.952 224.382 -423.114 229.87 C-426.867 232.119 -430.619 234.371 -434.37 236.623 C-437.519 238.512 -440.669 240.4 -443.82 242.285 C-473.846 260.25 -501.239 277.058 -511.875 312.625 C-515.856 330.802 -512.473 347.867 -502.785 363.554 C-493.338 377.963 -480.549 387.717 -465.978 396.637 C-459.031 400.912 -452.271 405.456 -445.5 410 C-437.618 415.286 -429.722 420.528 -421.632 425.493 C-417.401 428.101 -413.245 430.801 -409.121 433.574 C-403.685 437.213 -398.236 440.832 -392.77 444.426 C-392.414 444.66 -392.414 444.66 -390.613 445.844 C-389.122 446.823 -387.632 447.803 -386.141 448.782 C-382.022 451.489 -377.904 454.198 -373.785 456.906 C-372.919 457.476 -372.054 458.045 -371.162 458.631 C-361.638 464.895 -352.118 471.163 -342.6 477.435 C-340.732 478.666 -338.863 479.897 -336.994 481.128 C-327.696 487.251 -318.404 493.384 -309.137 499.555 C-308.416 500.034 -307.696 500.513 -306.953 501.007 C-301.68 504.524 -296.467 508.118 -291.285 511.77 C-290.531 512.176 -289.777 512.582 -289 513 C-288.01 512.67 -287.02 512.34 -286 512 C-286.023 510.964 -286.046 509.927 -286.07 508.859 C-286.089 507.49 -286.107 506.12 -286.125 504.75 C-286.133 504.409 -286.133 504.409 -286.176 502.684 C-286.212 498.978 -286.215 496.068 -284 493 C-280.896 491.742 -279.423 491.856 -276.25 492.938 C-272.899 496.009 -273.219 498.539 -273 503 C-269.09 501.355 -266.153 498.7 -263 495.938 C-257.583 491.251 -251.993 486.944 -246.168 482.777 C-245.453 482.191 -244.737 481.604 -244 481 C-244 480.34 -244 479.68 -244 479 C-246.018 478.837 -248.036 478.674 -250.055 478.512 C-252 478 -252 478 -254 475 C-253.75 471.375 -253.75 471.375 -253 468 C-250.348 466.674 -248.078 466.68 -245.117 466.465 C-243.951 466.378 -242.784 466.291 -241.582 466.201 C-240.359 466.114 -239.135 466.027 -237.875 465.938 C-236.644 465.847 -235.413 465.756 -234.145 465.662 C-231.097 465.438 -228.048 465.217 -225 465 C-227.046 462.832 -229.079 461.186 -231.605 459.609 C-232.329 459.155 -233.052 458.701 -233.797 458.233 C-234.586 457.744 -235.375 457.254 -236.188 456.75 C-237.023 456.227 -237.859 455.704 -238.72 455.165 C-240.533 454.032 -242.347 452.9 -244.161 451.77 C-247.004 449.997 -249.842 448.218 -252.68 446.438 C-263.296 439.78 -273.945 433.18 -284.625 426.625 C-292.342 421.887 -300.025 417.114 -307.621 412.184 C-311.724 409.522 -315.863 406.92 -320 404.312 C-327.94 399.307 -335.862 394.274 -343.778 389.23 C-348.28 386.363 -352.785 383.501 -357.301 380.656 C-358.146 380.124 -358.991 379.591 -359.861 379.043 C-361.431 378.055 -363.001 377.068 -364.572 376.082 C-379.141 366.912 -390.282 358.897 -394.953 341.438 C-397.128 328.944 -395.371 316.032 -388.242 305.371 C-381.778 296.866 -373.655 291.624 -364.625 286.125 C-363.725 285.573 -362.825 285.02 -361.898 284.451 C-359.954 283.258 -358.009 282.066 -356.062 280.875 C-352.923 278.953 -349.789 277.023 -346.656 275.09 C-335.351 268.117 -324.025 261.179 -312.673 254.283 C-305.536 249.944 -298.422 245.571 -291.312 241.188 C-282.166 235.55 -272.999 229.947 -263.812 224.375 C-263.225 224.018 -262.637 223.662 -262.031 223.294 C-259.122 221.53 -256.213 219.767 -253.304 218.003 C-240.281 210.107 -227.278 202.179 -214.312 194.188 C-194.808 182.168 -175.215 170.295 -155.555 158.531 C-152.815 156.889 -150.077 155.244 -147.34 153.598 C-136.043 146.806 -124.731 140.04 -113.401 133.304 C-112.034 132.492 -110.669 131.679 -109.303 130.866 C-105.494 128.599 -101.679 126.341 -97.858 124.095 C-96.609 123.359 -95.363 122.62 -94.118 121.877 C-87.318 117.819 -80.794 114.012 -73.062 112.062 C-72.373 111.868 -71.684 111.674 -70.975 111.475 C-48.242 105.259 -26.226 109.898 -6.047 121.242 C-5.041 121.822 -4.036 122.402 -3 123 C-2.444 123.32 -1.888 123.64 -1.314 123.97 C9.132 129.998 19.421 136.287 29.72 142.562 C36.998 146.994 44.295 151.384 51.688 155.625 C70.893 166.645 89.755 178.257 108.673 189.761 C114.531 193.324 120.392 196.882 126.253 200.44 C129.169 202.21 132.084 203.98 135 205.75 C136.167 206.458 137.333 207.167 138.5 207.875 C145.5 212.125 145.5 212.125 147.25 213.187 C148.417 213.896 149.584 214.605 150.751 215.313 C153.662 217.081 156.574 218.848 159.485 220.616 C164.798 223.843 170.113 227.069 175.43 230.29 C178.433 232.11 181.435 233.93 184.438 235.75 C185.028 236.108 185.618 236.465 186.226 236.834 C193.595 241.303 200.937 245.814 208.25 250.375 C217.191 255.948 226.245 261.323 235.312 266.688 C255.432 278.593 255.432 278.593 265.171 284.839 C267.261 286.165 269.368 287.461 271.477 288.758 C284.259 296.695 291.996 303.988 297.25 318.438 C300.222 332.553 298.743 344.638 291 357 C284.987 365.616 277.142 370.379 268.298 375.612 C264.152 378.116 260.113 380.784 256.062 383.438 C254.353 384.552 252.643 385.667 250.934 386.781 C250.102 387.324 249.27 387.867 248.414 388.426 C237.556 395.507 226.649 402.509 215.709 409.461 C208.693 413.92 201.688 418.393 194.688 422.875 C193.647 423.541 192.607 424.207 191.536 424.893 C188.357 426.928 185.179 428.964 182 431 C162.493 443.494 142.98 455.977 123.382 468.328 C116.838 472.458 110.325 476.634 103.812 480.812 C92.594 488.006 81.31 495.089 69.997 502.132 C65.944 504.658 61.897 507.192 57.849 509.725 C47.648 516.108 37.429 522.464 27.191 528.789 C23.57 531.027 19.953 533.273 16.34 535.523 C15.872 535.814 15.872 535.814 13.505 537.287 C11.732 538.389 9.96 539.494 8.189 540.6 C-15.322 555.208 -40.079 562.859 -67.98 556.819 C-71.043 556.027 -74.017 555.052 -77 554 C-77.483 553.842 -77.483 553.842 -79.926 553.043 C-94.02 547.838 -106.884 538.468 -119.426 530.316 C-131.04 522.771 -142.816 515.485 -154.625 508.25 C-164.462 502.221 -174.206 496.061 -183.909 489.821 C-190.843 485.367 -197.808 480.967 -204.812 476.625 C-205.684 476.083 -206.556 475.542 -207.454 474.984 C-208.26 474.486 -209.065 473.989 -209.895 473.477 C-210.594 473.044 -211.294 472.612 -212.015 472.167 C-213.972 471.017 -215.958 469.99 -218 469 C-217.99 469.736 -217.979 470.473 -217.968 471.231 C-217.927 474.571 -217.901 477.91 -217.875 481.25 C-217.858 482.409 -217.841 483.568 -217.824 484.762 C-217.818 485.877 -217.811 486.992 -217.805 488.141 C-217.794 489.167 -217.784 490.193 -217.773 491.251 C-218.005 494.065 -218.402 495.684 -220 498 C-223.257 499.062 -225.112 499.36 -228.312 498.062 C-230.895 494.906 -230.736 492.03 -231 488 C-240.887 495.316 -250.874 502.743 -260 511 C-260 511.33 -260 511.66 -260 512 C-258.742 512.062 -257.484 512.124 -256.188 512.188 C-252.909 512.601 -252.241 512.744 -249.875 515.25 C-249 518 -249 518 -249.75 520.75 C-251 523 -251 523 -252 524 C-253.34 524.156 -254.688 524.25 -256.035 524.316 C-256.844 524.358 -257.653 524.4 -258.486 524.443 C-259.336 524.483 -260.187 524.522 -261.062 524.562 C-261.917 524.606 -262.771 524.649 -263.65 524.693 C-265.767 524.8 -267.883 524.9 -270 525 C-266.736 528.558 -263.025 531.139 -259 533.75 C-257.771 534.557 -256.542 535.364 -255.312 536.172 C-254.643 536.61 -253.973 537.048 -253.283 537.5 C-244.317 543.391 -235.434 549.405 -226.562 555.438 C-224.101 557.11 -221.638 558.782 -219.176 560.453 C-218.528 560.893 -217.881 561.332 -217.214 561.785 C-208.898 567.428 -200.576 573.06 -192.25 578.688 C-191.855 578.955 -191.855 578.955 -189.854 580.307 C-179.192 587.513 -168.507 594.679 -157.79 601.801 C-152.37 605.406 -146.981 609.05 -141.625 612.75 C-139.74 614.047 -137.855 615.344 -135.97 616.641 C-134.586 617.596 -133.203 618.555 -131.823 619.516 C-98.559 642.621 -60.154 650.875 -20 644 C-9.656 642.053 0.262 639.184 10 635.188 C10.728 634.893 11.456 634.598 12.207 634.294 C18.368 631.626 23.745 627.977 29.265 624.184 C32.454 622.008 35.679 619.888 38.898 617.758 C40.3 616.827 41.701 615.896 43.102 614.965 C45.235 613.547 47.369 612.129 49.504 610.714 C58.111 605.01 66.609 599.192 74.988 593.158 C78.547 590.608 82.156 588.155 85.812 585.75 C87.331 584.744 88.849 583.737 90.367 582.73 C91.229 582.16 92.091 581.589 92.979 581.001 C98.755 577.175 104.521 573.335 110.287 569.494 C112.361 568.114 114.435 566.735 116.509 565.356 C124.612 559.965 132.667 554.508 140.694 549.004 C149.748 542.796 158.838 536.641 167.938 530.5 C168.395 530.191 168.395 530.191 170.707 528.63 C185.646 518.551 200.664 508.598 215.728 498.709 C231.672 488.24 247.507 477.616 263.279 466.891 C272.134 460.88 281.055 455.016 290.126 449.335 C297.187 444.906 304.131 440.314 311.049 435.665 C314.594 433.284 318.145 430.912 321.695 428.539 C322.403 428.066 323.111 427.592 323.841 427.105 C330.348 422.76 336.885 418.464 343.438 414.188 C343.954 413.85 343.954 413.85 346.569 412.142 C351.456 408.952 356.35 405.772 361.253 402.605 C363.605 401.085 365.955 399.561 368.304 398.036 C369.934 396.98 371.567 395.931 373.201 394.882 C393.818 381.499 410.472 365.021 416.812 340.625 C420.802 321.316 415.496 302.669 404.918 286.36 C391.367 266.632 370.627 256.077 350.465 244.355 C343.838 240.502 337.253 236.582 330.688 232.625 C321.892 227.328 313.074 222.072 304.239 216.84 C292.812 210.072 281.427 203.242 270.09 196.324 C260.681 190.587 251.197 184.987 241.676 179.437 C232.139 173.875 222.683 168.192 213.26 162.438 C204.396 157.027 195.472 151.73 186.5 146.5 C176.901 140.904 167.36 135.224 157.875 129.438 C147.602 123.171 137.283 116.993 126.922 110.872 C119.534 106.506 112.166 102.11 104.812 97.688 C94.544 91.513 84.246 85.389 73.94 79.278 C64.903 73.919 55.879 68.539 46.875 63.125 C36.426 56.847 25.965 50.591 15.444 44.434 C13.878 43.515 12.315 42.592 10.755 41.664 C-28.522 18.282 -74.062 19.337 -113 43 Z M-81.977 152.785 C-87.669 156.47 -93.492 159.933 -99.315 163.407 C-102.589 165.362 -105.861 167.322 -109.133 169.281 C-109.791 169.675 -110.448 170.069 -111.126 170.475 C-117.808 174.479 -124.469 178.516 -131.125 182.562 C-131.696 182.91 -132.267 183.257 -132.856 183.615 C-135.164 185.018 -137.471 186.421 -139.779 187.825 C-145.101 191.062 -150.426 194.294 -155.751 197.526 C-160.404 200.349 -165.055 203.174 -169.706 206 C-171.845 207.298 -173.983 208.597 -176.122 209.895 C-187.028 216.515 -197.909 223.171 -208.747 229.902 C-216.626 234.786 -224.55 239.594 -232.478 244.398 C-242.199 250.287 -251.887 256.226 -261.561 262.191 C-268.527 266.484 -275.507 270.752 -282.5 275 C-295.032 282.615 -307.52 290.301 -320 298 C-320.952 298.587 -321.904 299.174 -322.885 299.779 C-327.259 302.476 -331.628 305.18 -335.988 307.898 C-339.442 310.049 -342.92 312.149 -346.418 314.227 C-348.154 315.276 -349.889 316.325 -351.625 317.375 C-352.425 317.839 -353.226 318.302 -354.051 318.78 C-359.152 321.898 -361.323 324.205 -363 330 C-363 334.083 -362.709 336.154 -360.07 339.301 C-356.145 343.03 -351.455 345.721 -346.875 348.562 C-346.385 348.87 -346.385 348.87 -343.903 350.428 C-341.892 351.691 -339.879 352.951 -337.864 354.208 C-335.317 355.802 -332.777 357.406 -330.242 359.02 C-320.099 365.472 -309.871 371.783 -299.625 378.071 C-292.353 382.539 -285.117 387.059 -277.91 391.633 C-272.132 395.296 -266.322 398.906 -260.5 402.5 C-253.097 407.07 -245.724 411.684 -238.375 416.34 C-231.932 420.418 -225.469 424.463 -219 428.5 C-211.821 432.981 -204.651 437.474 -197.5 442 C-187.386 448.4 -177.234 454.739 -167.081 461.077 C-161.056 464.838 -155.034 468.603 -149.012 472.368 C-143.95 475.532 -138.888 478.695 -133.824 481.855 C-131.779 483.133 -129.733 484.41 -127.688 485.688 C-126.685 486.313 -125.683 486.939 -124.651 487.584 C-119.334 490.906 -114.028 494.244 -108.735 497.605 C-100.818 502.628 -92.864 507.591 -84.875 512.5 C-83.927 513.088 -82.979 513.676 -82.002 514.281 C-66.614 523.69 -51.124 528.062 -33.031 524.301 C-22.872 521.33 -14.51 515.583 -5.762 509.798 C-0.615 506.448 4.636 503.267 9.875 500.062 C12.11 498.69 14.344 497.318 16.578 495.945 C17.663 495.279 18.748 494.613 19.865 493.927 C34.94 484.661 49.952 475.294 64.952 465.907 C68.969 463.394 72.988 460.882 77.007 458.37 C79.003 457.123 80.999 455.875 82.995 454.628 C88.018 451.487 93.043 448.349 98.07 445.215 C109.674 437.978 121.24 430.686 132.77 423.332 C137.671 420.207 142.583 417.1 147.5 414 C157.077 407.959 166.629 401.879 176.18 395.795 C179.015 393.991 181.851 392.188 184.688 390.387 C193.734 384.64 202.765 378.872 211.753 373.033 C216.85 369.729 221.982 366.483 227.125 363.25 C234.566 358.559 241.984 353.833 249.375 349.062 C250.356 348.436 251.337 347.809 252.348 347.163 C263.938 339.649 263.938 339.649 265.812 334.973 C265.874 334.342 265.936 333.712 266 333.062 C266.082 332.435 266.165 331.807 266.25 331.16 C265.765 326.968 263.954 323.785 260.717 321.12 C259.822 320.589 258.926 320.058 258.004 319.512 C256.985 318.897 255.965 318.282 254.915 317.648 C253.809 317.001 252.702 316.354 251.562 315.688 C250.398 314.991 249.234 314.293 248.071 313.594 C245.628 312.128 243.18 310.67 240.729 309.217 C237.09 307.059 233.472 304.869 229.859 302.668 C229.276 302.313 228.694 301.958 228.093 301.592 C226.919 300.877 225.746 300.162 224.572 299.446 C221.639 297.661 218.702 295.881 215.766 294.102 C201.441 285.419 187.13 276.717 172.897 267.885 C162.638 261.525 152.319 255.263 142 249 C139.768 247.645 137.536 246.289 135.305 244.934 C129.996 241.71 124.687 238.487 119.378 235.264 C114.082 232.05 108.786 228.834 103.49 225.619 C101.159 224.203 98.828 222.788 96.497 221.374 C91.264 218.197 86.031 215.02 80.801 211.838 C64.348 201.829 47.853 191.891 31.331 181.995 C27.575 179.745 23.821 177.494 20.067 175.241 C18.495 174.297 16.923 173.354 15.351 172.412 C10.825 169.698 6.303 166.977 1.785 164.25 C-17.261 152.764 -17.261 152.764 -26.125 147.688 C-26.733 147.333 -27.341 146.978 -27.968 146.613 C-46.1 136.37 -65.735 142.225 -81.977 152.785 Z M-514 402 C-514.094 416.44 -514.164 430.879 -514.207 445.319 C-514.228 452.026 -514.256 458.732 -514.302 465.439 C-514.346 471.923 -514.369 478.406 -514.38 484.891 C-514.387 487.352 -514.401 489.814 -514.423 492.275 C-514.565 509.044 -514.468 525.811 -505.938 540.812 C-505.555 541.508 -505.172 542.204 -504.777 542.921 C-497.013 556.438 -485.212 565.497 -472.25 573.75 C-470.49 574.882 -468.731 576.015 -466.973 577.148 C-466.021 577.76 -465.07 578.372 -464.09 579.003 C-458.897 582.359 -453.729 585.754 -448.56 589.146 C-445.411 591.213 -442.26 593.279 -439.109 595.344 C-438.493 595.748 -437.877 596.151 -437.243 596.567 C-432.838 599.453 -428.427 602.329 -424.012 605.2 C-411.602 613.273 -399.238 621.417 -386.875 629.562 C-385.95 630.171 -385.026 630.78 -384.073 631.408 C-371.461 639.716 -358.877 648.065 -346.318 656.452 C-343.035 658.645 -339.75 660.834 -336.465 663.023 C-310.941 680.039 -310.941 680.039 -307.941 682.04 C-306.04 683.307 -304.139 684.572 -302.237 685.837 C-292.92 692.035 -283.648 698.299 -274.375 704.562 C-272.604 705.758 -270.834 706.954 -269.063 708.149 C-263.708 711.766 -258.354 715.383 -253 719 C-252.19 719.547 -251.381 720.094 -250.546 720.658 C-233.536 732.15 -216.534 743.655 -199.583 755.236 C-196.835 757.113 -194.086 758.986 -191.336 760.859 C-183.276 766.35 -175.218 771.842 -167.188 777.375 C-160.75 781.807 -154.3 786.22 -147.842 790.622 C-146.241 791.713 -144.641 792.807 -143.042 793.9 C-124.835 806.297 -107.579 815.214 -85.812 819.312 C-84.923 819.484 -84.033 819.656 -83.116 819.832 C-78.253 820.689 -73.601 821.082 -68.659 821.044 C-67.594 821.037 -66.53 821.031 -65.433 821.025 C-64.63 821.016 -63.827 821.008 -63 821 C-62.953 802.65 -62.918 784.301 -62.896 765.951 C-62.886 757.432 -62.872 748.912 -62.849 740.393 C-62.829 732.969 -62.816 725.545 -62.812 718.122 C-62.809 714.189 -62.803 710.257 -62.789 706.324 C-62.775 702.626 -62.771 698.927 -62.774 695.229 C-62.773 693.218 -62.762 691.208 -62.751 689.197 C-62.753 688.602 -62.753 688.602 -62.759 685.593 C-62.758 684.555 -62.756 683.518 -62.754 682.448 C-63 680 -63 680 -65 678 C-67.312 677.485 -67.312 677.485 -70.215 677.105 C-71.284 676.957 -72.354 676.809 -73.455 676.657 C-74.604 676.502 -75.754 676.347 -76.938 676.188 C-103.574 672.312 -127.031 664.378 -148.874 648.391 C-154.94 643.973 -161.184 639.833 -167.438 635.688 C-177.221 629.195 -186.972 622.656 -196.688 616.062 C-199.286 614.299 -201.885 612.536 -204.484 610.773 C-205.155 610.318 -205.826 609.863 -206.517 609.395 C-215.483 603.314 -224.459 597.25 -233.438 591.188 C-234.3 590.605 -235.163 590.023 -236.051 589.423 C-246.785 582.177 -257.535 574.958 -268.322 567.792 C-276.414 562.409 -284.458 556.958 -292.5 551.5 C-302.325 544.832 -312.172 538.201 -322.063 531.632 C-328.561 527.309 -335.036 522.955 -341.5 518.582 C-364.876 502.772 -388.356 487.134 -411.946 471.644 C-417.493 467.998 -423.022 464.326 -428.541 460.637 C-435.128 456.239 -441.754 451.899 -448.378 447.558 C-454.501 443.542 -460.618 439.515 -466.735 435.49 C-468.942 434.038 -471.151 432.587 -473.359 431.137 C-476.772 428.894 -480.181 426.644 -483.587 424.39 C-484.839 423.562 -486.093 422.736 -487.348 421.913 C-494.429 417.265 -501.193 412.403 -507.678 406.941 C-509.739 405.218 -511.845 403.602 -514 402 Z M411.672 407.637 C402.854 415.317 393.045 421.469 383.25 427.812 C381.275 429.101 379.3 430.391 377.326 431.682 C374.348 433.629 371.369 435.576 368.388 437.519 C360.053 442.954 351.768 448.463 343.5 454 C334.587 459.962 325.656 465.895 316.695 471.785 C315.798 472.375 314.901 472.965 313.977 473.572 C312.129 474.787 310.281 476.002 308.434 477.216 C290.891 488.749 273.438 500.404 256.048 512.165 C243.334 520.762 230.586 529.305 217.812 537.812 C216.919 538.408 216.025 539.003 215.103 539.617 C207.254 544.845 199.402 550.069 191.547 555.289 C177.876 564.38 164.266 573.561 150.661 582.751 C140.441 589.654 130.21 596.54 119.941 603.371 C119.498 603.666 119.498 603.666 117.257 605.157 C113.057 607.95 108.855 610.74 104.65 613.525 C97.64 618.176 90.717 622.883 83.946 627.88 C77.924 632.214 71.731 636.303 65.558 640.418 C63.199 641.992 60.845 643.574 58.49 645.156 C46.168 653.403 33.831 661.578 19.797 666.633 C19.163 666.861 18.53 667.09 17.877 667.325 C17.258 667.548 16.638 667.771 16 668 C15.425 668.215 15.425 668.215 12.516 669.305 C2.116 672.898 -8.577 674.656 -19.413 676.389 C-20.636 676.585 -21.86 676.782 -23.121 676.984 C-23.675 677.071 -23.675 677.071 -26.478 677.507 C-29 678 -29 678 -30 679 C-30.096 680.835 -30.122 682.674 -30.12 684.511 C-30.122 685.707 -30.123 686.903 -30.124 688.136 C-30.121 689.474 -30.117 690.811 -30.114 692.149 C-30.113 693.548 -30.113 694.947 -30.114 696.346 C-30.114 700.156 -30.108 703.966 -30.101 707.775 C-30.095 711.753 -30.095 715.73 -30.093 719.707 C-30.09 727.243 -30.082 734.78 -30.072 742.316 C-30.061 750.894 -30.055 759.472 -30.05 768.05 C-30.04 785.7 -30.022 803.35 -30 821 C-25.663 822.446 -21.967 821.53 -17.5 820.875 C-16.565 820.738 -15.631 820.601 -14.667 820.46 C9.236 816.756 30.153 808.659 49.678 794.307 C55.556 789.997 61.546 785.895 67.625 781.875 C73.887 777.733 80.133 773.576 86.312 769.312 C86.962 768.864 87.612 768.416 88.281 767.955 C90.188 766.637 92.094 765.319 94 764 C104.521 756.732 115.092 749.536 125.677 742.361 C132.775 737.55 139.868 732.729 146.938 727.875 C160.001 718.917 173.144 710.075 186.275 701.216 C191.449 697.724 196.619 694.228 201.788 690.728 C221.694 677.252 241.665 663.884 261.758 650.689 C276.3 641.137 290.75 631.456 305.156 621.702 C319.14 612.237 333.202 602.899 347.312 593.625 C410.452 552.09 410.452 552.09 417.614 518.191 C418.723 511.89 418.606 505.491 418.609 499.113 C418.624 497.521 418.641 495.928 418.659 494.336 C418.703 490.166 418.723 485.997 418.738 481.827 C418.757 477.714 418.8 473.6 418.84 469.486 C419.042 447.325 419.032 425.162 419 403 C415.777 403 413.967 405.57 411.672 407.637 Z " fill="#000000" transform="translate(678,193)"/>
</svg>
