<?xml version="1.0" encoding="UTF-8"?>
<!-- Generator: visioncortex VTracer 0.6.12 -->
<svg version="1.1" xmlns="http://www.w3.org/2000/svg" width="256" height="256" viewBox="0 0 1047 1047" fill="none">
<path d="M0 0 C1.583 0.306 3.166 0.611 4.749 0.916 C10.516 2.032 16.28 3.168 22.043 4.305 C24.421 4.773 26.799 5.241 29.176 5.709 C49.512 9.714 69.84 13.757 90.168 17.805 C91.77 18.124 93.372 18.443 94.974 18.762 C99.84 19.73 104.705 20.699 109.571 21.668 C110.379 21.829 111.188 21.99 112.021 22.156 C114.478 22.645 116.935 23.134 119.392 23.624 C119.798 23.704 119.798 23.704 121.853 24.114 C125.963 24.932 130.074 25.751 134.184 26.57 C154.969 30.711 175.758 34.831 196.552 38.923 C205.246 40.634 213.937 42.353 222.629 44.074 C228.859 45.307 235.09 46.535 241.324 47.753 C247.104 48.882 252.881 50.023 258.657 51.173 C260.744 51.586 262.832 51.995 264.92 52.399 C279.225 55.17 292.284 58.161 304.043 67.305 C304.658 67.782 305.273 68.259 305.906 68.75 C317.259 78.769 320.085 94.853 323.215 108.902 C323.667 110.869 324.121 112.836 324.576 114.802 C325.761 119.941 326.925 125.084 328.084 130.229 C329.262 135.44 330.46 140.647 331.656 145.854 C333.603 154.338 335.536 162.825 337.457 171.315 C338.967 177.982 340.497 184.645 342.043 191.305 C350.34 193.441 358.645 195.478 367.023 197.27 C367.778 197.432 368.532 197.594 369.31 197.761 C372.392 198.424 375.474 199.084 378.56 199.729 C392.773 202.71 405.389 206.182 417.043 215.305 C417.569 215.686 417.569 215.686 420.23 217.617 C431.267 228.164 435.341 242.622 439.676 256.828 C440.109 258.232 440.543 259.635 440.977 261.039 C442.139 264.8 443.293 268.564 444.447 272.328 C445.67 276.316 446.9 280.302 448.129 284.289 C450.39 291.629 452.646 298.971 454.898 306.314 C456.46 311.406 458.024 316.497 459.589 321.588 C464.884 338.805 470.157 356.028 475.417 373.255 C476.06 375.359 476.702 377.463 477.345 379.567 C482.708 397.126 488.059 414.688 493.385 432.259 C495.7 439.894 498.028 447.526 500.37 455.154 C501.696 459.481 503.012 463.81 504.325 468.141 C504.916 470.083 505.511 472.024 506.112 473.963 C512.322 494.033 516.017 511.652 506.043 531.305 C501.15 540.192 493.901 546.156 486.043 552.305 C485.503 552.727 484.964 553.15 484.408 553.586 C481.736 555.669 479.049 557.731 476.352 559.781 C472.932 562.382 469.546 565.024 466.168 567.68 C465.59 568.134 465.012 568.588 464.417 569.056 C460.085 572.469 455.781 575.915 451.48 579.367 C446.328 583.503 441.132 587.574 435.884 591.588 C430.151 595.977 424.48 600.445 418.809 604.914 C415.889 607.213 412.966 609.509 410.043 611.805 C408.876 612.721 407.71 613.638 406.543 614.555 C371.543 642.055 371.543 642.055 369.793 643.429 C368.626 644.347 367.458 645.264 366.291 646.182 C363.388 648.463 360.484 650.743 357.578 653.02 C352.226 657.215 346.886 661.423 341.588 665.686 C334.927 671.043 328.185 676.277 321.38 681.449 C316.714 685.003 312.109 688.623 307.543 692.305 C301.566 697.125 295.492 701.804 289.379 706.449 C284.713 710.004 280.109 713.623 275.543 717.305 C269.543 722.142 263.46 726.858 257.313 731.506 C253.951 734.054 250.625 736.624 247.383 739.324 C228.023 755.369 205.878 759.948 181.043 758.305 C177.314 757.795 173.658 757.051 169.98 756.258 C169.45 756.148 169.45 756.148 166.768 755.59 C163.19 754.841 159.616 754.075 156.043 753.305 C154.76 753.03 153.477 752.755 152.156 752.472 C142.56 750.416 132.972 748.321 123.386 746.22 C119.126 745.287 114.867 744.357 110.607 743.426 C103.389 741.849 96.172 740.271 88.955 738.691 C78.398 736.381 67.84 734.077 57.281 731.773 C27.035 725.174 -3.21 718.567 -33.449 711.938 C-35.557 711.475 -37.665 711.013 -39.772 710.551 C-41.904 710.084 -44.035 709.617 -46.167 709.15 C-49.405 708.44 -52.644 707.73 -55.883 707.02 C-58.058 706.543 -60.233 706.066 -62.407 705.589 C-100.063 697.335 -137.728 689.123 -175.396 680.927 C-210.914 673.199 -246.43 665.467 -281.932 657.672 C-284.387 657.133 -286.842 656.594 -289.297 656.055 C-290.071 655.885 -290.845 655.715 -291.642 655.54 C-293.169 655.205 -294.696 654.87 -296.223 654.535 C-299.86 653.736 -303.496 652.934 -307.131 652.125 C-313.792 650.645 -320.455 649.192 -327.141 647.827 C-330.377 647.164 -333.609 646.484 -336.84 645.802 C-338.359 645.486 -339.879 645.178 -341.4 644.879 C-356.834 641.842 -372.215 636.366 -381.957 623.305 C-392.44 606.625 -392.81 590.395 -388.599 571.646 C-386.996 564.695 -385.29 557.769 -383.57 550.846 C-382.53 546.64 -381.514 542.429 -380.496 538.218 C-378.819 531.291 -377.13 524.367 -375.433 517.445 C-373.115 507.981 -370.841 498.507 -368.586 489.027 C-368.414 488.306 -368.243 487.584 -368.066 486.841 C-367.384 483.977 -366.703 481.112 -366.022 478.248 C-364.208 470.617 -362.384 462.988 -360.559 455.359 C-360.243 454.04 -359.928 452.721 -359.612 451.402 C-358.727 447.703 -357.842 444.004 -356.957 440.305 C-356.451 438.192 -355.946 436.079 -355.44 433.966 C-355.206 432.987 -354.972 432.009 -354.731 431.001 C-353.835 427.254 -352.938 423.507 -352.042 419.76 C-351.613 417.97 -351.185 416.18 -350.757 414.389 C-348.048 403.074 -345.35 391.755 -342.661 380.435 C-342.159 378.323 -341.657 376.212 -341.155 374.1 C-340.989 373.401 -340.823 372.701 -340.651 371.98 C-340.315 370.563 -339.978 369.146 -339.641 367.73 C-338.823 364.288 -338.006 360.845 -337.19 357.403 C-335.406 349.878 -333.614 342.355 -331.806 334.835 C-331.241 332.487 -330.678 330.137 -330.117 327.788 C-329.327 324.487 -328.527 321.188 -327.723 317.891 C-327.493 316.925 -327.263 315.959 -327.027 314.963 C-322.96 298.459 -313.794 288.231 -300.652 278.172 C-297.077 275.425 -293.631 272.549 -290.207 269.617 C-284.878 265.065 -279.453 260.654 -273.957 256.305 C-272.373 255.034 -270.79 253.764 -269.207 252.492 C-264.659 248.852 -260.077 245.255 -255.492 241.662 C-251.022 238.153 -246.579 234.61 -242.145 231.055 C-240.304 229.582 -238.463 228.109 -236.621 226.637 C-235.106 225.424 -233.594 224.208 -232.082 222.992 C-231.278 222.353 -230.473 221.713 -229.645 221.055 C-229.306 220.784 -229.306 220.784 -227.594 219.414 C-225.957 218.305 -225.957 218.305 -223.957 218.305 C-223.797 217.376 -223.637 216.448 -223.472 215.491 C-221.352 203.286 -219.079 191.111 -216.733 178.947 C-216.298 176.679 -215.867 174.411 -215.442 172.141 C-210.656 146.639 -204.053 131.293 -184.055 114.117 C-181.658 112.046 -179.307 109.929 -176.957 107.805 C-174.042 105.173 -171.114 102.562 -168.145 99.992 C-163.926 96.322 -159.839 92.514 -155.74 88.712 C-152.204 85.439 -148.625 82.23 -144.98 79.078 C-142.442 76.853 -139.951 74.58 -137.457 72.305 C-134.338 69.459 -131.209 66.633 -128.02 63.867 C-124.125 60.482 -120.327 56.994 -116.529 53.501 C-109.765 47.284 -102.937 41.145 -96.012 35.109 C-91.107 30.801 -86.267 26.417 -81.449 22.012 C-78.97 19.754 -76.47 17.524 -73.957 15.305 C-73.19 14.612 -72.423 13.92 -71.633 13.207 C-50.896 -4.582 -25.54 -5.028 0 0 Z M-58.957 45.305 C-60.119 46.376 -61.283 47.445 -62.449 48.512 C-64.662 50.54 -66.867 52.578 -69.062 54.625 C-71.998 57.343 -74.984 59.987 -78.008 62.605 C-82.038 66.119 -85.988 69.722 -89.957 73.305 C-92.454 75.553 -94.952 77.8 -97.449 80.047 C-99.143 81.572 -100.836 83.098 -102.527 84.625 C-106.294 88.023 -110.066 91.413 -113.895 94.742 C-118.09 98.395 -122.191 102.15 -126.301 105.898 C-129.124 108.456 -131.988 110.962 -134.863 113.461 C-137.421 115.713 -139.939 118.008 -142.457 120.305 C-146.221 123.737 -150.018 127.12 -153.863 130.461 C-157.374 133.552 -160.818 136.717 -164.262 139.883 C-166.646 142.025 -169.093 144.038 -171.582 146.055 C-174.067 148.242 -174.961 149.313 -176.332 152.43 C-175.871 155.963 -174.532 157.003 -171.797 159.154 C-168.583 161.164 -165.208 161.803 -161.523 162.523 C-160.685 162.702 -159.847 162.881 -158.983 163.066 C-156.165 163.663 -153.343 164.233 -150.52 164.805 C-148.462 165.235 -146.404 165.667 -144.346 166.1 C-138.721 167.279 -133.09 168.436 -127.459 169.587 C-121.67 170.773 -115.884 171.976 -110.098 173.176 C-102.525 174.744 -94.952 176.309 -87.377 177.865 C-66.764 182.099 -46.16 186.379 -25.561 190.682 C-19.784 191.889 -14.007 193.094 -8.229 194.298 C11.669 198.442 31.56 202.618 51.434 206.876 C57.367 208.145 63.302 209.407 69.237 210.668 C74.856 211.863 80.472 213.071 86.087 214.29 C89.562 215.041 93.041 215.779 96.52 216.514 C98.114 216.854 99.708 217.199 101.3 217.549 C127.628 223.34 127.628 223.34 139.043 217.305 C141.392 215.671 143.497 213.861 145.605 211.93 C146.822 210.853 148.038 209.776 149.254 208.699 C149.875 208.142 150.496 207.585 151.136 207.01 C154.303 204.177 157.518 201.399 160.73 198.617 C161.359 198.07 161.988 197.524 162.636 196.96 C167.182 193.016 171.822 189.201 176.5 185.414 C179.936 182.564 183.217 179.557 186.516 176.551 C189.113 174.243 191.777 172.049 194.48 169.867 C198.284 166.791 201.944 163.617 205.543 160.305 C209.911 156.289 214.411 152.511 219.027 148.785 C222.59 145.855 226.068 142.837 229.543 139.805 C233.825 136.07 238.126 132.38 242.543 128.805 C248.202 124.218 253.688 119.445 259.18 114.66 C261.753 112.419 264.339 110.193 266.938 107.98 C267.564 107.447 268.191 106.913 268.837 106.363 C270.019 105.357 271.203 104.353 272.388 103.35 C275.767 100.472 278.944 97.484 282.043 94.305 C280.568 90.416 278.686 89.192 275.043 87.305 C272.114 86.485 272.114 86.485 268.801 85.844 C267.534 85.594 266.266 85.344 264.96 85.087 C263.553 84.82 262.146 84.552 260.738 84.285 C259.237 83.993 257.735 83.699 256.234 83.405 C252.959 82.764 249.683 82.13 246.405 81.5 C241.053 80.472 235.704 79.429 230.355 78.384 C224.531 77.246 218.707 76.11 212.882 74.977 C191.989 70.914 171.11 66.78 150.232 62.637 C143.216 61.245 136.199 59.856 129.182 58.469 C105.376 53.763 81.577 49.022 57.798 44.176 C50.865 42.764 43.93 41.359 36.996 39.953 C30.459 38.627 23.925 37.288 17.393 35.939 C13.366 35.111 9.337 34.294 5.307 33.481 C3.461 33.106 1.615 32.725 -0.229 32.339 C-24.008 27.368 -40.723 28.055 -58.957 45.305 Z M293.043 127.305 C286.348 132.715 279.765 138.233 273.247 143.854 C269.64 146.957 265.992 149.998 262.293 152.992 C257.911 156.547 253.726 160.272 249.555 164.07 C247.041 166.306 244.47 168.438 241.855 170.555 C235.416 175.77 229.188 181.218 222.939 186.658 C219.964 189.241 216.973 191.805 213.98 194.367 C213.406 194.859 212.832 195.35 212.241 195.857 C209.932 197.833 207.623 199.809 205.313 201.784 C198.706 207.438 192.111 213.106 185.543 218.805 C184.289 219.891 183.035 220.977 181.781 222.062 C179.294 224.217 176.813 226.38 174.336 228.547 C167.823 234.22 161.279 239.557 154.043 244.305 C153.548 244.635 153.548 244.635 151.043 246.305 C152.703 265.097 154.816 283.841 156.929 302.586 C157.344 306.267 157.752 309.948 158.157 313.63 C158.65 318.123 159.152 322.614 159.661 327.105 C159.853 328.807 160.041 330.508 160.226 332.21 C160.482 334.565 160.75 336.919 161.021 339.272 C161.095 339.975 161.169 340.677 161.245 341.4 C161.441 343.045 161.732 344.678 162.043 346.305 C162.703 346.635 163.363 346.965 164.043 347.305 C177.244 337.942 189.904 327.856 202.501 317.702 C206.922 314.156 211.429 310.743 215.98 307.367 C222.209 302.745 228.258 297.939 234.254 293.02 C238.298 289.707 242.385 286.474 246.543 283.305 C251.454 279.561 256.263 275.714 261.043 271.805 C265.845 267.879 270.673 264.003 275.605 260.242 C280.948 256.168 286.202 251.995 291.435 247.781 C296.63 243.608 301.913 239.563 307.238 235.559 C308.164 234.815 309.089 234.071 310.043 233.305 C310.516 232.938 310.516 232.938 312.91 231.082 C315.914 227.171 315.402 224.092 315.043 219.305 C314.597 216.216 313.942 213.2 313.239 210.161 C313.047 209.296 312.855 208.432 312.657 207.541 C312.027 204.712 311.383 201.888 310.738 199.062 C310.294 197.087 309.85 195.112 309.407 193.136 C308.48 189.011 307.547 184.888 306.608 180.766 C305.404 175.479 304.215 170.189 303.03 164.897 C302.117 160.825 301.198 156.754 300.276 152.683 C299.835 150.732 299.396 148.781 298.958 146.829 C298.347 144.109 297.728 141.39 297.106 138.672 C296.926 137.865 296.746 137.058 296.561 136.226 C295.76 132.759 295.037 130.296 293.043 127.305 Z M-184.957 188.305 C-187.213 197.872 -189.286 207.472 -191.277 217.098 C-191.428 217.823 -191.578 218.549 -191.733 219.297 C-192.527 223.127 -193.319 226.958 -194.11 230.789 C-194.92 234.713 -195.736 238.636 -196.554 242.559 C-197.189 245.61 -197.819 248.662 -198.448 251.714 C-198.747 253.16 -199.048 254.606 -199.35 256.051 C-203.69 276.819 -203.69 276.819 -202.344 281.385 C-199.088 285.892 -193.458 286.833 -188.287 287.892 C-187.642 288.026 -186.998 288.161 -186.334 288.299 C-184.197 288.742 -182.058 289.174 -179.918 289.605 C-178.389 289.92 -176.861 290.236 -175.332 290.552 C-171.2 291.405 -167.065 292.247 -162.93 293.088 C-158.536 293.983 -154.145 294.888 -149.753 295.792 C-142.56 297.272 -135.367 298.746 -128.172 300.216 C-119.264 302.036 -110.358 303.865 -101.453 305.699 C-100.806 305.832 -100.159 305.966 -99.493 306.103 C-96.232 306.775 -92.971 307.446 -89.71 308.118 C-86.385 308.803 -83.059 309.487 -79.733 310.17 C-53.392 315.584 -27.062 321.053 -0.732 326.523 C31.749 333.27 64.232 340.011 96.727 346.691 C99.096 347.178 101.464 347.665 103.833 348.153 C107.461 348.899 111.09 349.645 114.719 350.39 C116.648 350.786 118.577 351.182 120.506 351.579 C121.629 351.81 122.753 352.04 123.91 352.277 C124.885 352.477 125.86 352.677 126.865 352.883 C129.043 353.305 129.043 353.305 130.043 353.305 C130.13 347.239 129.857 341.396 129.141 335.376 C129.045 334.534 128.949 333.692 128.85 332.825 C128.535 330.073 128.213 327.322 127.891 324.57 C127.668 322.645 127.447 320.719 127.225 318.793 C126.762 314.772 126.295 310.751 125.825 306.73 C125.224 301.58 124.629 296.43 124.037 291.279 C123.579 287.309 123.12 283.339 122.66 279.368 C122.44 277.469 122.22 275.57 122.001 273.67 C121.694 271.019 121.385 268.367 121.074 265.716 C121.03 265.325 121.03 265.325 120.802 263.348 C120.364 259.627 119.85 255.964 119.043 252.305 C118.418 252.181 118.418 252.181 115.256 251.554 C84.057 245.368 52.903 238.987 21.779 232.436 C16.094 231.24 10.409 230.047 4.724 228.854 C-6.696 226.456 -18.117 224.056 -29.537 221.655 C-43.636 218.69 -57.737 215.728 -71.837 212.767 C-76.012 211.89 -80.186 211.013 -84.36 210.136 C-100.357 206.772 -116.355 203.418 -132.367 200.131 C-134.458 199.701 -136.549 199.272 -138.64 198.842 C-144.954 197.544 -151.269 196.252 -157.586 194.968 C-159.771 194.521 -161.956 194.073 -164.141 193.625 C-164.62 193.529 -164.62 193.529 -167.048 193.04 C-173.132 191.787 -179.038 190.187 -184.957 188.305 Z M348.043 226.305 C347.752 227.355 347.46 228.406 347.16 229.488 C341.97 247.553 332.268 256.565 317.357 267.577 C312.415 271.236 307.609 275.029 302.855 278.93 C297.577 283.259 292.251 287.504 286.824 291.646 C282.975 294.583 279.158 297.557 275.355 300.555 C269.958 304.809 264.536 309.03 259.105 313.242 C253.444 317.635 247.816 322.065 242.23 326.555 C237.25 330.557 232.233 334.5 227.158 338.383 C222.515 341.934 217.903 345.524 213.293 349.117 C185.448 370.785 163.058 387.57 126.043 384.305 C113.502 382.656 101.119 379.725 88.767 377.055 C83.749 375.977 78.725 374.929 73.701 373.878 C66.031 372.271 58.364 370.656 50.698 369.031 C34.748 365.651 18.783 362.346 2.812 359.062 C1.526 358.798 0.239 358.533 -1.087 358.261 C-5.685 357.315 -10.283 356.37 -14.881 355.425 C-24.859 353.374 -34.836 351.316 -44.811 349.252 C-45.472 349.115 -46.132 348.978 -46.813 348.837 C-50.154 348.146 -53.495 347.455 -56.837 346.764 C-77.648 342.457 -98.465 338.173 -119.288 333.925 C-127.693 332.21 -136.096 330.487 -144.498 328.762 C-151.784 327.268 -159.073 325.783 -166.362 324.307 C-170.841 323.397 -175.318 322.477 -179.795 321.554 C-181.851 321.132 -183.908 320.715 -185.966 320.302 C-203.537 316.772 -218.095 313.157 -229.395 298.055 C-235.453 288.124 -235.351 277.511 -233.957 266.305 C-244.869 274.38 -255.462 282.856 -265.968 291.449 C-269.263 294.139 -272.574 296.799 -275.941 299.398 C-276.576 299.889 -277.21 300.379 -277.863 300.885 C-279.052 301.8 -280.244 302.711 -281.441 303.615 C-284.8 306.203 -287.555 308.8 -289.957 312.305 C-290.207 315.242 -290.207 315.242 -288.957 318.305 C-279.159 329.273 -259.296 330.187 -245.753 332.817 C-239.731 333.988 -233.713 335.18 -227.695 336.373 C-226.262 336.657 -224.83 336.941 -223.397 337.225 C-207.135 340.446 -190.903 343.806 -174.674 347.191 C-172.319 347.682 -169.964 348.173 -167.61 348.664 C-160.078 350.232 -152.547 351.802 -145.016 353.373 C-122.206 358.131 -99.395 362.877 -76.582 367.617 C-75.429 367.857 -74.276 368.096 -73.088 368.343 C-45.05 374.169 -17.008 379.961 11.084 385.526 C28.9 389.058 46.692 392.7 64.48 396.367 C65.203 396.516 65.926 396.665 66.671 396.819 C82.058 399.99 97.441 403.175 112.82 406.383 C113.953 406.619 115.085 406.855 116.252 407.099 C121.471 408.188 126.69 409.279 131.908 410.373 C132.832 410.567 133.757 410.76 134.709 410.96 C136.4 411.313 138.09 411.668 139.781 412.024 C157.657 415.761 176.699 416.804 193.004 407.359 C199.023 403.29 204.523 398.561 210.096 393.909 C212.902 391.597 215.775 389.381 218.668 387.18 C223.155 383.756 227.611 380.299 232.043 376.805 C236.521 373.275 241.018 369.773 245.543 366.305 C252.423 361.03 259.234 355.67 266.043 350.305 C274.463 343.673 282.906 337.072 291.37 330.497 C295.938 326.946 300.497 323.384 305.043 319.805 C312.58 313.872 320.154 307.987 327.729 302.103 C331.501 299.172 335.272 296.238 339.043 293.305 C340.543 292.138 342.043 290.971 343.543 289.805 C344.285 289.227 345.028 288.65 345.793 288.055 C352.543 282.805 352.543 282.805 354.795 281.053 C356.288 279.892 357.782 278.73 359.275 277.568 C363.123 274.574 366.973 271.583 370.824 268.594 C374.589 265.672 378.349 262.746 382.106 259.814 C383.319 258.869 384.534 257.925 385.75 256.982 C387.164 255.886 388.572 254.783 389.98 253.68 C390.711 253.11 391.442 252.54 392.195 251.953 C394.156 250.204 395.633 248.523 397.043 246.305 C397.168 243.367 397.168 243.367 396.043 240.305 C390.462 234.587 383.087 233.505 375.529 231.854 C372.752 231.24 369.984 230.595 367.215 229.945 C365.22 229.481 363.225 229.017 361.23 228.555 C360.269 228.332 359.308 228.109 358.318 227.879 C357.416 227.674 356.515 227.469 355.586 227.258 C355.184 227.166 355.184 227.166 353.149 226.7 C351.043 226.305 351.043 226.305 348.043 226.305 Z M406.48 281.055 C401.905 284.834 397.243 288.452 392.48 291.992 C386.635 296.341 380.848 300.758 375.105 305.242 C369.275 309.795 363.426 314.32 357.543 318.805 C349.428 324.994 341.37 331.254 333.322 337.53 C331.028 339.316 328.732 341.098 326.434 342.879 C319.385 348.344 312.361 353.831 305.418 359.43 C299.716 364.025 293.898 368.44 288.021 372.807 C282.84 376.671 277.786 380.674 272.758 384.734 C268.078 388.504 263.328 392.17 258.543 395.805 C253.093 399.948 247.692 404.141 242.355 408.43 C241.743 408.921 241.131 409.413 240.5 409.919 C239.283 410.898 238.065 411.876 236.847 412.855 C214.373 430.913 214.373 430.913 202.329 437.44 C201.339 437.977 200.349 438.515 199.329 439.068 C198.952 439.272 198.952 439.272 197.043 440.305 C198.334 465.6 200.032 490.851 201.941 516.106 C202.318 521.106 202.691 526.107 203.064 531.107 C203.772 540.578 204.484 550.049 205.196 559.519 C206.227 573.227 207.254 586.934 208.28 600.642 C208.434 602.708 208.589 604.774 208.743 606.839 C208.82 607.855 208.896 608.871 208.974 609.918 C209.428 615.985 209.884 622.051 210.341 628.118 C212.967 662.958 212.967 662.958 214.165 680.374 C214.306 682.427 214.449 684.48 214.592 686.534 C215.008 692.525 215.417 698.516 215.808 704.509 C215.946 706.513 216.084 708.518 216.223 710.522 C216.278 711.417 216.332 712.313 216.388 713.235 C216.534 715.265 216.777 717.287 217.043 719.305 C217.703 719.635 218.363 719.965 219.043 720.305 C226.657 714.923 233.958 709.231 241.215 703.383 C244.823 700.475 248.458 697.601 252.105 694.742 C252.392 694.517 252.392 694.517 253.843 693.38 C254.998 692.474 256.154 691.569 257.309 690.664 C260.223 688.38 263.133 686.092 266.043 683.805 C267.215 682.884 268.387 681.964 269.559 681.043 C271.841 679.25 274.122 677.456 276.402 675.66 C283.702 669.915 291.026 664.203 298.361 658.503 C304.711 653.568 311.039 648.606 317.357 643.631 C320.251 641.354 323.147 639.079 326.043 636.805 C327.21 635.888 328.376 634.971 329.543 634.055 C420.543 562.555 420.543 562.555 422.293 561.18 C423.46 560.263 424.628 559.345 425.795 558.427 C428.698 556.146 431.602 553.866 434.508 551.59 C441.202 546.343 447.864 541.061 454.488 535.726 C458.084 532.839 461.724 530.026 465.415 527.262 C477.833 517.933 477.833 517.933 480.043 511.305 C480.899 502.184 479.057 494.45 476.293 485.816 C475.887 484.505 475.482 483.194 475.079 481.881 C474.21 479.062 473.33 476.246 472.442 473.433 C471.009 468.894 469.601 464.348 468.195 459.801 C466.7 454.966 465.203 450.132 463.698 445.3 C460.101 433.749 456.554 422.183 453.043 410.605 C452.919 410.198 452.919 410.198 452.294 408.135 C451.043 404.009 449.793 399.883 448.544 395.757 C446.296 388.336 444.04 380.917 441.785 373.499 C438.255 361.882 434.727 350.265 431.203 338.647 C429.227 332.134 427.25 325.621 425.272 319.109 C424.112 315.289 422.952 311.469 421.795 307.649 C420.726 304.12 419.655 300.592 418.582 297.064 C418.006 295.168 417.432 293.271 416.859 291.375 C416.687 290.81 416.687 290.81 415.817 287.953 C415.521 286.976 415.224 286 414.919 284.994 C414.067 282.378 413.095 279.846 412.043 277.305 C409.979 277.305 407.938 279.83 406.48 281.055 Z M-301.957 349.305 C-311.935 390.134 -321.702 431.01 -331.358 471.917 C-332.524 476.855 -333.69 481.793 -334.855 486.73 C-334.968 487.207 -334.968 487.207 -335.538 489.619 C-339.031 504.416 -342.551 519.205 -346.109 533.986 C-346.814 536.916 -347.515 539.846 -348.216 542.777 C-350.072 550.529 -351.941 558.277 -353.889 566.006 C-354.696 569.217 -355.489 572.432 -356.279 575.646 C-356.806 577.762 -357.353 579.871 -357.902 581.981 C-359.869 590.012 -360.76 596.185 -356.695 603.609 C-356.225 604.128 -355.754 604.646 -355.27 605.18 C-354.812 605.713 -354.354 606.247 -353.883 606.797 C-349.143 610.508 -343.313 611.842 -337.53 613.069 C-336.811 613.223 -336.093 613.377 -335.354 613.536 C-332.953 614.05 -330.551 614.554 -328.148 615.059 C-326.404 615.43 -324.66 615.803 -322.917 616.176 C-319.128 616.985 -315.339 617.789 -311.549 618.591 C-305.406 619.89 -299.265 621.2 -293.125 622.511 C-292.596 622.624 -292.596 622.624 -289.92 623.196 C-287.741 623.661 -285.561 624.127 -283.382 624.593 C-280 625.315 -276.619 626.036 -273.237 626.757 C-247.292 632.29 -221.366 637.908 -195.44 643.531 C-191.558 644.372 -187.676 645.214 -183.794 646.055 C-148.903 653.618 -114.018 661.204 -79.141 668.832 C-75.629 669.6 -72.117 670.369 -68.605 671.137 C-67.716 671.331 -66.826 671.526 -65.909 671.726 C-49.003 675.424 -32.093 679.109 -15.183 682.791 C89.819 705.659 89.819 705.659 139.105 716.555 C140.018 716.756 140.93 716.958 141.87 717.166 C147.752 718.466 153.634 719.767 159.516 721.07 C160.25 721.233 160.984 721.395 161.74 721.563 C163.762 722.01 165.783 722.459 167.805 722.907 C168.923 723.155 170.04 723.403 171.192 723.658 C172.868 724.038 174.54 724.439 176.198 724.888 C179.133 725.551 182.05 725.362 185.043 725.305 C185.166 716.785 184.805 708.38 184.16 699.887 C184.113 699.24 184.113 699.24 183.874 695.967 C183.614 692.427 183.35 688.886 183.085 685.346 C182.801 681.549 182.522 677.752 182.243 673.955 C181.702 666.61 181.157 659.265 180.61 651.921 C179.979 643.447 179.352 634.973 178.726 626.5 C177.715 612.814 176.702 599.128 175.685 585.442 C174.451 568.819 173.223 552.195 172.001 535.571 C171.312 526.198 170.621 516.825 169.931 507.452 C169.59 502.829 169.25 498.206 168.91 493.583 C168.516 488.217 168.119 482.85 167.722 477.484 C167.579 475.553 167.437 473.622 167.295 471.692 C167.104 469.081 166.91 466.471 166.716 463.86 C166.662 463.118 166.608 462.376 166.553 461.611 C166.169 456.493 165.632 451.403 165.043 446.305 C164.084 446.269 163.125 446.233 162.137 446.196 C151.908 445.732 142.161 444.24 132.145 442.18 C130.569 441.864 128.993 441.549 127.418 441.234 C122.623 440.273 117.833 439.291 113.043 438.305 C111.604 438.01 110.165 437.714 108.726 437.419 C100.412 435.712 92.104 433.974 83.798 432.226 C75.988 430.583 68.176 428.951 60.363 427.32 C59.559 427.153 58.756 426.985 57.927 426.812 C40.397 423.154 22.847 419.597 5.293 416.055 C-23.793 410.185 -52.856 404.209 -81.912 398.193 C-108.246 392.741 -134.588 387.333 -160.948 382.011 C-185.264 377.101 -209.571 372.149 -233.861 367.109 C-237.006 366.457 -240.151 365.806 -243.297 365.157 C-246.964 364.4 -250.631 363.639 -254.297 362.875 C-256.254 362.468 -258.211 362.065 -260.169 361.662 C-272.265 359.129 -284.145 356.414 -295.469 351.355 C-297.646 350.436 -299.667 349.844 -301.957 349.305 Z " fill="#000000" transform="translate(462.95703125,145.6953125)"/>
</svg>
