<?xml version="1.0" encoding="UTF-8"?>
<!-- Generator: visioncortex VTracer 0.6.12 -->
<svg version="1.1" xmlns="http://www.w3.org/2000/svg" width="256" height="256" viewBox="0 0 992 992" fill="none">
<path d="M0 0 C6.157 5.231 9.62 11.362 10.282 19.451 C10.398 23.821 10.417 28.183 10.404 32.554 C10.41 34.236 10.417 35.917 10.425 37.598 C10.443 42.147 10.442 46.697 10.436 51.247 C10.433 55.051 10.439 58.856 10.445 62.66 C10.459 71.639 10.457 80.617 10.446 89.595 C10.435 98.844 10.449 108.093 10.475 117.342 C10.498 125.296 10.504 133.25 10.498 141.205 C10.495 145.95 10.497 150.694 10.515 155.439 C10.53 159.902 10.526 164.365 10.507 168.827 C10.504 170.46 10.507 172.093 10.517 173.726 C10.576 183.626 10.273 191.778 3.75 199.75 C-3.176 205.417 -8.752 208.617 -18 208 C-25.669 206.421 -31.336 203.302 -36 197 C-40.911 188.591 -40.569 179.713 -40.518 170.31 C-40.523 168.639 -40.53 166.967 -40.539 165.296 C-40.557 160.781 -40.55 156.267 -40.537 151.753 C-40.527 147.015 -40.537 142.277 -40.543 137.54 C-40.55 129.587 -40.541 121.634 -40.521 113.681 C-40.5 104.501 -40.507 95.322 -40.529 86.142 C-40.547 78.243 -40.549 70.344 -40.539 62.445 C-40.533 57.735 -40.532 53.025 -40.545 48.314 C-40.557 43.886 -40.549 39.458 -40.526 35.03 C-40.52 33.41 -40.522 31.79 -40.531 30.169 C-40.581 20.012 -39.903 12.001 -33.688 3.688 C-24.39 -5.61 -11.235 -6.711 0 0 Z " fill="#000000" transform="translate(511,85)"/>
<path d="M0 0 C8.138 6.242 13.542 15.842 19.047 24.352 C19.229 24.632 19.229 24.632 20.148 26.048 C79.325 117.334 79.325 117.334 74.984 148.289 C72.297 155.997 67.173 160.688 59.984 164.289 C51.898 167.356 45.518 166.672 37.625 163.523 C28.274 159.152 25.017 151.332 20.984 142.289 C20.685 141.618 20.385 140.947 20.076 140.256 C18.789 137.368 17.51 134.476 16.233 131.583 C7.909 112.773 -1.388 94.904 -12.016 77.289 C-13.21 75.292 -14.404 73.294 -15.598 71.297 C-21.544 61.399 -27.617 51.625 -34.198 42.133 C-39.548 34.324 -43.099 26.508 -41.453 16.852 C-39.537 9.457 -35.186 3.29 -28.715 -0.781 C-19.139 -6.02 -9.487 -4.583 0 0 Z " fill="#000000" transform="translate(273.015625,126.7109375)"/>
<path d="M0 0 C5.747 5.747 8.394 11.714 8.625 19.812 C8.537 26.96 7.112 31.321 3.25 37.25 C2.545 38.333 1.84 39.416 1.113 40.531 C-0.556 43.06 -2.249 45.574 -3.949 48.082 C-23.242 76.643 -39.834 107.056 -53.348 138.754 C-57.743 148.942 -61.129 155.886 -70.5 162.062 C-78.829 165.106 -86.656 164.82 -94.75 161.25 C-100.708 158.068 -105.182 153.511 -107.535 147.117 C-110.046 137.574 -107.406 129.278 -103.938 120.312 C-103.542 119.276 -103.146 118.24 -102.738 117.172 C-90.088 84.69 -73.333 54.548 -54.229 25.5 C-52.944 23.545 -51.664 21.586 -50.387 19.625 C-37.615 0.183 -37.615 0.183 -27 -5.125 C-16.564 -7.132 -8.857 -5.636 0 0 Z " fill="#000000" transform="translate(751.75,128.75)"/>
<path d="M0 0 C54.792 30.537 119.061 44.36 180.792 51.736 C182.22 51.907 183.648 52.08 185.075 52.256 C230.6 57.873 279.5 57.739 325 52 C326.452 51.826 327.903 51.653 329.355 51.48 C394.615 43.643 457.318 26.83 515.645 -3.918 C528.875 -10.797 543.492 -14.402 558.18 -10.074 C568.363 -6.195 575.144 -0.351 579.949 9.412 C582.177 14.9 583.181 20.749 584.395 26.527 C584.73 28.086 585.067 29.644 585.405 31.202 C586.176 34.767 586.939 38.332 587.698 41.899 C589.126 48.603 590.575 55.302 592.025 62 C595.277 77.041 598.509 92.086 601.737 107.132 C602.699 111.614 603.661 116.097 604.623 120.579 C621.778 200.489 638.733 280.44 655.424 360.449 C656.649 366.319 657.876 372.19 659.104 378.06 C671.931 439.385 671.931 439.385 676.875 464.062 C677.037 464.87 677.199 465.677 677.366 466.508 C677.807 468.704 678.244 470.901 678.68 473.098 C678.914 474.279 679.149 475.459 679.39 476.676 C682.692 494.671 680.524 511.356 673 528 C672.581 528.933 672.162 529.867 671.73 530.828 C667.803 538.75 662.182 544.809 656 551 C655.268 551.744 654.536 552.488 653.781 553.254 C637.693 568.591 616.243 574.338 594.501 574.257 C593.295 574.261 592.09 574.264 590.848 574.268 C587.523 574.276 584.198 574.274 580.873 574.269 C577.247 574.266 573.621 574.274 569.996 574.281 C563.648 574.291 557.3 574.294 550.953 574.292 C541.513 574.289 532.073 574.298 522.634 574.308 C504.791 574.327 486.949 574.333 469.107 574.334 C455.326 574.335 441.546 574.339 427.765 574.346 C423.796 574.347 419.828 574.349 415.859 574.351 C415.365 574.351 415.365 574.351 412.869 574.352 C385.119 574.365 357.37 574.372 329.621 574.372 C328.575 574.371 327.529 574.371 326.451 574.371 C321.15 574.371 315.85 574.371 310.549 574.371 C309.496 574.371 308.443 574.371 307.359 574.371 C305.23 574.371 303.101 574.371 300.972 574.37 C267.853 574.369 234.735 574.384 201.616 574.412 C164.394 574.442 127.172 574.46 89.95 574.458 C85.979 574.458 82.008 574.457 78.038 574.457 C77.549 574.457 77.549 574.457 75.075 574.457 C59.357 574.457 43.64 574.47 27.923 574.487 C12.12 574.504 -3.683 574.506 -19.486 574.493 C-28.867 574.486 -38.248 574.489 -47.629 574.509 C-53.905 574.521 -60.18 574.518 -66.456 574.504 C-70.026 574.496 -73.595 574.495 -77.164 574.511 C-94.834 574.586 -112.667 574.581 -128.812 566.375 C-129.158 566.205 -129.158 566.205 -130.906 565.345 C-151.496 554.809 -165.544 536.794 -173.008 515.066 C-177.928 497.463 -175.215 480.87 -171.4 463.336 C-171.145 462.146 -170.89 460.956 -170.628 459.73 C-169.931 456.482 -169.23 453.235 -168.527 449.988 C-167.773 446.496 -167.023 443.002 -166.274 439.508 C-164.985 433.508 -163.693 427.508 -162.399 421.51 C-160.528 412.84 -158.663 404.169 -156.8 395.498 C-155.939 391.494 -155.078 387.489 -154.217 383.485 C-154.132 383.087 -154.132 383.087 -153.699 381.075 C-152.483 375.42 -151.267 369.766 -150.049 364.112 C-145.766 344.218 -141.493 324.322 -137.234 304.422 C-136.974 303.203 -136.713 301.985 -136.444 300.73 C-135.418 295.933 -134.391 291.137 -133.365 286.34 C-123.95 242.346 -114.481 198.365 -104.953 154.396 C-102.416 142.69 -99.881 130.984 -97.348 119.278 C-96.336 114.602 -95.322 109.927 -94.306 105.252 C-91.061 90.312 -87.85 75.367 -84.766 60.393 C-83.89 56.149 -83.007 51.906 -82.124 47.663 C-81.177 43.105 -80.254 38.542 -79.335 33.977 C-78.847 31.623 -78.357 29.268 -77.867 26.914 C-77.665 25.877 -77.462 24.84 -77.253 23.771 C-74.646 11.478 -69.413 0.474 -58.652 -6.527 C-38.786 -17.389 -18.286 -10.229 0 0 Z M-33 31 C-34.742 44.21 -36.318 57.434 -37.688 70.688 C-37.819 71.914 -37.95 73.141 -38.085 74.405 C-39.603 89.442 -40.137 101.353 -31.312 114.25 C5.035 158.452 109.995 162.044 162.45 167.243 C172.933 168.251 183.428 169.148 193.935 169.859 C195.948 169.996 197.959 170.143 199.971 170.29 C217.196 171.441 234.495 171.246 251.75 171.25 C252.177 171.25 252.177 171.25 254.339 171.251 C282.651 171.259 310.799 170.742 339 168 C339.9 167.913 340.8 167.826 341.728 167.736 C503.504 151.847 503.504 151.847 536.754 115.914 C543.213 107.535 546.379 99.717 545.684 89.25 C545.636 88.469 545.588 87.687 545.538 86.882 C544.926 77.278 544.146 67.687 543.325 58.099 C543.058 54.949 542.804 51.799 542.549 48.648 C542.378 46.641 542.207 44.633 542.035 42.625 C541.961 41.686 541.887 40.746 541.811 39.778 C541.734 38.916 541.657 38.053 541.578 37.164 C541.515 36.406 541.451 35.647 541.386 34.866 C541 33 541 33 539 31 C538.136 31.457 537.273 31.915 536.383 32.386 C517.916 42.143 499.472 51.38 480 59 C479.094 59.359 478.188 59.717 477.254 60.086 C393.434 92.934 297.834 102.547 90 78 C88.824 77.715 87.649 77.431 86.438 77.138 C46.35 67.246 7.138 52.447 -28.84 32.109 C-31 31 -31 31 -33 31 Z M-59 146 C-63.12 162.711 -66.889 179.476 -70.435 196.318 C-71.71 202.37 -72.994 208.42 -74.278 214.47 C-74.709 216.504 -75.14 218.538 -75.571 220.572 C-77.971 231.889 -80.41 243.197 -82.875 254.5 C-83.07 255.393 -83.264 256.285 -83.464 257.205 C-84.505 261.978 -85.546 266.752 -86.588 271.525 C-89.44 284.599 -92.282 297.675 -95.125 310.75 C-95.283 311.475 -95.44 312.201 -95.603 312.948 C-100.788 336.796 -105.964 360.646 -111.125 384.5 C-111.291 385.266 -111.457 386.033 -111.627 386.822 C-117.171 412.446 -122.661 438.08 -128.104 463.725 C-128.361 464.936 -128.619 466.148 -128.884 467.396 C-129.361 469.642 -129.837 471.889 -130.313 474.135 C-130.418 474.628 -130.418 474.628 -130.947 477.121 C-131.127 477.972 -131.308 478.824 -131.494 479.701 C-131.819 481.178 -132.169 482.65 -132.551 484.113 C-135.1 494.823 -132.396 504.911 -127.188 514.25 C-119.538 523.866 -110.317 529.855 -98 532 C-94.032 532.279 -90.078 532.27 -86.101 532.254 C-84.912 532.258 -83.723 532.261 -82.498 532.264 C-79.2 532.271 -75.902 532.269 -72.604 532.263 C-69.015 532.259 -65.426 532.266 -61.837 532.272 C-55.547 532.281 -49.257 532.282 -42.968 532.279 C-33.615 532.273 -24.262 532.28 -14.909 532.288 C2.768 532.303 20.445 532.305 38.121 532.302 C51.771 532.301 65.421 532.302 79.071 532.307 C81.032 532.307 82.993 532.308 84.953 532.308 C87.907 532.309 90.862 532.31 93.816 532.311 C121.288 532.32 148.76 532.324 176.232 532.32 C177.268 532.32 178.304 532.319 179.371 532.319 C184.622 532.318 189.872 532.318 195.122 532.317 C196.165 532.317 197.207 532.316 198.282 532.316 C200.39 532.316 202.499 532.315 204.608 532.315 C237.417 532.31 270.226 532.318 303.035 532.336 C339.891 532.357 376.748 532.368 413.604 532.364 C417.534 532.363 421.464 532.363 425.393 532.363 C426.361 532.362 427.329 532.362 428.326 532.362 C442.935 532.361 457.544 532.368 472.153 532.378 C488.769 532.39 505.384 532.392 521.999 532.38 C531.297 532.373 540.595 532.375 549.893 532.388 C556.106 532.396 562.318 532.394 568.531 532.382 C572.07 532.376 575.608 532.374 579.146 532.386 C582.964 532.396 586.781 532.388 590.598 532.375 C591.689 532.382 592.78 532.389 593.904 532.397 C605.374 532.316 614.898 530.145 624 523 C624.833 522.386 625.665 521.773 626.523 521.141 C629.173 518.85 630.826 516.645 632.688 513.688 C633.269 512.784 633.85 511.88 634.449 510.949 C642.083 496.432 637.238 479.068 633.988 463.973 C633.551 461.884 633.115 459.796 632.681 457.707 C631.493 452.017 630.286 446.332 629.074 440.648 C627.78 434.556 626.504 428.461 625.226 422.366 C622.868 411.137 620.495 399.912 618.114 388.688 C615.855 378.039 613.602 367.388 611.354 356.737 C611.047 355.28 610.74 353.823 610.432 352.367 C609.969 350.172 609.506 347.978 609.043 345.783 C603.361 318.857 597.658 291.935 591.943 265.015 C588.248 247.615 584.564 230.212 580.897 212.805 C580.24 209.684 579.582 206.562 578.923 203.44 C578.819 202.945 578.819 202.945 578.291 200.441 C577.882 198.503 577.474 196.566 577.065 194.628 C575.919 189.194 574.776 183.759 573.635 178.325 C572.954 175.082 572.27 171.841 571.585 168.6 C571.276 167.136 570.969 165.672 570.663 164.208 C570.251 162.241 569.835 160.275 569.419 158.31 C569.305 157.768 569.305 157.768 568.729 155.027 C567.987 151.945 567.046 148.991 566 146 C565.113 146.804 564.226 147.609 563.312 148.438 C553.14 157.084 542.13 163.548 530 169 C529.367 169.286 528.733 169.571 528.081 169.865 C466.461 196.971 393.467 205.017 327 210 C326.213 210.061 325.426 210.121 324.615 210.184 C273.656 214.088 221.903 213.077 171 209 C170.117 208.93 169.234 208.859 168.324 208.787 C103.117 203.522 20.529 195.922 -37 162 C-38 161.429 -39.001 160.858 -40.031 160.27 C-45.994 156.691 -51.051 152.494 -56.102 147.723 C-58 146 -58 146 -59 146 Z " fill="#000000" transform="translate(243,336)"/>
</svg>
