<?xml version="1.0" encoding="UTF-8"?>
<!-- Generator: visioncortex VTracer 0.6.12 -->
<svg version="1.1" xmlns="http://www.w3.org/2000/svg" width="256" height="256" viewBox="0 0 1248 1248" fill="none">
<path d="M0 0 C5.311 3.421 10.668 6.764 16.047 10.078 C33.228 20.678 50.332 31.401 67.391 42.198 C69.692 43.653 71.994 45.106 74.297 46.559 C83.703 52.492 93.093 58.45 102.473 64.425 C108.428 68.216 114.39 71.997 120.359 75.766 C121.13 76.252 121.901 76.739 122.695 77.24 C126.622 79.718 130.551 82.194 134.48 84.668 C142.639 89.807 150.774 94.976 158.858 100.23 C163.008 102.925 167.169 105.599 171.344 108.254 C182.557 115.39 193.695 122.615 204.734 130.016 C212.268 135.066 219.819 140.064 227.545 144.817 C233.847 148.71 240.04 152.768 246.234 156.828 C246.79 157.192 247.346 157.557 247.919 157.932 C250.172 159.409 252.425 160.887 254.678 162.365 C272.537 174.085 290.435 185.746 308.439 197.241 C321.573 205.628 334.63 214.129 347.664 222.671 C354.527 227.164 361.41 231.627 368.291 236.093 C370.686 237.65 373.08 239.209 375.473 240.77 C377.101 241.831 378.73 242.892 380.359 243.953 C380.762 244.216 380.762 244.216 382.802 245.545 C387.553 248.633 392.319 251.695 397.102 254.734 C398.203 255.435 399.304 256.136 400.439 256.858 C402.568 258.212 404.699 259.562 406.833 260.909 C421.589 270.292 434.941 279.129 439.089 297.152 C439.542 299.319 439.983 301.488 440.414 303.66 C440.664 304.872 440.914 306.084 441.172 307.332 C441.721 310.005 442.267 312.679 442.806 315.354 C443.697 319.774 444.606 324.191 445.517 328.607 C447.435 337.922 449.334 347.241 451.233 356.56 C453.006 365.263 454.784 373.965 456.562 382.668 C456.767 383.669 456.972 384.671 457.182 385.702 C460.491 401.895 463.818 418.083 467.156 434.27 C467.269 434.818 467.269 434.818 467.842 437.595 C470.056 448.329 472.272 459.062 474.49 469.796 C475.313 473.78 476.135 477.764 476.958 481.748 C477.514 484.443 478.072 487.138 478.629 489.833 C479.477 493.934 480.32 498.036 481.159 502.138 C481.515 503.877 481.872 505.615 482.23 507.353 C482.79 510.077 483.345 512.801 483.899 515.526 C484.07 516.353 484.241 517.181 484.417 518.033 C485.573 523.756 486.288 529.287 486.109 535.141 C486.093 535.97 486.077 536.8 486.061 537.655 C485.587 552.461 479.868 568.508 469.359 579.324 C463.289 584.557 456.733 589.165 450.215 593.819 C446.217 596.683 442.256 599.597 438.297 602.516 C437.908 602.802 437.908 602.802 435.94 604.249 C429.07 609.315 422.287 614.491 415.508 619.679 C409.773 624.061 403.994 628.376 398.172 632.641 C390.477 638.278 382.874 644.027 375.297 649.82 C369.477 654.27 363.631 658.683 357.762 663.067 C352.266 667.18 346.812 671.346 341.359 675.516 C334.617 680.669 327.833 685.755 320.984 690.766 C314.039 695.849 307.22 701.071 300.449 706.385 C295.013 710.635 289.492 714.755 283.922 718.828 C277.789 723.313 271.747 727.879 265.799 732.605 C261.562 735.964 257.258 739.223 252.922 742.453 C247.116 746.779 241.376 751.182 235.672 755.641 C229.471 760.485 223.226 765.257 216.92 769.963 C207.784 776.786 198.733 783.72 189.672 790.641 C188.885 791.241 188.099 791.842 187.289 792.46 C179.191 798.644 171.105 804.843 163.031 811.059 C159.167 814.031 155.295 816.992 151.422 819.953 C150.704 820.502 149.987 821.05 149.248 821.615 C145.647 824.368 142.045 827.119 138.441 829.867 C131.135 835.442 123.854 841.048 116.609 846.703 C110.274 851.648 103.88 856.505 97.436 861.308 C92.478 865.013 87.596 868.806 82.74 872.644 C78.466 876.022 74.159 879.354 69.836 882.669 C65.204 886.225 60.592 889.805 55.984 893.391 C55.226 893.98 54.469 894.57 53.688 895.178 C51.349 896.999 49.01 898.82 46.672 900.641 C28.307 914.942 28.307 914.942 19.086 922.004 C16.46 924.023 13.857 926.068 11.258 928.121 C-10.313 945.13 -31.258 955.881 -59.328 953.641 C-79.986 951.144 -95.339 941.733 -111.125 928.701 C-115.764 924.876 -120.493 921.214 -125.328 917.641 C-130.778 913.607 -136.091 909.447 -141.328 905.141 C-147.26 900.265 -153.31 895.593 -159.473 891.015 C-164.934 886.955 -170.291 882.777 -175.629 878.559 C-188.412 868.457 -201.322 858.513 -214.273 848.629 C-215.688 847.55 -217.102 846.47 -218.516 845.391 C-219.226 844.848 -219.937 844.306 -220.669 843.747 C-226.017 839.658 -231.333 835.531 -236.641 831.391 C-242.377 826.918 -248.144 822.499 -253.977 818.152 C-258.43 814.826 -262.845 811.449 -267.266 808.078 C-268.166 807.392 -269.066 806.706 -269.993 805.999 C-274.546 802.527 -279.098 799.053 -283.648 795.578 C-295.495 786.536 -307.394 777.567 -319.328 768.641 C-329.65 760.92 -339.958 753.183 -350.185 745.337 C-355.44 741.309 -360.729 737.33 -366.033 733.368 C-370.717 729.864 -375.369 726.32 -380.013 722.763 C-388.097 716.573 -396.239 710.495 -404.521 704.572 C-411.262 699.733 -417.85 694.703 -424.437 689.657 C-432.543 683.455 -440.747 677.394 -448.981 671.363 C-451.359 669.618 -453.733 667.867 -456.105 666.113 C-463.878 660.37 -471.67 654.658 -479.516 649.016 C-485.167 644.951 -490.772 640.834 -496.328 636.641 C-504.154 630.737 -512.093 624.997 -520.055 619.277 C-522.296 617.664 -524.531 616.044 -526.766 614.422 C-534.717 608.652 -542.71 602.951 -550.766 597.328 C-552.449 596.15 -554.133 594.971 -555.816 593.793 C-558.432 591.963 -561.053 590.141 -563.684 588.332 C-574.065 581.055 -582.012 573.26 -587.328 561.641 C-587.717 560.817 -588.107 559.993 -588.508 559.145 C-593.86 546.935 -594.27 534.314 -591.887 521.387 C-591.8 520.905 -591.8 520.905 -591.363 518.466 C-588.156 500.906 -584.556 483.416 -581.037 465.917 C-580.165 461.58 -579.295 457.243 -578.426 452.906 C-575.641 439.023 -572.85 425.141 -570.056 411.26 C-569.074 406.38 -568.093 401.5 -567.112 396.62 C-564.212 382.196 -561.308 367.773 -558.4 353.351 C-557.704 349.896 -557.009 346.442 -556.313 342.987 C-555.219 337.554 -554.123 332.12 -553.026 326.687 C-552.623 324.693 -552.221 322.698 -551.82 320.703 C-551.27 317.971 -550.718 315.24 -550.166 312.509 C-550.008 311.722 -549.85 310.935 -549.687 310.124 C-544.915 286.617 -536.146 275.129 -516.558 262.077 C-512.157 259.167 -507.743 256.278 -503.328 253.391 C-501.382 252.113 -499.436 250.836 -497.49 249.558 C-493.451 246.905 -489.411 244.255 -485.37 241.605 C-476.803 235.986 -468.251 230.343 -459.699 224.702 C-414.995 195.216 -370.248 165.797 -325.328 136.641 C-324.631 136.188 -323.934 135.735 -323.216 135.269 C-313.095 128.697 -302.934 122.187 -292.766 115.689 C-286.205 111.493 -279.663 107.27 -273.141 103.016 C-265.309 97.908 -257.43 92.877 -249.534 87.868 C-243.478 84.023 -237.457 80.129 -231.453 76.203 C-223.17 70.794 -214.8 65.532 -206.402 60.304 C-199.583 56.057 -192.789 51.773 -186.016 47.453 C-185.109 46.875 -184.202 46.297 -183.268 45.702 C-181.482 44.563 -179.695 43.423 -177.908 42.284 C-164.661 33.845 -151.342 25.528 -137.977 17.277 C-135.363 15.662 -132.751 14.043 -130.141 12.422 C-118.116 4.959 -106.059 -2.453 -93.945 -9.77 C-92.179 -10.843 -90.42 -11.926 -88.668 -13.021 C-84.064 -15.868 -79.83 -18.189 -74.578 -19.672 C-73.531 -19.977 -72.485 -20.283 -71.406 -20.598 C-43.403 -27.527 -22.696 -14.632 0 0 Z M-93.062 16.206 C-97.129 18.781 -101.231 21.301 -105.328 23.828 C-120.973 33.501 -136.571 43.249 -152.113 53.087 C-158.439 57.088 -164.789 61.054 -171.141 65.016 C-181.674 71.589 -192.158 78.235 -202.624 84.916 C-206.221 87.21 -209.821 89.498 -213.422 91.787 C-230.718 102.784 -248.004 113.797 -265.168 125 C-270.541 128.499 -275.955 131.927 -281.391 135.328 C-289.904 140.662 -298.253 146.232 -306.596 151.826 C-314.336 157.013 -322.131 162.091 -330.04 167.019 C-337.729 171.837 -345.252 176.901 -352.788 181.954 C-360.115 186.864 -367.478 191.688 -374.986 196.317 C-379.661 199.204 -384.243 202.215 -388.803 205.28 C-395.486 209.764 -402.219 214.171 -408.953 218.578 C-410.214 219.403 -411.474 220.229 -412.735 221.054 C-418.448 224.795 -424.164 228.533 -429.88 232.27 C-443.267 241.019 -456.624 249.807 -469.912 258.707 C-476.197 262.912 -482.51 267.072 -488.852 271.191 C-490.307 272.139 -491.762 273.086 -493.218 274.034 C-496.014 275.854 -498.816 277.666 -501.62 279.474 C-520.776 291.893 -520.776 291.893 -523.059 299.461 C-523.713 304.753 -522.614 309.664 -519.719 314.113 C-516.678 317.328 -513.356 319.52 -509.641 321.891 C-508.016 322.95 -506.392 324.012 -504.77 325.074 C-503.894 325.645 -503.019 326.216 -502.118 326.804 C-497.066 330.13 -492.075 333.545 -487.078 336.953 C-486.015 337.677 -484.952 338.401 -483.857 339.147 C-481.715 340.606 -479.574 342.066 -477.433 343.525 C-474.506 345.519 -471.578 347.51 -468.648 349.5 C-456.452 357.79 -444.327 366.178 -432.232 374.616 C-428.34 377.329 -424.444 380.037 -420.547 382.745 C-415.806 386.041 -411.067 389.341 -406.328 392.641 C-405.45 393.252 -404.572 393.863 -403.667 394.493 C-394.02 401.21 -384.42 407.984 -374.905 414.887 C-369.906 418.511 -364.879 422.09 -359.828 425.641 C-351.7 431.358 -343.641 437.169 -335.594 443 C-331.842 445.717 -328.085 448.429 -324.328 451.141 C-322.828 452.224 -321.328 453.307 -319.828 454.391 C-319.086 454.927 -318.343 455.463 -317.578 456.016 C-315.328 457.641 -313.078 459.266 -310.828 460.891 C-310.086 461.427 -309.344 461.963 -308.579 462.515 C-307.076 463.6 -305.574 464.686 -304.072 465.772 C-300.365 468.452 -296.654 471.125 -292.934 473.785 C-283.788 480.336 -274.797 487.061 -265.868 493.905 C-260.504 498.009 -255.093 502.02 -249.575 505.915 C-238.099 514.024 -226.839 522.43 -215.734 531.039 C-211.649 534.182 -207.486 537.219 -203.328 540.266 C-196.437 545.317 -189.613 550.447 -182.828 555.641 C-175.415 561.314 -167.947 566.902 -160.42 572.424 C-152.186 578.468 -144.021 584.602 -135.857 590.741 C-133.313 592.652 -130.767 594.559 -128.219 596.465 C-120.417 602.303 -112.627 608.154 -104.891 614.078 C-104.216 614.594 -103.542 615.11 -102.847 615.641 C-98.874 618.683 -94.911 621.736 -90.953 624.797 C-89.099 626.224 -87.245 627.651 -85.391 629.078 C-84.539 629.741 -83.687 630.403 -82.809 631.086 C-72.151 639.27 -62.24 645.947 -48.328 644.641 C-38.933 643.214 -32.268 639.077 -24.766 633.453 C-23.941 632.84 -23.116 632.227 -22.266 631.596 C-15.191 626.324 -8.18 620.969 -1.172 615.609 C8.458 608.253 18.228 601.091 28.006 593.932 C38.121 586.521 48.152 579.013 58.112 571.396 C64.919 566.196 71.797 561.104 78.722 556.064 C82.465 553.332 86.192 550.579 89.922 547.828 C91.542 546.634 93.161 545.44 94.781 544.246 C95.59 543.65 96.399 543.053 97.232 542.439 C101.212 539.505 105.192 536.573 109.172 533.641 C110.755 532.474 112.339 531.307 113.922 530.141 C117.089 527.807 120.255 525.474 123.422 523.141 C124.206 522.563 124.99 521.985 125.797 521.39 C127.38 520.224 128.962 519.059 130.545 517.893 C134.517 514.966 138.489 512.038 142.457 509.105 C150.228 503.366 158.017 497.656 165.859 492.016 C171.511 487.951 177.115 483.834 182.672 479.641 C190.495 473.739 198.431 468 206.39 462.282 C210.155 459.574 213.913 456.857 217.672 454.141 C219.172 453.057 220.672 451.974 222.172 450.891 C222.914 450.354 223.657 449.818 224.422 449.266 C232.672 443.307 240.922 437.349 249.172 431.391 C249.914 430.854 250.657 430.318 251.422 429.765 C252.921 428.683 254.42 427.6 255.92 426.518 C259.684 423.8 263.447 421.08 267.207 418.355 C275.195 412.571 283.21 406.833 291.278 401.16 C296.438 397.526 301.561 393.844 306.672 390.141 C313.172 385.43 319.711 380.778 326.277 376.16 C331.438 372.526 336.561 368.844 341.672 365.141 C349.591 359.404 357.564 353.749 365.563 348.125 C369.102 345.634 372.637 343.137 376.172 340.641 C377.579 339.647 378.987 338.654 380.395 337.66 C383.319 335.596 386.244 333.53 389.168 331.465 C389.906 330.944 390.645 330.422 391.406 329.885 C392.858 328.859 394.31 327.83 395.76 326.8 C398.753 324.677 401.75 322.589 404.82 320.578 C410.077 317.125 413.439 314.629 415.672 308.641 C416.702 303.114 416.252 298.907 413.148 294.164 C409.879 289.507 406.31 286.931 401.422 284.141 C399.72 283.117 398.019 282.091 396.32 281.062 C395.41 280.517 394.5 279.971 393.562 279.408 C388.308 276.195 383.187 272.781 378.047 269.391 C375.82 267.929 373.592 266.467 371.363 265.008 C370.808 264.644 370.252 264.28 369.68 263.906 C363.808 260.067 357.899 256.289 351.984 252.516 C343.062 246.824 334.181 241.074 325.326 235.278 C318.39 230.744 311.412 226.278 304.422 221.828 C294.996 215.825 285.686 209.667 276.41 203.437 C267.35 197.358 258.163 191.507 248.889 185.761 C242.982 182.098 237.144 178.362 231.382 174.475 C224.885 170.094 218.316 165.824 211.747 161.55 C206.553 158.171 201.364 154.784 196.188 151.379 C195.138 150.69 194.089 150.001 193.008 149.292 C190.985 147.964 188.964 146.633 186.945 145.3 C186.035 144.703 185.125 144.107 184.188 143.492 C183.386 142.964 182.585 142.437 181.759 141.893 C179.672 140.641 179.672 140.641 176.672 139.641 C175.727 142.388 174.79 145.138 173.859 147.891 C173.556 148.786 173.253 149.682 172.94 150.605 C170.8 157.017 168.813 163.463 166.898 169.945 C166.413 171.579 165.927 173.213 165.441 174.847 C164.711 177.303 163.986 179.761 163.276 182.223 C162.604 184.556 161.915 186.884 161.223 189.211 C161.025 189.916 160.827 190.622 160.623 191.349 C159.732 194.296 158.941 196.368 156.759 198.578 C153.519 200.228 150.164 200.467 146.672 199.641 C141.408 196.543 139.911 192.353 137.859 186.891 C137.548 186.098 137.237 185.305 136.916 184.488 C136.155 182.544 135.411 180.593 134.672 178.641 C130.444 180.081 127.464 182.174 123.984 184.953 C118.739 189.081 113.405 193.058 107.984 196.953 C107.225 197.499 106.466 198.046 105.683 198.608 C103.347 200.287 101.01 201.964 98.672 203.641 C89.282 210.382 79.931 217.163 70.704 224.126 C65.059 228.375 59.339 232.514 53.603 236.638 C48.012 240.661 42.46 244.733 36.922 248.828 C31.512 252.826 26.09 256.802 20.609 260.703 C20.071 261.088 19.532 261.472 18.977 261.868 C16.437 263.679 13.893 265.485 11.342 267.28 C8.843 269.04 6.351 270.808 3.859 272.578 C3.063 273.134 2.267 273.691 1.447 274.264 C0.71 274.789 -0.026 275.314 -0.785 275.855 C-1.115 276.088 -1.115 276.088 -2.784 277.265 C-4.328 278.641 -4.328 278.641 -5.328 281.641 C-4.551 283.742 -4.551 283.742 -3.391 286.266 C0.213 295.732 0.213 306.549 -3.391 316.016 C-3.773 316.848 -4.156 317.681 -4.551 318.539 C-5.328 320.641 -5.328 320.641 -4.328 323.641 C-2.864 324.952 -2.864 324.952 -0.961 326.285 C-0.25 326.79 0.461 327.295 1.194 327.815 C1.97 328.355 2.747 328.896 3.547 329.453 C5.199 330.624 6.85 331.796 8.5 332.969 C9.355 333.574 10.211 334.179 11.092 334.803 C15.193 337.724 19.247 340.711 23.297 343.703 C24.091 344.289 24.885 344.874 25.703 345.478 C31.363 349.659 36.996 353.876 42.62 358.106 C50.124 363.744 57.687 369.299 65.249 374.858 C69.225 377.783 73.198 380.712 77.172 383.641 C78.755 384.807 80.339 385.974 81.922 387.141 C85.089 389.474 88.255 391.807 91.422 394.141 C92.206 394.719 92.991 395.296 93.799 395.892 C95.376 397.054 96.954 398.217 98.531 399.38 C102.576 402.36 106.621 405.339 110.668 408.316 C111.489 408.921 112.31 409.525 113.156 410.148 C114.771 411.336 116.386 412.524 118.002 413.711 C121.506 416.291 125.001 418.88 128.461 421.52 C128.741 421.733 128.741 421.733 130.16 422.813 C131.617 423.926 133.068 425.045 134.52 426.164 C136.672 427.641 136.672 427.641 138.672 427.641 C138.998 426.688 139.324 425.735 139.66 424.754 C140.101 423.487 140.543 422.22 140.984 420.953 C141.414 419.712 141.843 418.47 142.285 417.191 C145.161 409.828 145.161 409.828 148.422 407.266 C151.813 406.324 154.282 406.793 157.672 407.641 C161.206 410.513 162.524 413.214 163.934 417.496 C164.326 418.664 164.719 419.833 165.124 421.036 C165.327 421.662 165.327 421.662 166.359 424.828 C167.231 427.452 168.11 430.074 168.988 432.695 C169.209 433.359 169.43 434.022 169.658 434.705 C171.133 439.114 172.697 443.481 174.324 447.836 C174.74 448.953 175.156 450.071 175.585 451.222 C176.374 453.324 177.171 455.423 177.979 457.518 C180.078 463.162 181.244 467.611 180.672 473.641 C179.297 476.141 179.297 476.141 176.672 477.641 C168.574 478.636 160.615 476.671 152.746 474.973 C151.427 474.693 150.108 474.413 148.789 474.134 C146.044 473.55 143.3 472.958 140.557 472.361 C137.053 471.599 133.545 470.864 130.033 470.136 C127.315 469.568 124.601 468.983 121.888 468.393 C119.971 467.981 118.05 467.585 116.13 467.189 C105.177 464.753 105.177 464.753 101.672 459.641 C101.146 456.42 101.202 454.582 102.66 451.66 C105.708 448.6 109.307 447.694 113.359 446.391 C114.157 446.122 114.954 445.854 115.775 445.578 C117.737 444.92 119.704 444.279 121.672 443.641 C121.672 442.651 121.672 441.661 121.672 440.641 C120.365 439.389 120.365 439.389 118.516 438.145 C118.173 437.91 118.173 437.91 116.441 436.72 C115.692 436.22 114.943 435.719 114.172 435.203 C112.601 434.126 111.032 433.046 109.465 431.965 C108.664 431.414 107.862 430.862 107.037 430.294 C103.453 427.788 99.967 425.16 96.484 422.516 C91.656 418.863 86.799 415.266 81.859 411.766 C73.868 406.101 65.999 400.274 58.123 394.451 C55.73 392.684 53.335 390.921 50.938 389.16 C41.975 382.574 33.051 375.938 24.161 369.253 C17.661 364.37 11.125 359.537 4.57 354.728 C0.704 351.888 -3.146 349.031 -6.969 346.133 C-7.336 345.854 -7.336 345.854 -9.196 344.446 C-10.581 343.395 -11.963 342.341 -13.343 341.282 C-15.99 339.274 -18.152 337.699 -21.328 336.641 C-23.746 337.566 -23.746 337.566 -26.516 338.953 C-41.206 345.886 -57.024 346.118 -72.328 340.641 C-74.961 339.613 -77.237 338.701 -79.602 337.141 C-82.989 336.519 -83.529 337.113 -86.305 339.016 C-87.868 340.206 -89.417 341.416 -90.953 342.641 C-92.664 343.954 -94.375 345.266 -96.086 346.578 C-96.958 347.256 -97.829 347.934 -98.728 348.633 C-102.709 351.707 -106.769 354.671 -110.828 357.641 C-112.412 358.807 -113.995 359.973 -115.578 361.141 C-125.078 368.141 -125.078 368.141 -127.454 369.891 C-129.035 371.056 -130.616 372.221 -132.197 373.386 C-136.191 376.33 -140.186 379.272 -144.184 382.211 C-151.612 387.675 -159.027 393.153 -166.391 398.703 C-172.668 403.431 -179.017 408.051 -185.398 412.638 C-190.988 416.661 -196.54 420.733 -202.078 424.828 C-209.771 430.514 -217.521 436.113 -225.328 441.641 C-224.027 444.242 -223.061 444.295 -220.363 445.262 C-219.963 445.41 -219.963 445.41 -217.939 446.158 C-216.245 446.77 -214.55 447.379 -212.854 447.986 C-212.453 448.135 -212.453 448.135 -210.426 448.887 C-209.689 449.152 -208.951 449.416 -208.192 449.689 C-206.328 450.641 -206.328 450.641 -204.328 453.641 C-203.767 457.331 -203.905 459.021 -206.027 462.128 C-210.439 466.269 -216.874 466.795 -222.59 467.973 C-223.904 468.256 -225.218 468.54 -226.532 468.826 C-229.283 469.419 -232.036 470.001 -234.791 470.572 C-238.297 471.3 -241.798 472.053 -245.297 472.815 C-248.01 473.404 -250.726 473.982 -253.443 474.557 C-255.355 474.963 -257.265 475.375 -259.175 475.787 C-276.37 479.331 -276.37 479.331 -281.953 476.141 C-284.349 471.784 -283.817 467.535 -282.613 462.867 C-281.576 459.615 -280.461 456.401 -279.312 453.188 C-278.9 452.01 -278.488 450.832 -278.063 449.618 C-276.969 446.506 -275.864 443.399 -274.754 440.292 C-274.077 438.389 -273.411 436.482 -272.748 434.574 C-271.469 430.899 -270.175 427.23 -268.875 423.562 C-268.48 422.427 -268.085 421.292 -267.678 420.122 C-267.298 419.067 -266.918 418.012 -266.526 416.925 C-266.198 415.999 -265.869 415.072 -265.53 414.118 C-263.862 410.68 -261.757 408.355 -258.328 406.641 C-254.818 406.251 -252.905 406.3 -249.836 408.113 C-246.473 411.502 -245.426 414.903 -244.016 419.391 C-243.752 420.183 -243.488 420.976 -243.217 421.793 C-242.573 423.737 -241.948 425.688 -241.328 427.641 C-237.669 425.983 -234.505 423.736 -231.266 421.391 C-230.661 420.956 -230.057 420.521 -229.434 420.073 C-221.84 414.594 -214.314 409.022 -206.784 403.455 C-202.802 400.513 -198.815 397.577 -194.828 394.641 C-193.249 393.477 -191.669 392.313 -190.09 391.148 C-186.885 388.787 -183.68 386.428 -180.473 384.07 C-173.068 378.624 -165.674 373.166 -158.328 367.641 C-150.184 361.515 -141.98 355.472 -133.769 349.436 C-130.507 347.037 -127.248 344.634 -123.989 342.23 C-115.112 335.686 -106.225 329.157 -97.328 322.641 C-97.891 319.483 -98.663 316.72 -99.891 313.766 C-103.461 303.16 -101.798 292.621 -97.328 282.641 C-96.998 281.651 -96.668 280.661 -96.328 279.641 C-96.774 279.32 -97.22 279 -97.679 278.669 C-110.43 269.496 -123.092 260.206 -135.724 250.87 C-144.229 244.586 -152.746 238.32 -161.328 232.141 C-171.522 224.8 -181.622 217.336 -191.724 209.87 C-201.175 202.886 -210.646 195.933 -220.192 189.078 C-220.88 188.583 -221.568 188.088 -222.277 187.578 C-222.61 187.339 -222.61 187.339 -224.294 186.129 C-227.13 184.054 -229.905 181.903 -232.675 179.742 C-234.328 178.641 -234.328 178.641 -236.328 178.641 C-236.775 179.821 -237.223 181.002 -237.684 182.219 C-238.293 183.776 -238.904 185.334 -239.516 186.891 C-239.808 187.668 -240.1 188.445 -240.4 189.246 C-242.257 193.918 -243.829 196.993 -248.328 199.641 C-251.874 200.479 -255.237 200.261 -258.454 198.432 C-260.749 196.239 -261.338 194.576 -262.251 191.546 C-262.571 190.508 -262.891 189.469 -263.221 188.4 C-263.55 187.278 -263.879 186.156 -264.219 185 C-264.393 184.422 -264.393 184.422 -265.278 181.498 C-266.014 179.053 -266.743 176.605 -267.466 174.155 C-268.571 170.414 -269.702 166.681 -270.836 162.949 C-271.548 160.571 -272.259 158.192 -272.969 155.812 C-273.306 154.699 -273.644 153.585 -273.991 152.437 C-275.568 147.047 -276.966 142.268 -276.328 136.641 C-274.461 134.276 -273.008 132.98 -270.328 131.641 C-261.874 131.777 -253.568 133.367 -245.301 135.004 C-244.109 135.237 -242.917 135.47 -241.689 135.711 C-239.192 136.202 -236.695 136.697 -234.199 137.196 C-230.38 137.955 -226.556 138.692 -222.732 139.428 C-220.297 139.91 -217.861 140.394 -215.426 140.879 C-214.286 141.096 -213.147 141.313 -211.972 141.536 C-201.838 143.604 -201.838 143.604 -198.328 147.641 C-197.766 151.141 -197.766 151.141 -198.328 154.641 C-201.55 158.914 -205.703 160.202 -210.578 161.891 C-211.323 162.159 -212.068 162.427 -212.836 162.703 C-214.663 163.359 -216.495 164.001 -218.328 164.641 C-214.333 168.91 -209.973 172.215 -205.203 175.578 C-203.589 176.73 -201.976 177.882 -200.363 179.035 C-199.533 179.628 -198.703 180.22 -197.848 180.831 C-193.752 183.773 -189.696 186.768 -185.641 189.766 C-184.044 190.944 -182.448 192.122 -180.852 193.301 C-180.087 193.866 -179.322 194.43 -178.534 195.012 C-169.916 201.374 -161.269 207.691 -152.578 213.953 C-142.281 221.374 -132.074 228.914 -121.868 236.459 C-104.179 249.535 -104.179 249.535 -95.921 255.352 C-92.167 258.002 -88.564 260.787 -85.074 263.777 C-82.487 265.057 -81.072 264.448 -78.328 263.641 C-75.984 262.838 -73.651 262.002 -71.328 261.141 C-55.648 255.328 -40.236 256.531 -25.078 263.328 C-23.49 264.089 -21.904 264.856 -20.328 265.641 C-19.847 265.285 -19.366 264.929 -18.87 264.562 C-10.054 258.044 -1.226 251.545 7.672 245.141 C13.868 240.68 20.032 236.178 26.172 231.641 C33.049 226.559 39.962 221.531 46.902 216.535 C52.353 212.607 57.769 208.633 63.172 204.641 C72.289 197.905 81.472 191.263 90.672 184.641 C93.881 182.329 97.089 180.016 100.297 177.703 C101.019 177.184 101.741 176.664 102.485 176.129 C107.256 172.688 111.978 169.186 116.672 165.641 C115.672 163.641 115.672 163.641 112.434 162.492 C110.396 161.867 108.354 161.264 106.307 160.672 C102.139 159.385 99.322 158.167 96.672 154.641 C96.234 151.078 96.234 151.078 96.672 147.641 C99.691 143.808 103.802 143.41 108.359 142.453 C108.818 142.352 108.818 142.352 111.139 141.841 C118.072 140.339 125.031 138.973 131.992 137.609 C132.893 137.432 133.794 137.255 134.723 137.072 C139.304 136.171 143.887 135.28 148.473 134.407 C150.182 134.075 151.89 133.743 153.598 133.41 C154.398 133.261 155.198 133.113 156.022 132.959 C157.919 132.585 159.799 132.121 161.672 131.641 C162.002 130.981 162.332 130.321 162.672 129.641 C145.814 118.685 128.851 107.897 111.845 97.173 C106.799 93.99 101.764 90.79 96.734 87.582 C87.067 81.417 77.364 75.313 67.634 69.247 C60.957 65.08 54.306 60.875 47.672 56.641 C30.576 45.735 13.355 35.034 -3.933 24.435 C-8.924 21.37 -13.902 18.29 -18.84 15.141 C-19.264 14.87 -19.264 14.87 -21.411 13.501 C-22.949 12.516 -24.485 11.527 -26.017 10.532 C-51.629 -5.882 -68.945 0.843 -93.062 16.206 Z M-531.328 333.641 C-531.447 334.23 -531.447 334.23 -532.049 337.213 C-532.209 338.009 -532.37 338.805 -532.535 339.624 C-532.906 341.46 -533.276 343.296 -533.646 345.131 C-534.726 350.481 -535.805 355.83 -536.885 361.179 C-539.096 372.134 -541.306 383.089 -543.511 394.045 C-544.774 400.315 -546.037 406.585 -547.301 412.855 C-547.427 413.484 -547.427 413.484 -548.068 416.664 C-551.322 432.797 -554.612 448.921 -557.956 465.034 C-559.151 470.803 -560.339 476.573 -561.527 482.343 C-562.626 487.678 -563.74 493.01 -564.863 498.341 C-565.555 501.636 -566.233 504.934 -566.908 508.233 C-567.216 509.727 -567.53 511.219 -567.85 512.711 C-571.319 528.905 -572.495 543.642 -563.703 558.328 C-557.362 567.197 -547.291 572.815 -538.398 578.859 C-532.298 583.012 -526.315 587.327 -520.328 591.641 C-518.926 592.648 -517.523 593.656 -516.121 594.664 C-505.933 601.995 -495.814 609.415 -485.719 616.875 C-481.758 619.8 -477.793 622.72 -473.828 625.641 C-472.245 626.807 -470.661 627.974 -469.078 629.141 C-468.294 629.718 -467.511 630.296 -466.703 630.891 C-457.995 637.307 -449.286 643.724 -440.578 650.141 C-439.794 650.718 -439.01 651.296 -438.202 651.891 C-436.621 653.056 -435.041 654.221 -433.46 655.386 C-429.466 658.33 -425.47 661.272 -421.473 664.211 C-413.411 670.14 -405.37 676.093 -397.375 682.111 C-392.324 685.908 -387.236 689.653 -382.141 693.391 C-373.371 699.83 -364.714 706.412 -356.07 713.02 C-350.517 717.264 -344.929 721.459 -339.328 725.641 C-329.554 732.942 -319.826 740.3 -310.127 747.702 C-301.264 754.462 -292.346 761.147 -283.414 767.816 C-274.275 774.652 -265.207 781.579 -256.133 788.501 C-253.344 790.629 -250.553 792.754 -247.762 794.879 C-238.265 802.108 -228.78 809.353 -219.328 816.641 C-217.162 818.308 -214.995 819.974 -212.828 821.641 C-211.745 822.474 -210.661 823.307 -209.578 824.141 C-209.042 824.553 -208.506 824.966 -207.953 825.391 C-206.328 826.641 -204.703 827.891 -203.078 829.141 C-202.542 829.553 -202.006 829.965 -201.454 830.39 C-200.367 831.226 -199.279 832.063 -198.192 832.899 C-195.547 834.934 -192.901 836.968 -190.254 839 C-183.141 844.462 -176.057 849.958 -168.982 855.468 C-164.608 858.872 -160.225 862.265 -155.828 865.641 C-145.278 873.743 -134.781 881.914 -124.328 890.141 C-116.795 896.069 -109.235 901.962 -101.657 907.833 C-99.28 909.678 -96.912 911.532 -94.543 913.387 C-93.013 914.576 -91.483 915.765 -89.953 916.953 C-89.246 917.51 -88.538 918.068 -87.809 918.642 C-87.148 919.153 -86.486 919.665 -85.805 920.191 C-85.228 920.642 -84.651 921.092 -84.057 921.556 C-82.159 922.747 -80.499 923.145 -78.328 923.641 C-78.817 893.509 -79.31 863.377 -79.806 833.245 C-79.865 829.673 -79.923 826.101 -79.982 822.53 C-79.994 821.819 -80.006 821.108 -80.018 820.375 C-80.206 808.921 -80.393 797.467 -80.578 786.013 C-80.769 774.227 -80.963 762.441 -81.158 750.655 C-81.267 744.049 -81.376 737.443 -81.482 730.837 C-81.582 724.597 -81.685 718.357 -81.789 712.118 C-81.827 709.849 -81.864 707.579 -81.899 705.31 C-81.996 699.145 -82.115 692.981 -82.261 686.817 C-82.308 684.585 -82.346 682.354 -82.376 680.122 C-82.426 676.55 -82.503 672.979 -82.585 669.407 C-82.594 668.308 -82.603 667.208 -82.612 666.075 C-82.825 658.44 -82.825 658.44 -85.373 654.392 C-87.609 652.472 -89.848 651.06 -92.457 649.698 C-96.286 647.534 -99.698 644.723 -103.203 642.078 C-104.855 640.866 -106.509 639.657 -108.164 638.449 C-113.436 634.579 -118.636 630.617 -123.828 626.641 C-131.239 620.97 -138.704 615.383 -146.228 609.864 C-156.031 602.669 -165.74 595.35 -175.456 588.04 C-177.434 586.552 -179.412 585.065 -181.391 583.578 C-182.025 583.101 -182.66 582.624 -183.314 582.133 C-188.524 578.227 -193.768 574.37 -199.016 570.516 C-205.377 565.843 -211.664 561.094 -217.902 556.258 C-222.909 552.407 -228.018 548.691 -233.109 544.953 C-238.204 541.211 -243.278 537.443 -248.328 533.641 C-256.476 527.511 -264.685 521.466 -272.9 515.427 C-275.311 513.653 -277.718 511.876 -280.125 510.098 C-290.069 502.751 -300.06 495.473 -310.094 488.25 C-313.842 485.551 -317.585 482.845 -321.328 480.141 C-322.07 479.605 -322.812 479.069 -323.576 478.518 C-327.341 475.8 -331.103 473.08 -334.863 470.355 C-342.851 464.571 -350.867 458.833 -358.934 453.16 C-364.094 449.526 -369.217 445.844 -374.328 442.141 C-382.256 436.398 -390.238 430.738 -398.246 425.107 C-400.287 423.67 -402.326 422.228 -404.363 420.785 C-415.308 413.037 -426.312 405.376 -437.326 397.727 C-440.334 395.636 -443.341 393.543 -446.348 391.449 C-456.665 384.263 -466.991 377.091 -477.365 369.986 C-479.391 368.597 -481.416 367.207 -483.441 365.816 C-493.193 359.126 -502.972 352.476 -512.758 345.837 C-514.177 344.875 -515.596 343.912 -517.014 342.948 C-519.015 341.589 -521.017 340.232 -523.02 338.875 C-523.627 338.462 -524.234 338.049 -524.86 337.624 C-529.099 334.755 -529.099 334.755 -531.328 333.641 Z M419.305 337.027 C418.594 337.547 417.882 338.067 417.15 338.602 C416.761 338.887 416.761 338.887 414.797 340.328 C408.266 345.087 401.673 349.732 394.984 354.266 C387.4 359.416 379.982 364.751 372.616 370.208 C361.746 378.221 350.731 386.036 339.688 393.809 C336.004 396.403 332.335 399.017 328.672 401.641 C323.605 405.269 318.518 408.866 313.422 412.453 C305.219 418.232 297.081 424.099 288.956 429.986 C285.113 432.77 281.268 435.549 277.422 438.328 C276.669 438.872 275.916 439.416 275.141 439.976 C270.103 443.614 265.051 447.232 259.99 450.839 C252.966 455.85 245.978 460.911 238.986 465.967 C235.963 468.153 232.938 470.338 229.913 472.522 C228.416 473.604 226.918 474.685 225.421 475.767 C221.685 478.466 217.947 481.163 214.207 483.855 C205.691 489.989 197.215 496.174 188.775 502.412 C183.456 506.34 178.105 510.22 172.734 514.078 C165.489 519.288 158.335 524.614 151.206 529.982 C143.2 536.007 135.136 541.952 127.062 547.885 C116.975 555.296 106.89 562.707 96.891 570.234 C91.841 574.022 86.745 577.748 81.66 581.488 C77.316 584.686 72.982 587.896 68.672 591.141 C62.701 595.635 56.68 600.06 50.66 604.488 C46.316 607.686 41.982 610.896 37.672 614.141 C28.577 620.984 19.388 627.703 10.218 634.445 C8.604 635.631 6.991 636.818 5.377 638.005 C3.787 639.175 2.196 640.343 0.603 641.51 C-3.19 644.296 -6.952 647.109 -10.656 650.012 C-18.172 655.873 -25.103 660.757 -34.328 663.641 C-35.023 663.882 -35.718 664.123 -36.434 664.371 C-41.768 665.909 -47.133 665.722 -52.633 665.684 C-53.051 665.682 -53.051 665.682 -55.168 665.674 C-57.221 665.666 -59.275 665.654 -61.328 665.641 C-60.683 717.253 -59.945 768.864 -59.124 820.474 C-58.94 832.101 -58.758 843.728 -58.581 855.355 C-58.454 863.706 -58.322 872.058 -58.189 880.409 C-58.11 885.339 -58.032 890.27 -57.959 895.2 C-57.891 899.767 -57.818 904.334 -57.742 908.901 C-57.715 910.572 -57.69 912.243 -57.666 913.914 C-57.634 916.186 -57.595 918.458 -57.556 920.73 C-57.536 922 -57.516 923.27 -57.495 924.579 C-57.328 927.641 -57.328 927.641 -56.328 930.641 C-36.448 931.57 -21.557 926.351 -6.406 913.266 C-2.915 910.257 0.732 907.466 4.396 904.671 C4.945 904.252 5.493 903.834 6.059 903.402 C6.633 902.965 7.207 902.527 7.798 902.076 C11.417 899.304 15.012 896.502 18.609 893.703 C19.377 893.106 20.145 892.508 20.937 891.893 C25.63 888.239 30.312 884.571 34.984 880.891 C39.799 877.099 44.64 873.344 49.504 869.616 C53.412 866.618 57.299 863.594 61.182 860.563 C68.37 854.952 75.605 849.417 82.916 843.967 C87.774 840.337 92.555 836.619 97.311 832.857 C104.042 827.54 110.872 822.353 117.692 817.151 C124.077 812.278 130.446 807.384 136.773 802.438 C145.603 795.538 154.501 788.745 163.482 782.043 C168.916 777.98 174.28 773.842 179.596 769.625 C184.47 765.77 189.439 762.051 194.422 758.338 C199.639 754.44 204.789 750.462 209.922 746.453 C215.671 741.964 221.45 737.525 227.301 733.168 C231.868 729.757 236.391 726.287 240.922 722.828 C247.968 717.451 255.036 712.105 262.136 706.798 C266.172 703.776 270.182 700.724 274.172 697.641 C282.248 691.401 290.43 685.305 298.604 679.196 C307.829 672.301 317.007 665.347 326.164 658.361 C332.642 653.421 339.144 648.515 345.672 643.641 C354.479 637.062 363.251 630.442 371.984 623.766 C379.619 617.931 387.316 612.19 395.067 606.51 C399.503 603.256 403.89 599.954 408.234 596.578 C413.183 592.743 418.215 589.046 423.297 585.391 C424.048 584.85 424.798 584.309 425.572 583.751 C428.79 581.432 432.009 579.115 435.235 576.808 C437.804 574.969 440.363 573.118 442.922 571.266 C443.315 570.986 443.315 570.986 445.303 569.573 C452.17 564.578 457.348 559.551 460.484 551.516 C460.684 551.019 460.684 551.019 461.691 548.508 C466.326 534.954 462.482 521.265 459.605 507.758 C459.174 505.689 458.744 503.62 458.315 501.55 C457.401 497.152 456.479 492.756 455.552 488.361 C454.099 481.476 452.662 474.589 451.229 467.7 C449.777 460.728 448.325 453.757 446.868 446.786 C443.894 432.556 440.958 418.319 438.078 404.07 C437.905 403.212 437.731 402.354 437.552 401.469 C436.093 394.248 434.64 387.027 433.187 379.805 C427.092 349.514 427.092 349.514 423.672 334.641 C421.907 334.641 420.687 336.011 419.305 337.027 Z " fill="#000000" transform="translate(676.328125,158.359375)"/>
</svg>
