<?xml version="1.0" encoding="UTF-8"?>
<!-- Generator: visioncortex VTracer 0.6.12 -->
<svg version="1.1" xmlns="http://www.w3.org/2000/svg" width="256" height="256" viewBox="0 0 256 256" fill="none">
<path d="M0 0 C0.569 -0.004 0.569 -0.004 3.448 -0.022 C7.182 -0.038 10.915 -0.019 14.648 0.002 C17.258 0.001 19.868 -0.001 22.477 -0.005 C27.935 -0.01 33.393 0.006 38.851 0.034 C45.14 0.066 51.429 0.066 57.719 0.049 C63.797 0.033 69.875 0.04 75.954 0.057 C78.528 0.062 81.102 0.062 83.677 0.055 C87.278 0.05 90.879 0.07 94.48 0.098 C95.008 0.094 95.008 0.094 97.678 0.078 C107.039 0.198 114.521 2.825 121.176 9.631 C125.93 16.512 127.987 24.071 130.113 32.069 C130.808 34.594 131.506 37.119 132.207 39.643 C132.543 40.855 132.88 42.067 133.226 43.316 C134.392 47.388 135.712 51.385 137.113 55.381 C140.071 63.902 142.494 72.574 144.926 81.256 C145.122 81.958 145.319 82.66 145.522 83.383 C146.757 87.794 147.985 92.207 149.176 96.631 C149.539 97.781 149.902 98.932 150.277 100.117 C151.868 106.597 151.505 113.374 151.511 120.006 C151.518 121.5 151.525 122.994 151.532 124.488 C151.544 127.608 151.547 130.728 151.546 133.848 C151.546 137.829 151.573 141.809 151.608 145.79 C151.63 148.872 151.634 151.953 151.633 155.035 C151.635 156.502 151.644 157.969 151.66 159.436 C151.736 167.384 151.712 173.834 147.176 180.631 C141.932 185.612 138.079 186.88 130.884 186.905 C130.147 186.91 129.411 186.916 128.653 186.921 C126.185 186.936 123.717 186.937 121.249 186.938 C119.48 186.945 117.711 186.954 115.941 186.963 C111.133 186.985 106.325 186.993 101.517 186.999 C98.512 187.002 95.507 187.008 92.502 187.016 C82.013 187.04 71.525 187.053 61.037 187.057 C51.267 187.06 41.499 187.09 31.73 187.132 C23.338 187.167 14.946 187.182 6.555 187.183 C1.545 187.184 -3.465 187.192 -8.475 187.221 C-13.19 187.247 -17.905 187.249 -22.621 187.233 C-24.348 187.231 -26.074 187.238 -27.8 187.254 C-45.337 187.406 -45.337 187.406 -51.824 181.631 C-55.863 176.685 -57.069 172.563 -57.147 166.186 C-57.166 164.899 -57.185 163.613 -57.205 162.287 C-57.215 160.883 -57.223 159.48 -57.231 158.076 C-57.236 157.359 -57.242 156.643 -57.248 155.904 C-57.278 152.091 -57.296 148.278 -57.305 144.465 C-57.314 141.357 -57.341 138.251 -57.387 135.144 C-57.658 116.446 -56.848 99.559 -50.824 81.631 C-50.153 79.403 -49.485 77.174 -48.824 74.944 C-48.514 73.968 -48.203 72.992 -47.883 71.987 C-46.771 68.46 -45.715 64.92 -44.664 61.375 C-42.252 53.244 -39.71 45.186 -36.973 37.158 C-35.805 33.57 -34.805 29.962 -33.824 26.319 C-31.596 18.417 -29.214 10.065 -21.824 5.631 C-21.149 5.223 -20.474 4.815 -19.778 4.395 C-13.049 0.651 -7.622 -0.085 0 0 Z M-16.824 18.631 C-27.303 33.6 -23.407 63.003 -23.824 80.631 C-23.858 81.88 -23.892 83.128 -23.927 84.415 C-24.022 88.216 -24.085 92.017 -24.137 95.819 C-24.167 96.982 -24.197 98.146 -24.227 99.345 C-24.275 106.27 -23.599 110.765 -19.824 116.631 C-15.466 120.009 -11.358 120.753 -5.949 120.772 C-4.969 120.777 -3.989 120.783 -2.98 120.789 C-1.911 120.79 -0.842 120.791 0.259 120.792 C1.389 120.797 2.52 120.802 3.685 120.807 C7.428 120.822 11.171 120.829 14.914 120.834 C17.515 120.84 20.115 120.846 22.716 120.852 C27.474 120.861 32.231 120.867 36.989 120.87 C43.981 120.874 50.973 120.892 57.965 120.921 C64.031 120.945 70.096 120.953 76.162 120.955 C78.738 120.958 81.314 120.966 83.89 120.979 C87.495 120.996 91.099 120.994 94.704 120.988 C95.235 120.992 95.235 120.992 97.924 121.015 C104.491 120.978 109.77 120.58 114.934 116.108 C118.245 111.399 118.868 107.766 118.699 102.076 C118.697 101.671 118.697 101.671 118.686 99.62 C118.666 96.998 118.609 94.378 118.551 91.756 C118.527 89.941 118.506 88.125 118.486 86.31 C118.419 81.083 118.303 75.857 118.176 70.631 C118.147 69.313 118.118 67.994 118.088 66.636 C117.919 59.624 117.626 52.63 117.176 45.631 C117.116 44.688 117.057 43.745 116.996 42.773 C116.811 40.014 116.595 37.261 116.363 34.506 C116.305 33.706 116.247 32.906 116.188 32.081 C115.54 25.376 113.155 21.105 108.926 15.819 C102.92 11.041 95.377 11.336 88.031 11.356 C87.539 11.354 87.539 11.354 85.052 11.341 C81.822 11.327 78.593 11.328 75.363 11.33 C73.107 11.326 70.851 11.322 68.594 11.317 C63.874 11.31 59.153 11.31 54.432 11.315 C48.393 11.321 42.355 11.304 36.316 11.281 C31.659 11.266 27.002 11.265 22.346 11.269 C20.119 11.268 17.893 11.263 15.667 11.253 C12.551 11.24 9.436 11.247 6.32 11.259 C5.864 11.255 5.864 11.255 3.555 11.236 C-4.328 11.3 -10.985 12.958 -16.824 18.631 Z M126.176 64.631 C125.996 72.01 125.875 79.388 125.791 86.769 C125.756 89.272 125.709 91.775 125.647 94.277 C125.28 109.734 125.851 121.884 133.176 135.631 C134.313 138.075 135.398 140.54 136.488 143.006 C137.913 146.09 139.288 148.8 141.176 151.631 C141.616 114.752 141.616 114.752 137.176 98.631 C137.066 98.232 137.066 98.232 136.513 96.213 C133.597 85.628 130.478 75.102 127.176 64.631 C126.846 64.631 126.516 64.631 126.176 64.631 Z M-32.824 66.631 C-35.297 73.924 -37.592 81.261 -39.824 88.631 C-40.039 89.329 -40.254 90.027 -40.475 90.747 C-41.161 92.977 -41.837 95.21 -42.512 97.444 C-42.726 98.136 -42.941 98.829 -43.162 99.543 C-43.364 100.218 -43.566 100.893 -43.774 101.588 C-43.952 102.176 -44.131 102.763 -44.315 103.369 C-45.714 109.587 -45.967 115.728 -45.922 122.069 C-45.921 122.834 -45.919 123.6 -45.918 124.388 C-45.912 126.803 -45.9 129.217 -45.887 131.631 C-45.882 133.281 -45.877 134.931 -45.873 136.58 C-45.862 140.597 -45.845 144.614 -45.824 148.631 C-42.938 147.188 -42.705 145.35 -41.512 142.381 C-41.075 141.3 -40.638 140.218 -40.188 139.104 C-38.418 134.596 -36.675 130.079 -34.965 125.549 C-34.041 123.186 -33.041 120.919 -31.949 118.631 C-30.824 115.631 -30.824 115.631 -31.248 113.576 C-32.099 109.228 -31.946 104.937 -31.922 100.518 C-31.921 99.548 -31.919 98.579 -31.918 97.58 C-31.912 94.493 -31.9 91.406 -31.887 88.319 C-31.882 86.222 -31.877 84.125 -31.873 82.028 C-31.862 76.895 -31.845 71.763 -31.824 66.631 C-32.154 66.631 -32.484 66.631 -32.824 66.631 Z M-24.824 124.631 C-29.645 135.554 -34.338 146.525 -38.941 157.541 C-39.787 159.542 -40.658 161.529 -41.531 163.518 C-42.807 166.589 -43.459 168.37 -42.824 171.631 C-35.188 178.438 -23.169 176.924 -13.619 176.906 C-12.107 176.91 -10.595 176.915 -9.082 176.921 C-5.002 176.935 -0.921 176.935 3.159 176.933 C6.576 176.932 9.993 176.937 13.41 176.941 C21.474 176.952 29.539 176.953 37.604 176.947 C45.903 176.941 54.202 176.953 62.501 176.974 C69.648 176.992 76.794 176.998 83.941 176.995 C88.2 176.993 92.459 176.995 96.719 177.009 C100.724 177.022 104.73 177.02 108.735 177.007 C110.198 177.005 111.662 177.007 113.125 177.016 C128.936 177.099 128.936 177.099 136.176 173.631 C137.616 170.751 137.446 168.854 137.176 165.631 C136.206 162.756 134.92 160.055 133.613 157.319 C132.877 155.725 132.142 154.129 131.41 152.533 C131.037 151.724 130.664 150.914 130.279 150.08 C128.232 145.537 126.38 140.913 124.523 136.29 C122.91 132.305 121.15 128.45 119.176 124.631 C118.849 124.773 118.849 124.773 117.195 125.488 C109.963 128.397 103.819 129.203 96.07 129.133 C95.492 129.136 95.492 129.136 92.567 129.149 C88.779 129.162 84.991 129.145 81.203 129.127 C78.552 129.127 75.901 129.129 73.251 129.132 C67.709 129.134 62.167 129.121 56.625 129.098 C50.242 129.071 43.86 129.069 37.476 129.081 C31.303 129.092 25.131 129.086 18.958 129.071 C16.345 129.067 13.733 129.067 11.12 129.071 C7.464 129.073 3.808 129.057 0.152 129.035 C-0.383 129.037 -0.383 129.037 -3.087 129.049 C-9.815 128.983 -15.498 127.903 -21.824 125.631 C-22.814 125.301 -23.804 124.971 -24.824 124.631 Z " fill="#2D241C" transform="translate(80.824462890625,34.368896484375)"/>
<path d="M0 0 C0.98 -0.003 1.959 -0.005 2.969 -0.008 C5.5 0.125 5.5 0.125 7.5 1.125 C8.426 2.729 8.426 2.729 9.383 4.816 C9.742 5.589 10.1 6.361 10.47 7.157 C10.851 7.992 11.232 8.827 11.625 9.688 C12.432 11.425 13.241 13.162 14.051 14.898 C14.255 15.337 14.255 15.337 15.288 17.554 C17.071 21.336 18.932 25.078 20.812 28.812 C21.125 29.434 21.438 30.055 21.76 30.696 C22.365 31.896 22.971 33.097 23.578 34.297 C24.903 36.924 26.22 39.556 27.534 42.19 C28.419 43.964 29.311 45.734 30.203 47.504 C30.714 48.554 31.224 49.605 31.75 50.688 C32.271 51.741 32.792 52.794 33.328 53.879 C34.649 57.537 34.856 60.264 34.5 64.125 C32.119 66.506 31.393 66.47 28.125 66.562 C24.746 66.465 23.82 66.386 21.125 64.188 C19.5 61.125 19.5 61.125 16.5 52.125 C11.055 52.29 11.055 52.29 -16.5 53.125 C-18.48 57.085 -20.46 61.045 -22.5 65.125 C-24.745 66.248 -26.015 66.259 -28.5 66.25 C-28.851 66.251 -28.851 66.251 -30.625 66.258 C-32.5 66.125 -32.5 66.125 -34.5 65.125 C-35.817 55.908 -32.326 50.344 -27.949 42.582 C-25.595 38.392 -23.622 34.11 -21.75 29.688 C-19.202 23.717 -16.523 17.871 -13.5 12.125 C-12.982 11.13 -12.464 10.135 -11.93 9.109 C-7.085 -0.019 -7.085 -0.019 0 0 Z M-0.5 19.125 C-2.01 21.89 -3.506 24.663 -5 27.438 C-5.429 28.223 -5.859 29.009 -6.301 29.818 C-6.504 30.197 -6.504 30.197 -7.531 32.113 C-7.72 32.462 -7.72 32.462 -8.674 34.224 C-9.5 36.125 -9.5 36.125 -9.5 39.125 C-3.23 39.125 3.04 39.125 9.5 39.125 C7.949 33.697 6.548 29.988 3.875 25.188 C3.243 24.044 2.612 22.901 1.961 21.723 C1.479 20.865 0.997 20.008 0.5 19.125 C0.17 19.125 -0.16 19.125 -0.5 19.125 Z " fill="#2D241C" transform="translate(128.5,58.875)"/>
<path d="M0 0 C0.394 -0.002 0.394 -0.002 2.386 -0.011 C4.99 -0.019 7.593 -0.006 10.197 0.009 C12.004 0.01 13.811 0.009 15.618 0.008 C19.405 0.008 23.192 0.018 26.979 0.036 C31.841 0.059 36.702 0.059 41.564 0.053 C45.294 0.049 49.025 0.056 52.756 0.066 C54.549 0.07 56.342 0.071 58.135 0.069 C60.637 0.069 63.139 0.081 65.641 0.098 C66.386 0.095 67.132 0.093 67.9 0.09 C73.027 0.144 73.027 0.144 75.256 2.372 C75.556 4.247 75.556 4.247 75.568 6.372 C75.585 7.074 75.602 7.775 75.619 8.497 C75.499 9.116 75.379 9.735 75.256 10.372 C71.608 12.804 68.924 12.648 64.711 12.615 C64.328 12.616 64.328 12.616 62.389 12.621 C59.855 12.625 57.321 12.614 54.787 12.603 C53.027 12.602 51.267 12.601 49.508 12.601 C45.819 12.6 42.13 12.592 38.442 12.578 C33.71 12.561 28.979 12.557 24.248 12.558 C20.614 12.558 16.98 12.552 13.346 12.545 C11.601 12.542 9.856 12.54 8.112 12.539 C5.675 12.537 3.238 12.528 0.801 12.518 C0.439 12.518 0.439 12.518 -1.391 12.519 C-4.452 12.499 -6.816 12.349 -9.744 11.372 C-11.089 3.914 -11.089 3.914 -9.724 1.768 C-6.694 -0.368 -3.573 -0.037 0 0 Z " fill="#2D241C" transform="translate(95.744384765625,131.627685546875)"/>
</svg>
