<?xml version="1.0" encoding="UTF-8"?>
<!-- Generator: visioncortex VTracer 0.6.12 -->
<svg version="1.1" xmlns="http://www.w3.org/2000/svg" width="256" height="256" viewBox="0 0 256 256" fill="none">
<path d="M0 0 C2.64 0 5.28 0 8 0 C8 3.3 8 6.6 8 10 C8.825 9.34 9.65 8.68 10.5 8 C14.345 5.388 17.457 5.687 22 6 C22 7.98 22 9.96 22 12 C43.45 12 64.9 12 87 12 C87 10.02 87 8.04 87 6 C93.118 5.501 96.025 6.751 101 10 C100.988 9.362 100.977 8.724 100.965 8.066 C100.956 7.24 100.947 6.414 100.938 5.562 C100.926 4.739 100.914 3.915 100.902 3.066 C101 1 101 1 102 0 C105.5 -0.125 105.5 -0.125 109 0 C110.883 1.883 110.131 5.119 110.133 7.625 C110.134 8.287 110.135 8.949 110.136 9.631 C110.136 11.034 110.135 12.436 110.13 13.838 C110.125 15.991 110.13 18.144 110.137 20.297 C110.136 21.656 110.135 23.016 110.133 24.375 C110.132 25.62 110.131 26.865 110.129 28.148 C110 31 110 31 109 32 C105.5 32.125 105.5 32.125 102 32 C99.953 29.953 100.3 25.696 100 23 C99.154 23.495 98.309 23.99 97.438 24.5 C93.662 26.147 91.072 26.244 87 26 C87 24.35 87 22.7 87 21 C65.55 21 44.1 21 22 21 C22 22.65 22 24.3 22 26 C16.606 26.274 13.481 26.361 9 23 C8.856 24.299 8.711 25.599 8.562 26.938 C8.125 30.875 8.125 30.875 7 32 C4.69 32 2.38 32 0 32 C0 21.44 0 10.88 0 0 Z " fill="#2D241C" transform="translate(78,37)"/>
<path d="M0 0 C1.733 -0.002 3.466 -0.005 5.199 -0.009 C8.816 -0.013 12.434 -0.007 16.051 0.007 C20.664 0.024 25.277 0.015 29.89 -0.003 C33.464 -0.014 37.038 -0.011 40.612 -0.003 C42.312 -0.001 44.012 -0.003 45.712 -0.01 C68.795 -0.085 68.795 -0.085 76.623 7.407 C79.783 11.686 80.94 16.774 82.344 21.836 C82.525 22.455 82.525 22.455 83.443 25.59 C84.245 28.332 85.029 31.078 85.802 33.828 C86.956 37.93 88.144 42.021 89.337 46.111 C90.367 49.645 91.387 53.181 92.404 56.719 C92.903 58.457 93.405 60.194 93.907 61.931 C94.615 64.385 95.311 66.842 96.004 69.301 C96.216 70.031 96.428 70.761 96.646 71.513 C97.778 75.578 98.315 79.181 98.094 83.398 C99.414 83.068 100.734 82.738 102.094 82.398 C101.764 81.883 101.764 81.883 100.094 79.273 C98.13 75.86 97.62 73.381 98.094 69.398 C98.424 69.068 98.754 68.738 99.094 68.398 C100.744 68.398 102.394 68.398 104.094 68.398 C104.094 57.178 104.094 45.958 104.094 34.398 C102.114 34.398 100.134 34.398 98.094 34.398 C97.594 28.281 98.845 25.373 102.094 20.398 C99.124 20.068 96.154 19.738 93.094 19.398 C93.094 16.758 93.094 14.118 93.094 11.398 C97.205 11.374 101.317 11.356 105.429 11.344 C106.829 11.338 108.228 11.332 109.628 11.323 C111.636 11.311 113.644 11.306 115.652 11.301 C116.257 11.298 116.257 11.298 119.318 11.285 C122.094 11.398 122.094 11.398 123.094 12.398 C123.219 15.398 123.219 15.398 123.094 18.398 C121.047 20.445 116.79 20.099 114.094 20.398 C114.274 20.652 114.274 20.652 115.188 21.938 C118.082 26.231 119.764 29.033 119.094 34.398 C116.784 34.398 114.474 34.398 112.094 34.398 C112.094 45.618 112.094 56.838 112.094 68.398 C114.074 68.398 116.054 68.398 118.094 68.398 C119.094 69.398 119.094 69.398 119.406 72.023 C118.999 76.419 117.459 78.702 115.094 82.398 C116.228 82.543 117.363 82.687 118.531 82.836 C122.094 83.398 122.094 83.398 123.094 84.398 C123.219 87.898 123.219 87.898 123.094 91.398 C122.094 92.398 122.094 92.398 119.869 92.512 C119.39 92.509 119.39 92.509 116.965 92.496 C116.448 92.494 116.448 92.494 113.83 92.486 C112.741 92.478 111.653 92.47 110.531 92.461 C109.985 92.459 109.985 92.459 107.221 92.447 C104.512 92.435 101.803 92.419 99.094 92.398 C99.104 93.2 99.115 94.001 99.125 94.826 C99.167 98.496 99.193 102.166 99.219 105.836 C99.236 107.096 99.252 108.356 99.27 109.654 C99.358 126.523 99.358 126.523 94.781 132.336 C90.486 135.633 86.94 136.648 81.56 136.652 C80.459 136.658 79.359 136.664 78.225 136.669 C77.626 136.667 77.626 136.667 74.596 136.657 C73.327 136.661 72.058 136.664 70.751 136.668 C67.278 136.677 63.805 136.673 60.332 136.667 C56.692 136.662 53.053 136.667 49.414 136.67 C43.301 136.673 37.189 136.669 31.077 136.659 C24.018 136.648 16.959 136.652 9.9 136.663 C3.833 136.672 -2.235 136.673 -8.302 136.668 C-11.923 136.665 -15.543 136.664 -19.164 136.671 C-23.202 136.678 -27.241 136.668 -31.279 136.657 C-32.475 136.661 -33.67 136.665 -34.902 136.669 C-44.918 136.618 -44.918 136.618 -49.906 134.398 C-50.088 135.145 -50.27 135.891 -50.457 136.66 C-52.459 140.444 -55.332 141.564 -59.094 143.211 C-59.418 143.367 -59.418 143.367 -61.057 144.154 C-65.464 146.158 -68.985 146.817 -73.906 146.398 C-74.906 145.398 -74.906 145.398 -75.156 142.523 C-74.906 139.398 -74.906 139.398 -73.406 137.523 C-73.159 137.338 -73.159 137.338 -71.906 136.398 C-72.236 136.213 -72.236 136.213 -73.906 135.273 C-75.906 133.398 -75.906 133.398 -76.156 130.211 C-76.115 129.747 -76.115 129.747 -75.906 127.398 C-75.246 127.398 -74.586 127.398 -73.906 127.398 C-74.195 126.784 -74.484 126.169 -74.781 125.535 C-75.153 124.727 -75.524 123.919 -75.906 123.086 C-76.092 122.686 -76.092 122.686 -77.031 120.66 C-77.906 118.398 -77.906 118.398 -77.906 115.398 C-80.216 115.398 -82.526 115.398 -84.906 115.398 C-84.906 113.088 -84.906 110.778 -84.906 108.398 C-86.556 108.398 -88.206 108.398 -89.906 108.398 C-90.243 105.425 -90.478 103.285 -89.906 100.398 C-87.587 98.189 -85.928 96.92 -83.219 95.398 C-82.593 95.005 -81.967 94.612 -81.322 94.207 C-77.796 92.087 -75.041 90.683 -70.906 91.398 C-68.906 93.398 -68.906 93.398 -68.781 96.023 C-68.823 96.807 -68.864 97.591 -68.906 98.398 C-69.566 98.728 -69.566 98.728 -72.906 100.398 C-72.906 101.058 -72.906 101.718 -72.906 102.398 C-71.256 103.058 -69.606 103.718 -67.906 104.398 C-67.781 107.273 -67.781 107.273 -67.906 110.398 C-68.236 110.728 -68.236 110.728 -69.906 112.398 C-68.82 115.561 -67.678 118.553 -65.906 121.398 C-62.656 122.461 -62.656 122.461 -59.906 122.398 C-59.906 125.698 -59.906 128.998 -59.906 132.398 C-58.916 132.068 -58.916 132.068 -53.906 130.398 C-54.223 129.873 -54.54 129.347 -54.867 128.805 C-57.278 123.222 -56.713 116.419 -56.906 110.398 C-56.946 109.359 -56.985 108.32 -57.025 107.249 C-57.145 103.736 -57.218 100.225 -57.281 96.711 C-57.319 95.615 -57.358 94.52 -57.397 93.391 C-57.566 75.949 -51.372 58.887 -46.195 42.419 C-45.333 39.676 -44.483 36.929 -43.635 34.182 C-35.529 8.074 -35.529 8.074 -27.906 3.398 C-19.109 -0.656 -9.456 -0.039 0 0 Z M-25.406 15.898 C-32.639 27.953 -30.128 52.528 -30.344 66.398 C-30.378 67.518 -30.412 68.638 -30.448 69.791 C-30.494 78.381 -30.494 78.381 -27.816 82.023 C-22.478 86.38 -16.554 86.696 -9.879 86.673 C-9.109 86.678 -8.339 86.683 -7.545 86.689 C-5.02 86.702 -2.494 86.702 0.031 86.699 C1.798 86.703 3.565 86.707 5.332 86.712 C9.027 86.72 12.722 86.719 16.417 86.714 C21.141 86.708 25.865 86.725 30.589 86.748 C34.235 86.763 37.881 86.764 41.528 86.761 C43.269 86.761 45.011 86.767 46.752 86.777 C49.19 86.789 51.628 86.782 54.066 86.771 C54.778 86.778 55.49 86.786 56.224 86.794 C62.286 86.731 66.873 85.31 71.508 81.32 C73.816 77.068 73.603 73.413 73.469 68.648 C73.454 67.671 73.439 66.693 73.423 65.686 C73.35 62.254 73.229 58.828 73.094 55.398 C73.067 54.721 73.041 54.044 73.014 53.346 C72.837 48.931 72.632 44.518 72.398 40.106 C72.321 38.644 72.247 37.182 72.176 35.719 C72.073 33.643 71.951 31.568 71.824 29.492 C71.756 28.293 71.688 27.093 71.618 25.857 C70.926 21.295 69.455 17.477 66.906 13.586 C59.578 8.784 49.484 10.089 41.098 10.098 C39.539 10.094 37.98 10.089 36.421 10.085 C33.164 10.077 29.907 10.077 26.65 10.083 C22.497 10.089 18.344 10.072 14.19 10.048 C10.974 10.034 7.757 10.033 4.541 10.036 C3.011 10.035 1.48 10.03 -0.05 10.02 C-19.415 9.908 -19.415 9.908 -25.406 15.898 Z M-37.906 51.398 C-43.546 69.177 -48.628 85.519 -46.906 104.398 C-35.937 87.945 -36.773 70.448 -36.906 51.398 C-37.236 51.398 -37.566 51.398 -37.906 51.398 Z M80.094 56.398 C79.136 74.202 79.284 88.607 88.094 104.398 C88.424 104.398 88.754 104.398 89.094 104.398 C90.26 89.029 88.863 69.552 80.094 56.398 Z M-31.906 90.398 C-43.19 115.73 -43.19 115.73 -44.906 123.398 C-41.341 125.821 -38.967 126.774 -34.662 126.786 C-34.144 126.791 -34.144 126.791 -31.523 126.816 C-30.96 126.814 -30.96 126.814 -28.111 126.802 C-26.917 126.809 -25.723 126.816 -24.493 126.823 C-21.226 126.838 -17.96 126.84 -14.694 126.834 C-11.965 126.831 -9.236 126.837 -6.507 126.843 C-0.071 126.857 6.366 126.856 12.802 126.844 C19.441 126.833 26.08 126.847 32.719 126.874 C38.422 126.896 44.126 126.903 49.83 126.897 C53.235 126.893 56.64 126.896 60.045 126.913 C63.839 126.928 67.633 126.917 71.428 126.9 C72.556 126.91 73.684 126.919 74.846 126.929 C75.879 126.92 76.912 126.91 77.977 126.9 C78.874 126.899 79.771 126.899 80.695 126.899 C83.827 126.245 85.053 124.79 87.094 122.398 C86.932 122.018 86.932 122.018 86.116 120.091 C84.911 117.249 83.707 114.407 82.504 111.565 C81.73 109.736 80.955 107.908 80.18 106.08 C79.69 104.923 79.2 103.766 78.695 102.574 C78.245 101.511 77.795 100.448 77.331 99.353 C76.225 96.711 75.148 94.061 74.094 91.398 C73.775 91.479 73.775 91.479 72.162 91.889 C68.092 92.565 64.127 92.546 60.008 92.544 C59.555 92.545 59.555 92.545 57.262 92.554 C54.271 92.563 51.28 92.565 48.289 92.566 C46.205 92.57 44.122 92.573 42.038 92.576 C37.672 92.582 33.306 92.584 28.94 92.584 C23.353 92.584 17.765 92.597 12.178 92.615 C7.875 92.626 3.572 92.628 -0.732 92.627 C-2.791 92.628 -4.851 92.633 -6.911 92.64 C-9.794 92.65 -12.678 92.647 -15.562 92.641 C-16.408 92.647 -17.254 92.653 -18.125 92.658 C-23.098 92.632 -27.189 91.991 -31.906 90.398 Z " fill="#2D241C" transform="translate(109.90625,71.6015625)"/>
</svg>
