<?xml version="1.0" encoding="UTF-8"?>
<!-- Generator: visioncortex VTracer 0.6.12 -->
<svg version="1.1" xmlns="http://www.w3.org/2000/svg" width="256" height="256" viewBox="0 0 512 512">
<path d="M0 0 C0.908 -0.006 1.816 -0.011 2.752 -0.017 C3.249 -0.018 3.249 -0.018 5.763 -0.021 C6.822 -0.026 7.881 -0.031 8.972 -0.036 C12.532 -0.052 16.091 -0.06 19.651 -0.069 C22.198 -0.078 24.746 -0.088 27.293 -0.099 C34.946 -0.127 42.599 -0.147 50.252 -0.164 C52.414 -0.169 54.576 -0.174 56.738 -0.179 C70.17 -0.21 83.602 -0.236 97.034 -0.253 C100.144 -0.257 103.254 -0.261 106.364 -0.265 C107.137 -0.266 107.91 -0.267 108.706 -0.268 C121.225 -0.285 133.745 -0.326 146.264 -0.377 C159.123 -0.429 171.981 -0.458 184.84 -0.465 C192.057 -0.47 199.275 -0.485 206.492 -0.525 C213.283 -0.563 220.073 -0.57 226.863 -0.557 C229.354 -0.557 231.845 -0.567 234.336 -0.589 C237.74 -0.617 241.142 -0.607 244.546 -0.588 C245.529 -0.605 246.512 -0.622 247.524 -0.639 C254.575 -0.543 259.165 1.474 264.472 6.14 C268.717 11.268 269.727 17.484 270.996 23.874 C271.218 24.946 271.441 26.018 271.67 27.122 C272.409 30.709 273.129 34.299 273.847 37.89 C274.372 40.468 274.897 43.046 275.422 45.624 C280.251 69.438 284.692 93.325 289.107 117.218 C289.699 120.42 290.291 123.622 290.883 126.823 C290.956 127.221 290.956 127.221 291.328 129.232 C294.436 146.042 297.653 162.829 300.889 179.614 C302.627 188.632 304.354 197.652 306.082 206.671 C306.354 208.091 306.626 209.51 306.898 210.929 C307.03 211.62 307.163 212.311 307.299 213.023 C308.181 217.628 309.069 222.232 309.957 226.835 C311.07 232.602 312.169 238.372 313.256 244.144 C313.642 246.18 314.033 248.216 314.428 250.251 C319.874 278.275 319.874 278.275 315.943 286.238 C312.349 290.46 308.515 293.585 302.937 294.602 C299.98 294.785 297.061 294.809 294.099 294.779 C292.971 294.787 291.843 294.796 290.681 294.804 C286.907 294.826 283.135 294.813 279.361 294.799 C276.649 294.805 273.937 294.818 271.225 294.831 C265.376 294.855 259.526 294.86 253.676 294.854 C245.14 294.844 236.604 294.862 228.068 294.886 C214.113 294.925 200.159 294.942 186.204 294.944 C172.831 294.947 159.458 294.96 146.084 294.987 C145.27 294.989 144.455 294.991 143.616 294.992 C139.52 295.001 135.423 295.009 131.327 295.018 C110.945 295.061 90.564 295.098 70.182 295.116 C69.821 295.116 69.821 295.116 67.994 295.118 C60.137 295.124 52.28 295.128 44.423 295.125 C41.601 295.124 38.78 295.124 35.959 295.124 C35.26 295.123 34.561 295.123 33.841 295.123 C23.737 295.123 13.634 295.16 3.531 295.219 C-2.321 295.253 -8.173 295.277 -14.025 295.298 C-18.812 295.316 -23.6 295.348 -28.387 295.389 C-31.345 295.411 -34.302 295.42 -37.259 295.426 C-39.275 295.434 -41.29 295.457 -43.305 295.481 C-51.121 295.481 -58.582 295.3 -64.903 290.237 C-65.439 289.566 -65.975 288.894 -66.528 288.202 C-67.084 287.533 -67.641 286.864 -68.215 286.175 C-72.716 279.196 -70.477 269.514 -69.051 261.855 C-68.97 261.406 -68.97 261.406 -68.563 259.133 C-68.018 256.113 -67.461 253.095 -66.903 250.077 C-66.499 247.865 -66.095 245.654 -65.691 243.442 C-61.011 217.932 -56.005 192.483 -51.022 167.031 C-48.297 153.109 -45.597 139.182 -42.906 125.253 C-42.508 123.191 -42.11 121.129 -41.711 119.067 C-40.148 110.975 -38.585 102.882 -37.024 94.79 C-35.061 84.614 -33.091 74.44 -31.105 64.269 C-30.025 58.73 -28.966 53.187 -27.92 47.641 C-27.224 43.962 -26.515 40.286 -25.804 36.609 C-25.474 34.887 -25.149 33.164 -24.83 31.439 C-20.793 9.687 -20.793 9.687 -14.462 4.422 C-9.797 1.28 -5.614 0.021 0 0 Z M7.472 17.14 C8.734 21.411 9.998 25.681 11.261 29.951 C11.615 31.147 11.968 32.342 12.332 33.574 C15.224 43.346 18.202 53.089 21.234 62.819 C22.624 67.281 24.009 71.746 25.394 76.21 C25.662 77.073 25.93 77.936 26.206 78.825 C29.338 88.917 32.416 99.025 35.472 109.14 C41.412 109.14 47.352 109.14 53.472 109.14 C53.699 106.747 53.926 104.355 54.16 101.89 C55.87 87.333 61.81 77.118 73.285 67.89 C94.549 53.146 121.02 50.666 145.918 55.167 C161.871 58.369 178.049 66.771 187.285 80.452 C192.863 89.792 193.9 98.371 194.472 109.14 C200.412 109.14 206.352 109.14 212.472 109.14 C216.501 95.935 220.522 82.728 224.534 69.518 C225.787 65.394 227.041 61.271 228.297 57.148 C229.703 52.532 231.103 47.914 232.5 43.295 C233.02 41.576 233.543 39.858 234.067 38.141 C234.797 35.747 235.52 33.352 236.242 30.956 C236.348 30.61 236.348 30.61 236.887 28.857 C238.151 24.632 238.887 20.504 239.472 16.14 C217.935 16.116 196.398 16.099 174.86 16.088 C164.852 16.083 154.845 16.076 144.837 16.064 C133.251 16.051 121.664 16.043 110.078 16.042 C109.134 16.042 108.19 16.042 107.218 16.042 C73.96 16.043 40.722 16.382 7.472 17.14 Z M-3.528 18.14 C-5.635 22.773 -6.567 27.518 -7.579 32.476 C-7.772 33.405 -7.965 34.335 -8.164 35.293 C-8.802 38.366 -9.432 41.44 -10.063 44.515 C-10.511 46.686 -10.959 48.857 -11.408 51.028 C-15.808 72.354 -20.096 93.703 -24.351 115.059 C-24.978 118.203 -25.605 121.347 -26.232 124.492 C-27.986 133.29 -29.74 142.088 -31.491 150.887 C-33.98 163.39 -36.478 175.891 -38.988 188.39 C-40.783 197.332 -42.573 206.275 -44.357 215.219 C-45.417 220.528 -46.48 225.837 -47.55 231.145 C-48.549 236.101 -49.54 241.059 -50.524 246.018 C-50.886 247.83 -51.25 249.642 -51.618 251.453 C-52.12 253.931 -52.612 256.412 -53.101 258.892 C-53.247 259.601 -53.393 260.309 -53.544 261.039 C-54.513 266.035 -55.031 271.054 -54.528 276.14 C-53.137 278.191 -53.137 278.191 -50.528 279.14 C-47.264 279.468 -44.053 279.422 -40.778 279.327 C-40.333 279.321 -40.333 279.321 -38.086 279.286 C-35.899 279.251 -33.714 279.199 -31.528 279.14 C-28.572 272.801 -26.128 266.395 -23.91 259.765 C-23.577 258.78 -23.244 257.796 -22.901 256.781 C-22.186 254.669 -21.474 252.556 -20.763 250.443 C-19.63 247.074 -18.492 243.706 -17.353 240.339 C-15.803 235.756 -14.254 231.173 -12.707 226.589 C-9.727 217.767 -6.726 208.952 -3.715 200.14 C-3.446 199.352 -3.177 198.564 -2.899 197.752 C-0.779 191.547 1.346 185.343 3.472 179.14 C3.872 177.975 4.271 176.811 4.682 175.611 C7.383 167.731 10.089 159.851 12.799 151.973 C13.7 149.352 14.601 146.73 15.5 144.108 C16.763 140.427 18.029 136.748 19.297 133.069 C19.674 131.967 20.052 130.865 20.441 129.729 C20.796 128.699 21.152 127.669 21.518 126.608 C21.683 126.128 21.683 126.128 22.516 123.7 C23.336 121.506 24.278 119.528 25.358 117.457 C26.918 112.814 25.893 109.713 24.472 105.14 C24.26 104.402 24.047 103.664 23.828 102.904 C23.138 100.557 22.41 98.226 21.672 95.894 C21.399 95.02 21.126 94.147 20.844 93.247 C19.953 90.398 19.056 87.55 18.16 84.702 C17.538 82.718 16.917 80.733 16.296 78.748 C15.334 75.674 14.372 72.599 13.409 69.525 C9.944 58.468 6.52 47.398 3.097 36.327 C2.527 34.482 1.956 32.637 1.385 30.792 C0.081 26.575 -1.224 22.357 -2.528 18.14 C-2.858 18.14 -3.188 18.14 -3.528 18.14 Z M249.472 18.14 C249.289 18.791 249.105 19.442 248.916 20.113 C244.84 34.495 240.597 48.818 236.16 63.093 C235.781 64.311 235.403 65.53 235.013 66.785 C233.096 72.95 231.171 79.112 229.238 85.271 C228.515 87.588 227.793 89.905 227.07 92.222 C226.737 93.275 226.404 94.328 226.061 95.413 C225.159 98.313 224.3 101.218 223.472 104.14 C223.221 105.014 222.97 105.888 222.71 106.789 C221.152 113.047 221.787 117.132 224.179 123.054 C224.491 123.885 224.802 124.716 225.123 125.572 C225.8 127.369 226.488 129.161 227.186 130.949 C228.312 133.833 229.407 136.727 230.494 139.626 C231.644 142.688 232.795 145.749 233.955 148.807 C238.101 159.736 242.02 170.742 245.91 181.765 C246.258 182.747 246.605 183.728 246.964 184.74 C253.333 202.728 259.505 220.782 265.589 238.869 C270.025 252.032 274.663 265.109 279.472 278.14 C281.899 278.186 284.325 278.232 286.752 278.277 C288.623 278.314 290.495 278.36 292.366 278.41 C293.171 278.418 293.975 278.425 294.804 278.433 C295.627 278.448 296.449 278.464 297.296 278.48 C300.056 278.048 300.792 277.345 302.472 275.14 C303.119 266.803 300.379 257.776 298.751 249.637 C298.47 248.208 298.188 246.778 297.908 245.347 C297.145 241.473 296.376 237.599 295.605 233.726 C294.782 229.585 293.966 225.442 293.148 221.3 C291.761 214.28 290.37 207.261 288.976 200.242 C287.578 193.202 286.184 186.162 284.794 179.12 C276.766 138.455 268.62 97.817 260.237 57.224 C260.161 56.858 260.161 56.858 259.779 55.009 C259.081 51.628 258.382 48.247 257.681 44.866 C255.908 36.298 254.179 27.722 252.472 19.14 C251.482 18.81 250.492 18.48 249.472 18.14 Z M74.078 81.636 C68.38 88.546 64.914 95.152 65.648 104.339 C67.135 112.942 72.22 119.899 78.886 125.378 C97.862 138.306 119.628 141.48 142.125 137.827 C156.66 134.842 167.856 128.531 177.472 117.14 C181.491 110.947 183.348 104.511 182.472 97.14 C179.819 86.644 173.337 79.756 164.472 73.89 C138.407 58.652 96.032 58.751 74.078 81.636 Z M34.472 119.14 C27.856 137.698 21.365 156.295 15.035 174.952 C8.728 193.541 2.373 212.112 -4.016 230.673 C-4.708 232.681 -5.399 234.69 -6.09 236.699 C-7.395 240.494 -8.701 244.287 -10.008 248.081 C-10.391 249.194 -10.774 250.307 -11.168 251.453 C-11.352 251.989 -11.352 251.989 -12.286 254.697 C-12.646 255.74 -13.005 256.784 -13.375 257.859 C-14.205 260.222 -15.052 262.574 -15.92 264.923 C-16.152 265.555 -16.383 266.186 -16.622 266.836 C-17.274 268.608 -17.933 270.377 -18.593 272.146 C-19.528 275.14 -19.528 275.14 -19.528 279.14 C13.35 279.175 46.227 279.08 79.104 278.938 C85.111 278.912 91.117 278.887 97.124 278.862 C108.979 278.813 120.833 278.763 132.688 278.713 C144.167 278.664 155.645 278.615 167.124 278.567 C167.481 278.566 167.481 278.566 169.287 278.558 C172.871 278.543 176.455 278.528 180.039 278.513 C209.517 278.39 238.995 278.265 268.472 278.14 C265.363 266.531 265.363 266.531 263.657 261.604 C263.332 260.657 263.006 259.709 262.67 258.733 C262.497 258.237 262.497 258.237 261.621 255.722 C261.25 254.647 260.879 253.573 260.496 252.466 C259.284 248.96 258.066 245.456 256.847 241.952 C255.993 239.487 255.138 237.022 254.284 234.557 C247.131 213.942 239.88 193.361 232.557 172.806 C230.44 166.862 228.33 160.915 226.225 154.966 C224.83 151.022 223.432 147.081 222.032 143.139 C221.373 141.281 220.716 139.423 220.06 137.565 C219.161 135.019 218.257 132.476 217.351 129.933 C217.088 129.182 216.824 128.432 216.552 127.658 C215.43 124.52 214.332 121.929 212.472 119.14 C210.593 118.799 210.593 118.799 208.34 118.847 C207.534 118.857 206.728 118.866 205.898 118.876 C205.477 118.889 205.477 118.889 203.347 118.952 C202.498 118.966 201.648 118.979 200.773 118.993 C198.673 119.029 196.572 119.083 194.472 119.14 C194.469 120.351 194.465 121.563 194.461 122.811 C194.424 134.271 194.366 145.73 194.289 157.19 C194.249 163.081 194.217 168.971 194.201 174.862 C194.186 180.555 194.152 186.247 194.104 191.94 C194.089 194.104 194.081 196.267 194.081 198.431 C194.067 216.055 192.816 229.578 180.582 243.253 C165.616 257.962 143.369 262.4 123.111 262.318 C101.967 262.038 82.256 256.205 66.664 241.464 C57.066 231.285 54.356 220.224 54.267 206.554 C54.257 205.607 54.247 204.66 54.237 203.685 C54.206 200.568 54.181 197.452 54.156 194.335 C54.135 192.169 54.114 190.003 54.093 187.837 C54.038 182.145 53.988 176.454 53.94 170.762 C53.89 164.951 53.834 159.139 53.779 153.327 C53.672 141.932 53.571 130.536 53.472 119.14 C47.202 119.14 40.932 119.14 34.472 119.14 Z M64.472 127.14 C64.403 138.441 64.35 149.742 64.317 161.043 C64.301 166.291 64.28 171.54 64.246 176.788 C64.213 181.858 64.196 186.928 64.188 191.999 C64.182 193.928 64.172 195.857 64.155 197.785 C64.033 212.875 64.6 223.845 75.441 235.202 C89.79 248.928 109.492 252.634 128.703 252.351 C146.507 251.769 163.052 246.054 175.535 232.98 C184.867 221.957 183.879 209.374 183.765 195.694 C183.76 193.713 183.756 191.732 183.753 189.751 C183.741 184.566 183.712 179.381 183.678 174.196 C183.648 168.894 183.634 163.591 183.619 158.288 C183.587 147.905 183.536 137.523 183.472 127.14 C182.991 127.553 182.51 127.966 182.014 128.392 C181.383 128.933 180.753 129.474 180.103 130.032 C179.79 130.301 179.79 130.301 178.207 131.659 C159.069 147.996 136.806 150.228 112.472 149.14 C95.172 147.647 79.791 140.507 67.187 128.679 C65.472 127.14 65.472 127.14 64.472 127.14 Z " fill="#000000" transform="translate(134.52756786346436,108.86019229888916)"/>
<path d="M0 0 C1.12 -0.001 2.24 -0.003 3.395 -0.004 C4.574 -0 5.754 0.004 6.969 0.008 C7.558 0.006 7.558 0.006 10.543 -0.004 C11.103 -0.003 11.103 -0.003 13.938 0 C14.973 0.001 16.009 0.002 17.076 0.003 C19.469 0.133 19.469 0.133 20.469 1.133 C20.542 3.829 20.561 6.5 20.531 9.195 C20.527 9.954 20.522 10.713 20.518 11.494 C20.506 13.374 20.488 15.253 20.469 17.133 C21.185 17.122 21.902 17.112 22.64 17.101 C25.875 17.06 29.109 17.034 32.344 17.008 C33.472 16.991 34.6 16.974 35.762 16.957 C36.838 16.951 37.914 16.944 39.023 16.938 C40.018 16.927 41.013 16.917 42.039 16.906 C44.469 17.133 44.469 17.133 46.469 19.133 C46.694 22.009 46.793 24.757 46.781 27.633 C46.797 28.418 46.813 29.203 46.83 30.012 C46.832 32.289 46.832 32.289 46.469 36.133 C43.118 38.367 42.051 38.371 38.145 38.328 C37.631 38.325 37.631 38.325 35.029 38.309 C33.957 38.292 32.886 38.275 31.781 38.258 C31.24 38.253 31.24 38.253 28.498 38.23 C25.821 38.207 23.145 38.174 20.469 38.133 C20.48 39.276 20.492 40.42 20.504 41.598 C20.513 43.089 20.522 44.579 20.531 46.07 C20.54 46.825 20.548 47.58 20.557 48.357 C20.565 50.283 20.521 52.208 20.469 54.133 C18.723 55.878 16.308 55.263 13.938 55.266 C12.817 55.267 11.697 55.268 10.543 55.27 C9.363 55.266 8.184 55.262 6.969 55.258 C6.379 55.26 6.379 55.26 3.395 55.27 C2.834 55.269 2.834 55.269 0 55.266 C-1.036 55.264 -2.072 55.263 -3.139 55.262 C-5.531 55.133 -5.531 55.133 -6.531 54.133 C-6.604 51.436 -6.624 48.766 -6.594 46.07 C-6.589 45.312 -6.585 44.553 -6.58 43.771 C-6.568 41.892 -6.55 40.012 -6.531 38.133 C-6.89 38.135 -6.89 38.135 -8.703 38.149 C-11.937 38.169 -15.172 38.182 -18.406 38.195 C-18.97 38.2 -18.97 38.2 -21.824 38.221 C-22.901 38.224 -23.977 38.227 -25.086 38.23 C-26.081 38.236 -27.076 38.241 -28.101 38.246 C-30.531 38.133 -30.531 38.133 -32.531 37.133 C-33.691 33.653 -33.735 30.8 -33.781 27.133 C-33.807 25.895 -33.833 24.658 -33.859 23.383 C-33.531 20.133 -33.531 20.133 -32.357 18.448 C-29.826 16.625 -28.087 16.791 -24.988 16.84 C-24.452 16.845 -24.452 16.845 -21.736 16.869 C-20.617 16.894 -19.497 16.919 -18.344 16.945 C-17.213 16.959 -16.081 16.972 -14.916 16.986 C-12.121 17.022 -9.326 17.071 -6.531 17.133 C-6.543 15.989 -6.554 14.846 -6.566 13.668 C-6.576 12.177 -6.585 10.686 -6.594 9.195 C-6.602 8.441 -6.611 7.686 -6.619 6.908 C-6.628 4.983 -6.583 3.057 -6.531 1.133 C-4.786 -0.613 -2.37 0.003 0 0 Z " fill="#000000" transform="translate(251.53125,182.8671875)"/>
</svg>
