<?xml version="1.0" encoding="UTF-8"?>
<!-- Generator: visioncortex VTracer 0.6.12 -->
<svg version="1.1" xmlns="http://www.w3.org/2000/svg" width="256" height="256" viewBox="54 47 403 418">
<path d="M0 0 C4.145 1.884 4.888 2.776 7 7 C7.324 10.567 7.336 13.159 6 16.5 C3.71 19.363 1.175 21.566 -1.672 23.863 C-4 26 -4 26 -6.867 29.351 C-12.099 35.365 -17.806 40.91 -23.461 46.523 C-24.66 47.718 -25.858 48.912 -27.056 50.107 C-30.826 53.866 -34.6 57.621 -38.375 61.375 C-42.772 65.749 -47.168 70.124 -51.56 74.504 C-53.316 76.253 -55.074 77.999 -56.833 79.745 C-57.892 80.801 -58.95 81.856 -60.041 82.943 C-60.976 83.874 -61.912 84.804 -62.877 85.763 C-65 88 -65 88 -66 90 C-64.556 89.691 -63.113 89.381 -61.625 89.062 C-47.833 86.367 -47.833 86.367 -42.562 88.188 C-40 90 -40 90 -37 94 C-36.566 97.397 -36.803 99.502 -38.062 102.688 C-41.637 106.954 -46.382 107.881 -51.707 108.907 C-53.479 109.163 -55.252 109.406 -57.027 109.641 C-57.975 109.772 -58.923 109.903 -59.899 110.039 C-61.895 110.312 -63.891 110.581 -65.887 110.845 C-68.927 111.249 -71.962 111.674 -74.998 112.102 C-76.945 112.366 -78.892 112.629 -80.84 112.891 C-81.739 113.018 -82.638 113.145 -83.565 113.275 C-88.921 113.966 -93.696 114.073 -99 113 C-102.179 110.43 -103.707 108.878 -105 105 C-104.936 103.33 -104.8 101.662 -104.625 100 C-104.114 94.626 -103.807 89.268 -103.562 83.875 C-103.211 77.303 -102.821 70.744 -102.25 64.188 C-102.131 62.758 -102.013 61.328 -101.891 59.855 C-100.853 55.365 -99.229 53.234 -96 50 C-92.936 48.468 -90.383 48.771 -87 49 C-83.461 50.651 -82.189 51.716 -80 55 C-79.859 58.06 -79.832 61.125 -79.875 64.188 C-79.893 65.831 -79.911 67.475 -79.93 69.168 C-79.953 70.433 -79.976 71.697 -80 73 C-79.515 72.432 -79.031 71.863 -78.531 71.277 C-74.556 66.698 -70.497 62.589 -65.867 58.68 C-64 57 -64 57 -61 53.5 C-58.168 50.196 -55.243 47.555 -51.941 44.754 C-49.001 42.097 -46.572 39.01 -44 36 C-42.866 35.031 -41.731 34.061 -40.562 33.062 C-37.876 30.753 -35.762 28.666 -33.5 26 C-30.312 22.243 -26.743 19.208 -23 16 C-21.877 14.725 -20.773 13.432 -19.688 12.125 C-8.536 -0.885 -8.536 -0.885 0 0 Z " fill="#000000" transform="translate(414,63)"/>
<path d="M0 0 C0.33 0.33 0.66 0.66 1 1 C1.325 7.064 0.458 12.168 -1 18 C-9.799 16.475 -18.387 13.132 -26.625 9.75 C-38.831 4.867 -51.085 6.718 -63.438 10.188 C-64.729 10.535 -66.02 10.882 -67.351 11.24 C-71.061 12.244 -74.767 13.265 -78.47 14.297 C-81.174 15.048 -83.879 15.796 -86.584 16.542 C-94.686 18.777 -102.786 21.014 -110.882 23.27 C-122.827 26.596 -134.783 29.851 -146.823 32.821 C-164.735 37.314 -164.735 37.314 -169 43 C-165.079 54.373 -151.039 60.805 -141.222 66.702 C-137.549 68.847 -133.793 70.757 -129.949 72.574 C-126.416 74.282 -123.002 76.173 -119.562 78.062 C-112.85 81.646 -106.165 84.467 -99 87 C-97.27 87.646 -95.541 88.293 -93.812 88.941 C-53.243 103.902 -19.532 98.43 20.586 84.174 C23.413 83.202 26.226 82.343 29.105 81.547 C35.577 79.657 41.597 76.733 47.688 73.875 C48.92 73.3 50.153 72.724 51.423 72.132 C73.14 61.86 73.14 61.86 79 56 C79 55.01 79 54.02 79 53 C72.73 50.36 66.46 47.72 60 45 C60.33 44.34 60.66 43.68 61 43 C62.013 42.902 63.026 42.804 64.07 42.703 C65.408 42.554 66.746 42.404 68.125 42.25 C69.448 42.111 70.77 41.972 72.133 41.828 C76.283 40.939 78.632 39.521 82 37 C84.375 35.938 84.375 35.938 87 36 C94.899 39.949 100.152 45.266 104.066 53.176 C106.047 57.806 107.193 62.513 108.188 67.438 C110.316 77.379 112.858 87.183 115.5 97 C118.214 107.116 120.816 117.221 123.049 127.454 C124.964 136.108 127.207 144.673 129.438 153.25 C144.784 212.446 144.784 212.446 136.219 230.883 C129.736 239.991 121.282 244.866 111.188 249.188 C110.101 249.669 109.015 250.15 107.896 250.646 C105.709 251.616 103.518 252.579 101.324 253.534 C96.849 255.507 92.422 257.579 87.997 259.66 C84.933 261.03 81.839 262.223 78.688 263.375 C72.171 265.812 66.094 268.929 59.906 272.094 C55.472 274.258 50.972 275.961 46.344 277.656 C42.438 279.226 38.747 281.084 35 283 C30.228 285.44 25.532 287.657 20.5 289.5 C14.007 291.885 7.946 294.947 1.785 298.078 C-19.071 308.668 -39.108 312.586 -62.48 309.387 C-76.815 305.838 -90.271 298.431 -103.355 291.793 C-107.352 289.827 -111.405 288.141 -115.535 286.48 C-121.2 284.06 -126.727 281.348 -132.264 278.653 C-137.347 276.196 -142.461 273.972 -147.718 271.914 C-150.813 270.674 -153.808 269.256 -156.812 267.812 C-163.971 264.433 -171.218 261.302 -178.501 258.205 C-183.883 255.915 -189.231 253.572 -194.531 251.098 C-196.321 250.302 -198.138 249.567 -199.969 248.871 C-210.116 244.989 -218.115 239.644 -223.82 230.215 C-229.218 220.081 -229.588 211.94 -227.312 200.938 C-226.571 197.618 -225.791 194.308 -225 191 C-224.64 189.463 -224.281 187.927 -223.91 186.344 C-223.258 183.57 -222.599 180.797 -221.93 178.027 C-221.267 175.157 -220.662 172.274 -220.096 169.383 C-219.058 164.165 -217.826 159.009 -216.539 153.848 C-216.062 151.916 -215.586 149.984 -215.109 148.053 C-214.371 145.072 -213.632 142.091 -212.892 139.11 C-210.436 129.214 -208.024 119.328 -205.969 109.34 C-203.904 99.313 -201.413 89.415 -198.875 79.5 C-196.284 69.375 -193.765 59.307 -192 49 C-189.556 38.657 -186.475 31.868 -178.312 24.812 C-169.226 18.456 -158.959 15.481 -148.238 13.199 C-140.706 11.535 -133.267 9.48 -125.812 7.5 C-125.047 7.298 -125.047 7.298 -121.174 6.277 C-119.7 5.887 -118.226 5.496 -116.707 5.094 C-116.039 4.917 -116.039 4.917 -112.659 4.021 C-109.398 3.111 -106.21 2.075 -103 1 C-100.881 0.576 -98.755 0.182 -96.625 -0.188 C-88.531 -1.749 -80.713 -4.023 -72.829 -6.399 C-45.691 -14.558 -25.516 -11.688 0 0 Z M-177 65 C-177.728 67.703 -178.432 70.413 -179.125 73.125 C-179.519 74.633 -179.914 76.141 -180.32 77.695 C-181.017 82.11 -180.976 84.059 -179 88 C-154.7 118.108 -98.571 134.328 -62.104 141.576 C-37.929 146.184 -11.944 139.945 11 132 C12.107 131.617 13.215 131.234 14.355 130.839 C29.056 125.709 43.276 120.386 57 113 C59.768 111.641 62.539 110.287 65.312 108.938 C88.418 97.374 88.418 97.374 94 89 C94.236 85.295 93.909 82.637 93 79 C92.333 76.333 91.667 73.667 91 71 C86.459 73.451 82.175 75.878 77.93 78.828 C72.592 82.414 66.924 85.013 61.062 87.625 C60.042 88.089 59.022 88.553 57.971 89.031 C49.38 92.912 40.715 96.459 31.812 99.562 C28.289 100.805 24.86 102.062 21.438 103.562 C10.326 108.209 -1.528 110.618 -13.25 113.188 C-14.833 113.543 -16.416 113.898 -18.047 114.264 C-52.812 121.949 -85.097 113.578 -117 99 C-118.174 98.501 -119.349 98.002 -120.559 97.488 C-139.142 89.452 -156.513 79.139 -172.852 67.238 C-176 65 -176 65 -177 65 Z M-186 106 C-188.622 115.721 -191.183 125.419 -193.212 135.284 C-196.307 149.884 -200.066 164.339 -203.732 178.803 C-211.909 211.273 -211.909 211.273 -208.562 221.312 C-203.396 228.748 -196.233 231.503 -187.938 234.516 C-182.976 236.386 -178.118 238.464 -173.25 240.562 C-172.375 240.939 -171.5 241.315 -170.599 241.702 C-165.048 244.096 -159.521 246.539 -154 249 C-153.252 249.33 -153.252 249.33 -149.465 251 C-148.718 251.33 -148.718 251.33 -144.938 253 C-143.441 253.66 -141.944 254.32 -140.402 255 C-137.514 256.312 -134.65 257.681 -131.816 259.109 C-128.566 260.719 -125.409 262.035 -122 263.25 C-115.409 265.726 -109.24 268.824 -102.977 272.027 C-99.34 273.832 -95.687 275.447 -91.938 277 C-86.88 279.1 -82.156 281.517 -77.375 284.188 C-70.32 288.039 -63.146 291 -55 291 C-54.977 274.067 -54.959 257.135 -54.948 240.202 C-54.943 232.341 -54.936 224.479 -54.925 216.617 C-54.914 209.038 -54.908 201.458 -54.905 193.879 C-54.903 190.979 -54.9 188.08 -54.894 185.181 C-54.887 181.136 -54.886 177.092 -54.886 173.047 C-54.883 171.835 -54.879 170.623 -54.876 169.374 C-54.876 168.827 -54.876 168.827 -54.88 166.056 C-54.879 165.098 -54.878 164.14 -54.877 163.153 C-54.918 162.443 -54.958 161.732 -55 161 C-57.09 158.91 -61.588 158.929 -64.312 158.438 C-84.893 154.483 -104.778 148.307 -124 140 C-125.381 139.425 -126.761 138.85 -128.184 138.258 C-143.942 131.585 -159.021 123.475 -173.188 113.875 C-177.376 111.037 -181.464 108.268 -186 106 Z M89.438 114.438 C73.972 124.322 58.078 132.002 41.056 138.777 C38.17 139.932 35.3 141.122 32.43 142.316 C14.502 149.586 -4.187 153.711 -23 158 C-27.29 158.99 -31.58 159.98 -36 161 C-36 203.9 -36 246.8 -36 291 C-25.639 289.964 -18.899 287.529 -9.688 283.125 C-4.077 280.458 1.544 277.827 7.207 275.273 C10.589 273.731 13.949 272.146 17.312 270.562 C23.371 267.727 29.482 265.057 35.641 262.449 C38.75 261.108 41.813 259.696 44.875 258.25 C52.168 254.841 59.614 251.806 67.072 248.778 C72.123 246.706 77.046 244.517 81.91 242.035 C89.354 238.245 97.069 235.165 104.816 232.057 C111.799 229.179 117.73 226.632 121.875 220 C125.506 207.089 121.294 194.632 118.045 182.06 C116.171 174.778 114.356 167.482 112.533 160.187 C111.894 157.636 111.249 155.087 110.604 152.538 C108.202 143.021 105.952 133.489 103.875 123.897 C102.748 118.877 101.413 113.946 100 109 C96.103 109 92.648 112.344 89.438 114.438 Z " fill="#000000" transform="translate(299,139)"/>
</svg>
